<?xml version="1.0" encoding="utf-8"?>
<!-- Generator: Adobe Illustrator 24.3.0, SVG Export Plug-In . SVG Version: 6.00 Build 0)  -->
<svg version="1.1" id="Capa_1" xmlns="http://www.w3.org/2000/svg" xmlns:xlink="http://www.w3.org/1999/xlink" x="0px" y="0px"
	 viewBox="0 0 1920 1080" style="enable-background:new 0 0 1920 1080;" xml:space="preserve">
<style type="text/css">
	.st0{fill:url(#SVGID_1_);}
	.st1{fill:none;stroke:#000000;stroke-miterlimit:10;}
	.st2{fill:#5E7059;}
	.st3{fill:#FFFFFF;}
	.st4{fill:#B9539A;}
	.st5{fill:#E3BAD7;}
	.st6{fill:none;stroke:#000000;stroke-width:5;stroke-miterlimit:10;}
	.st7{fill:#0B090B;}
	.st8{fill:#B55298;}
	.st9{fill:#FAF9FA;}
	.st10{fill:#090408;}
	.st11{fill:#E0DFDF;}
	.st12{fill:#0F060E;}
	.st13{fill:none;}
	.st14{font-family:'FranklinGothic-Book';}
	.st15{font-size:34px;}
	.st16{font-size:55px;}
	.st17{fill:none;stroke:#E3BAD7;stroke-width:3;stroke-miterlimit:10;}
</style>
<linearGradient id="SVGID_1_" gradientUnits="userSpaceOnUse" x1="960.2473" y1="877.0427" x2="960.2473" y2="0.0426">
	<stop  offset="0" style="stop-color:#FFFFFF"/>
	<stop  offset="0.0399" style="stop-color:#F6F7F5"/>
	<stop  offset="0.2835" style="stop-color:#C0C7BE"/>
	<stop  offset="0.5097" style="stop-color:#96A292"/>
	<stop  offset="0.7117" style="stop-color:#778773"/>
	<stop  offset="0.8819" style="stop-color:#657760"/>
	<stop  offset="1" style="stop-color:#5E7159"/>
</linearGradient>
<rect x="-2.75" y="0.04" class="st0" width="1926" height="877"/>
<rect x="1917.25" y="438.04" class="st1" width="0" height="1"/>
<rect x="-0.75" y="827.04" class="st2" width="1920" height="253"/>
<path class="st3" d="M1937.81,841.62c-1.55-2.4-3.39-4.27-5.41-5.67c1.71-3.74,2.19-8.1,1.22-12.62
	c-2.12-9.82-4.02-19.69-5.71-29.59c0.09-0.38,0.2-0.76,0.29-1.14c3.59-14.76,5.86-29.84,7.5-44.93c3.04-28.06,3.06-56.4,2.28-84.59
	c-0.95-34.01-3.62-67.96-7.92-101.71c-0.1-0.75-0.22-1.49-0.37-2.22c2.93-3.23,4.74-7.58,5.21-12.55
	c2.62-27.5,3.26-55.13,1.91-82.73c-0.43-8.69-6.71-17.1-15.5-18.35c-1.51-0.96-3.2-1.69-5.07-2.12
	c-33.16-7.55-67.21-10.05-101.11-11.5c-4.02-0.17-8.03-0.33-12.05-0.49c-38.67-10.07-79.01-14.03-118.88-11.52
	c-8.56-0.8-17.04-0.46-25.05,2.48c-8.46,3.1-14.15,10.25-13.33,19.41c-0.84,0.95-1.59,2.01-2.21,3.2c-0.17,0.33-0.34,0.65-0.51,0.98
	c-0.1-0.03-0.19-0.07-0.3-0.09c-3.4-0.89-6.73-1.95-10.02-3.18c0.33,0.1-0.3-0.18-1.17-0.57c-1.4-1.17-2.81-2.34-4.21-3.51
	c-3.37-2.81-6.87-4.84-11.16-5.31c-0.15-0.1-0.26-0.18-0.3-0.2c-2.95-2.35-5.7-4.94-8.61-7.34c-14.5-11.94-32.5-19.17-49.17-27.57
	c-1.36-0.68-2.8-1.2-4.27-1.57c-3.19-2.93-7.36-4.75-12.12-4.67c-26.39,0.48-52.78,0.86-79.17,1.45
	c-14.88,0.33-29.94,0.95-44.79,2.82c-4.19-2.73-9.39-3.79-14.68-2.31c-5.67,1.59-11.08,4.44-15.58,8.29
	c-0.14,0.04-0.28,0.07-0.42,0.12c-5.79,1.66-11.47,3.66-17.22,5.45c-2.58,0.8-5.17,1.57-7.79,2.25c-1.45,0.37-2.9,0.73-4.36,1.04
	c-0.19,0.04-3.81,0.65-3.38,0.65c-12.02,1.34-24.39-0.67-35.99,3.8c-5.54,2.14-10.43,5.15-15.66,7.83c1.45-0.78-2.38,0.89-2.82,1.02
	c-1.1,0.31-2.21,0.57-3.33,0.8c-0.69,0.14-1.38,0.25-2.08,0.36c-0.37-0.01-3.57,0.34-4.12,0.38c-12.58,1-25.18,1.84-37.77,2.75
	c-7.17,0.52-14.34,1.04-21.5,1.56c-7.17,0.52-14.61,0.89-21.43,3.35c-8.43,3.05-14.9,8.54-21.57,14.36l-15.28,13.33
	c-8.69,2.26-17.37,4.51-26.06,6.77c-6.9-0.59-13.82,2.43-17.6,8.89c-1.34,2.29-2.75,4.54-4.26,6.73c-0.76,1.09-1.55,2.16-2.35,3.23
	c-0.13,0.16-0.3,0.36-0.52,0.62c-3.61,4.28-7.35,8.42-11.24,12.45c-7.62,7.89-15.59,15.46-22.73,23.81
	c-8.4,9.82-14.65,20.72-21.95,31.29c-0.87,1.25-1.76,2.48-2.67,3.71c-0.15,0.18-0.33,0.41-0.54,0.66c-2,2.38-4.02,4.72-6.17,6.96
	c-1.95,2.04-3.96,4.01-6.04,5.91c-1.04,0.95-2.1,1.88-3.17,2.8c-0.56,0.48-4.38,3.55-1.53,1.35c-4.15,3.2-7.49,7.71-8.73,12.62
	c-3.05,5.47-3.26,12.2,0.01,18.28c5.56,10.32,11.61,20.37,18.21,30.06c2.45,3.59,4.95,7.19,7.55,10.7
	c-2.05,0.52-4.09,1.07-6.11,1.67c-6.57,1.93-13.82,3.94-19.7,7.52c-4.09,2.49-7.02,5.68-9.75,9.53c-0.74,1.04-1.5,2.17-2.09,3.31
	c0,0.01-0.01,0.02-0.02,0.03c-4.37,3.36-7.53,8.08-7.78,13.54c-21.98,0.15-44.04,2.97-65.31,8.37
	c-13.52,3.43-30.46,6.83-34.57,22.34c-1.92,7.26,0.74,15.06,5.03,22.26c-23.59,13.37-46.8,27.41-69.58,42.13
	c-3.8,2.46-6.56,5.95-7.97,9.9c-46.57,1.54-93.14,3.08-139.7,4.61c-29.91,0.99-59.83,1.98-89.74,2.96
	c-14.39,0.48-28.79,1.09-43.19,1.26c-7.1,0.08-14.2,0.03-21.29-0.3c-3.22-0.15-6.43-0.35-9.64-0.62c-1.93-0.16-3.85-0.34-5.77-0.56
	c-0.29-0.03-4.15-0.56-3.63-0.47c-15.19-2.35-30.23-6.13-45.67-6.41c-13.65-0.25-27.41,1.82-40.74,4.73
	c-2.27-1.05-4.76-1.58-7.37-1.33c-17,1.65-33.97,3.88-50.82,6.71c-0.65-0.06-1.3-0.12-1.95-0.19c-0.02-0.04-3.36-0.52-3.5-0.54
	c-5.95-1.09-11.79-2.66-17.78-3.55c-8.14-1.21-15.74-1.68-23.87,0.19c-6.83,1.57-12.64,5.26-18.15,9.4
	c-0.19,0.14-0.38,0.27-0.57,0.4c-0.46-0.06-0.92-0.12-1.39-0.16c-10.13-0.81-20.59,0.48-30.29,3.52c-0.31,0.1-0.61,0.21-0.92,0.33
	c-4.05-0.24-8.1-0.48-12.16-0.71c-8.05-0.46-16.11-0.85-24.15-1.43c-2.16-0.16-4.31-0.33-6.47-0.55c-0.45-0.04-2.64-0.32-3.7-0.44
	c-0.32-0.05-0.79-0.12-1.47-0.22c-1.22-0.21-2.43-0.43-3.63-0.68c-1.8-0.37-3.58-0.79-5.35-1.26c-14.47-3.85-27.8-10.99-42.19-15.11
	c-18.08-5.18-35.76-5-53.12,2.35c-0.44,0.19-0.86,0.4-1.26,0.63c-0.16,0.03-0.32,0.07-0.48,0.11c-1.65-0.2-3.31-0.37-4.96-0.53
	c-4.2-2.73-9.52-3.65-15.15-2.64c-2.42,0.43-4.84,0.89-7.26,1.33c-1.68-0.03-3.36-0.05-5.04-0.05
	c-34.13,0.11-68.02,5.96-101.57,11.69c-9.57,1.63-15.78,13.91-12.92,22.76c1.55,4.78,4.36,8.27,7.94,10.47
	c0.86,2.69,2.23,5.22,4.02,7.34c-2.49,5.35-3.12,11.96-3.12,18.36c-5.54,3.35-9.52,9.6-9.23,16.01c0.47,10.43,8.13,17.99,18.5,18.5
	c10.69,0.52,18.32-5.47,26.95-10.53c0.11-0.04,0.21-0.07,0.34-0.11c1.1-0.31,2.21-0.56,3.34-0.76c-3.99,0.82,2.98-0.23,3.74-0.29
	c2.42-0.19,4.84-0.38,7.27-0.38c1.13-0.01,2.26,0.02,3.39,0.09c1.11,0.32,4.36,1.33,3.88,1.06c2.37,1.02,4.69,2.23,7.16,2.98
	c6.29,1.9,12.54,1.64,18.91,0.65c4.2-0.65,8.21-1.84,12.29-3.01c2.06-0.59,4.15-1.07,6.22-1.62c0.14-0.03,0.24-0.04,0.36-0.07
	c0.18-0.01,0.35-0.01,0.53-0.02c2.41,1.19,5.12,1.92,8.07,2.05c9.93,0.46,19.85,1.09,29.77,1.85c12.09,7.85,30.54,6.19,44.05,6.67
	c7.12,0.25,14.24,0.51,21.36,0.76c1.96,0.3,3.98,0.62,6.08,0.95c3.21,0.51,6.57,0.38,9.71-0.39c6.83,0.24,13.66,0.49,20.48,0.73
	c18.56,0.66,37.17,1.73,55.74,1.75c18.35,0.02,37.25-1.57,54.54-8.09c1.15-0.43,2.27-0.96,3.34-1.57c4.39,0.49,8.79,0.96,13.2,1.38
	c2.7,1.61,5.87,2.59,9.36,2.75c9.57,0.43,19.15,0.87,28.72,1.3c2.46,0.11,4.92,0.21,7.38,0.36c0.55,0.03,5.35,0.52,5.16,0.42
	c4.04,0.65,8.02,1.68,12.04,2.46c19.07,3.67,39.02,1.1,55.05-10.36c1.19,0.53,2.4,1.03,3.63,1.38c2.03,0.59,4.85,0.86,6.61,1.01
	c2.95,0.25,5.97-0.24,8.84-0.92c1.1-0.26,2.19-0.67,3.25-1.21c4.48,1.14,8.89,2.55,13.35,3.76c10.73,2.92,21.86,4.43,32.75,1.89
	c1.37,1.08,2.73,2.17,4.1,3.25c0.83,0.89,1.74,1.64,2.72,2.27c10.75,0.21,21.46,1.07,32.16,2.13c4.68-0.05,9.36-0.13,14.02-0.14
	c0.43,0,0.81,0.09,1.15,0.25c4.66-0.46,9.33-0.46,14.02-0.38c-1.97-5.2-6.4-9.18-12.3-11.62c3.35,1.39-2.9-1.46-3.48-1.76
	c-2.06-1.07-4.08-2.22-6.05-3.44c-1.73-1.07-3.41-2.22-5.06-3.39c0.72,0.46-3.3-2.69-3.73-3.07c-1.2-1.05-2.53-1.95-3.94-2.71
	c-0.82-1.67-1.91-3.16-3.33-4.29l-9.12-7.23c-0.62-0.67-1.3-1.24-2-1.76c-0.44-1.17-0.99-2.3-1.68-3.39
	c4.52-0.15,9.05-0.44,13.61-0.86c15.16-1.4,30.32-3.58,45.58-3.16c15.26,0.42,30.34,3.44,45.61,3.58
	c17.61,0.16,31.22-4.92,46.24-4.41c1.86,0.06,3.71-0.23,5.47-0.8c3.89,1.45,7.65,3.22,11.64,4.45c6.94,2.14,14.51,3.03,21.76,3.04
	c0.79,0,1.58-0.01,2.36-0.03c0.52,0.05,1.03,0.09,1.56,0.09c1.98,0.02,3.96,0.03,5.94,0.05c12.53,1.81,25.3,3.83,37.97,2.71
	c6.92-0.61,13.63-1.79,20.27-3.81c2.91-0.89,5.79-1.87,8.75-2.6c0.76-0.19,1.53-0.38,2.3-0.54c-0.35,0.17,3.19,0.05,3.44,0.06
	c0.28,0.01,0.57,0.01,0.85,0.01c11.85,1,23.67,0.02,35.48-0.95c3.25,3.23,7.63,5.27,12.64,5.16c14.04-0.3,28.09-0.6,42.13-0.9
	c2.33-0.05,4.57-0.52,6.63-1.33c11.43-0.44,22.87-0.54,34.31-0.28c1.23,0.72,2.55,1.35,3.97,1.85c20.96,7.37,43.11,6.91,64.85,4.2
	c1.66,0.27,3.43,0.57,5.4,0.9c5.96,1.01,12.44-0.26,17.05-3.89c7.04,3.67,14.88,4.94,22.79,4.1c4.26-0.45,8.46-1.2,12.67-1.99
	c0.16-0.03,0.32-0.06,0.48-0.08c2.61,0.09,5.21,0.06,7.8-0.1c4.24,2.87,9.71,3.77,15.59,2.95l5.23-0.72
	c1.64,0.46,3.37,0.64,5.19,0.45c14.98-1.5,30.03-2.17,45.08-1.93c3.04,2.36,6.83,3.8,11.08,3.84l39.57,0.35
	c5.22,0.05,9.96-2.24,13.32-5.84c5.72,4.06,14.42,5.51,20.95,5.85c4.16,0.22,8.82,0.14,13.2-0.73c1.83,0.09,3.73-0.08,5.64-0.54
	c5.93-1.42,11.9-2.67,17.9-3.74c12.06,4.78,24.93,3.95,37.92,2.78l3.52-0.32c1.31,0.33,2.67,0.55,4.1,0.63
	c6.29,0.35,12.63,0.19,18.92-0.44c39.89-0.93,79.78-1.86,119.67-2.8c0.78,0.17,1.56,0.31,2.37,0.42
	c16.35,2.19,32.69,1.71,49.04,0.67c9.33,4.22,19.65,3.83,29.82,2.91c5.3-0.48,10.44-0.3,15.73-0.01c0.06,0,0.1,0,0.16,0.01
	c0.08,0.02,0.14,0.04,0.24,0.06c1.44,0.35,2.93,0.54,4.38,0.88c2.9,0.68,5.75,1.55,8.56,2.53c5.94,2.07,12.86-0.08,17.57-4.38
	c40.87,12.02,84.9,9.67,127,6.9c0.91-0.06,1.81-0.18,2.7-0.36c2.94-0.2,5.87-0.36,8.81-0.48c12.29,1.64,24.52,2.38,36.89,1.77
	c2.02,0.79,4.21,1.29,6.56,1.44c22.71,1.41,45.43,3.1,68.16,4.19c22.75,1.09,44.92-0.64,65.89-10.11
	C1940.02,862.93,1942.83,849.41,1937.81,841.62z M953.43,714.88c-0.02-0.04-0.05-0.08-0.07-0.12c-1.12-1.9-1.1-2.03,0.07-0.4V714.88
	z M1025.89,669.75c1.42-1.52,3.23-2.55,5.46-3.08C1029.43,667.48,1027.58,668.52,1025.89,669.75z M1645.32,814.78
	c0-0.23,0-0.46-0.02-0.7c-0.18-3.55-0.34-7.1-0.51-10.65c0.31,1.06,0.6,2.11,0.91,3.17c0.91,3.12,2.57,5.82,4.73,7.98
	C1648.74,814.65,1647.03,814.71,1645.32,814.78z"/>
<path class="st3" d="M1156.86,984.28c-16.37,3.49-33.62,9.52-50.06,3.32c-1.45-0.55-2.99-0.48-4.42,0.01
	c-5.59-0.87-11.33-1.62-16.71-0.34c-3.52,0.84-6.95,2.15-10.38,3.25c-1.82,0.58-3.65,1.17-5.47,1.75l-3.65,1.17
	c-0.9,0.08-1.46,0.18-1.73,0.3c-7.22-2.36-15.1,7.04-8.34,13.05c7.59,6.75,17.9,0.93,26.19-1.72c4.28-1.37,7.8-2.75,12.32-2.29
	c3.85,0.38,7.69,0.93,11.53,1.44c18.12,5.25,37.06-0.68,54.99-4.51C1171.18,997.57,1166.92,982.14,1156.86,984.28z"/>
<path class="st3" d="M1120.08,956.32c-1.17,0-2.2,0.21-3.1,0.58c-1.28-1.75-3.3-2.99-6.07-3.09c-1.3-0.05-2.6-0.08-3.9-0.12
	c-0.64-1.36-1.67-2.51-3.08-3.16c-7.27-3.35-14.53-6.7-21.8-10.05c-4.47-2.06-8.78-4.02-13.33-5.35c-0.75-0.87-1.71-1.67-2.94-2.4
	c-4.75-2.78-10.66-0.88-15.6,0.29c-5.49,1.3-10.91,2.92-16.21,4.84c-10.56,3.81-20.69,8.69-30.24,14.58
	c-2.06,0.1-4.13,0.23-6.19,0.39c-2.67-0.95-5.34-1.9-8.01-2.85c-1.28-0.46-2.62-0.46-3.89-0.13c-1.58-3.46-4.49-5.92-8.59-5.31
	c-1.18,0.18-2.32,0.62-3.32,1.27c-0.09,0-0.18-0.02-0.27-0.02c-0.94,0-1.86,0.15-2.75,0.4c-3.02-5.09-10.96-3.91-13.89,1.13
	c-2.05-0.93-4.46-0.94-6.76,0.62c-4.4,3-8.72,6.1-12.97,9.31c-3.44,2.6-5.23,6.9-2.87,10.95c1.98,3.39,7.48,5.49,10.95,2.87
	c1.21-0.91,2.44-1.8,3.66-2.7c2.43,2.99,6.68,3.83,10.41,1.65c1.67,2.59,4.66,4.32,8.51,3.44c4.34-1,8.69-1.85,13.05-2.56
	c3.77,3.92,9.71,2.44,12.37-1.63c0.94-0.1,1.89-0.19,2.83-0.27c0.95,0.11,1.84,0.02,2.64-0.22c1.72-0.13,3.44-0.23,5.16-0.32
	c1.35,0.41,2.84,0.41,4.39-0.17c4.73-0.14,9.47-0.15,14.22,0.02c7.17,2.92,14.83,2.36,22.21,0.66c0.84,0.28,1.78,0.44,2.84,0.41
	c21.11-0.48,42.23-0.33,63.33,0.44c1.14,0.04,2.14-0.13,3.02-0.44c1.28,1.75,3.32,2.95,6.15,2.95
	C1130.37,972.32,1130.39,956.32,1120.08,956.32z"/>
<path class="st4" d="M363.77,785.06c1.19-1.1,1.94-2.73,1.62-4.71c-1.98-12.67-5.9-26.62-2.7-39.34c1-3.97-2.53-6.49-5.64-6.19
	c0.43-0.98,0.64-2.01,0.53-3.01c-2.42-21.32-4.07-42.7-4.97-64.14c6.41-3.13,4.94-14.41-3.75-15.19c-8.32-0.75-16.61-0.75-24.92,0
	c-4.3,0.39-8,3.4-8,8c0,1.15,0.31,2.33,0.84,3.42c-3.43,22.71-3.44,45.48-0.08,68.21c-1.74,1.34-2.72,3.41-2.94,5.58h-6.54
	c-0.62-1.79-1.83-3.35-3.63-4.24c0.21-0.7,0.33-1.41,0.33-2.1c0-4.79-3.7-7.44-8-8c-13.02-1.7-26.28-0.23-38.65,4.16
	c-1.79,0.63-3.1,1.68-3.99,2.95c-1.17-3.08-2.49-5.98-3.48-8.37c-3.34-8.11-7.36-15.81-12.18-23.09c-0.04-0.13-0.07-0.26-0.12-0.4
	c-1.06-2.9-2.16-5.78-3.29-8.65c1.82-2.53,2.4-6.15,0.52-8.75c-5.69-7.85-8.91-17.46-7.58-27.24c0.65-4.82-1.94-10.4-7.71-10.13
	c-8.89,0.42-17.78,0.84-26.67,1.26c-0.08,0-0.15,0.02-0.23,0.02c-2.74-3.66-8.19-5.29-11.77-1.21c-0.41-0.06-0.84-0.1-1.29-0.1
	c-8.68,0-10.05,11.38-4.09,14.94c-6.64,21.17-16.24,41.31-25.65,61.4c-16.71,1.46-33.46,2.02-50.23,1.67c-4.57-0.1-7.67,3.76-8,8
	c-1.25,16.17-1.13,32.36,0.37,48.51c0.52,5.6,4.67,8.56,10.13,7.71c26.75-4.12,53.89-5.37,80.91-4.03c0.91,1.05,2.17,1.93,3.8,2.52
	c17.66,6.4,35.64,11.79,53.9,16.15c3.47,0.83,6.25-0.49,7.98-2.65c4.7,0.61,9.41,0.64,14.09-0.22c1.69,3.43,5.51,4.78,9.28,4.13
	c2.96-0.51,5.92-0.9,8.89-1.23c1.13,2.45,3.42,4.37,6.88,4.51c7.95,0.34,18.66,1.13,26.5-2.54c1.67,0.23,3.45-0.07,5.13-0.94
	c0.08-0.04,0.15-0.07,0.23-0.11c0.87-0.29,1.75-0.52,2.66-0.66c-0.04,0-0.07,0.01-0.11,0.01c1.66-0.3,3.12-0.87,4.41-2.16
	c0.18-0.18,0.35-0.37,0.51-0.58c0.54-0.08,1.08-0.15,1.63-0.26c1.51-0.29,2.69-0.89,3.58-1.67c0.73,0.21,1.53,0.34,2.41,0.34
	c1.42,0,2.63-0.31,3.66-0.83c0.78,0.27,1.61,0.42,2.47,0.45c5.87,0.16,11.61-0.33,17.41-1.17c4.28-0.62,6.63-6.05,5.59-9.84
	C363.82,785.2,363.79,785.13,363.77,785.06z M182.88,693.74c-0.38-1.36-1.13-2.54-2.1-3.47c0.32-0.76,0.63-1.51,0.94-2.27
	c0.45,1.92,0.89,3.84,1.34,5.77C183,693.76,182.94,693.75,182.88,693.74z M263.51,763.62c-0.91-7.02-2.65-13.7-5.19-20.2
	c0.98,0.07,2.05-0.07,3.21-0.48c0.78-0.28,1.57-0.52,2.35-0.77c-0.34,8.98,0.64,17.89,1.59,26.82
	C264.88,767.18,264.23,765.39,263.51,763.62z M282.99,751.78c0.07-0.65,0.4-1.66,0.55-2.51c0.97-0.02,2.04-0.25,2.92-0.3
	c1.1-0.07,2.2-0.14,3.3-0.21c1.78-0.94,4.54-0.1,4.54,2.52v6.74c0,3.6-5.2,3.84-5.92,0.73c-0.89,0.06-1.79,0.12-2.68,0.18
	c-1.12,0.07-2.04,0.45-2.77,1c-0.11-1.29-0.17-2.59-0.17-3.89C282.79,754.62,282.85,753.19,282.99,751.78z M284.27,780.78
	c-0.6-0.14-1.18-0.22-1.73-0.24c-0.33-4.48-0.81-8.94-1.28-13.41c0.11-0.08,0.21-0.16,0.31-0.25c0.75,1.3,2.13,2.19,4.14,2.05
	c2.67-0.18,5.33-0.35,8-0.53c0.34,4.21,0.69,8.43,1.03,12.64C291.21,781.36,287.69,781.59,284.27,780.78z M302.68,755.79l-0.57-6.94
	c-0.01-0.15-0.04-0.3-0.06-0.44c0.69-0.17,1.33-0.42,1.89-0.75c0.2,0.02,0.42,0.04,0.63,0.04h7.9c-0.13,2.32-0.08,4.63,0.08,6.92
	c3.01,0.8,2.73,5.88-0.83,5.88h-6.64C302.38,760.51,301.58,757.56,302.68,755.79z M314.33,781.04c-0.36,0.33-0.61,0.73-0.82,1.15
	c-2.96-0.51-5.92-1.13-8.79-1.43l-1.06-13.02c1-0.07,2-0.13,3-0.2c1.04-0.07,6.33,0.14,5.18-0.89c0.78,0.7,1.61,1.09,2.45,1.25
	c0.65,4.03,1.29,8.07,1.58,12.14C315.28,780.24,314.76,780.57,314.33,781.04z M322.5,747.22c0.02-0.23,0.01-0.45,0-0.67
	c0.31-0.04,0.6-0.09,0.88-0.15c0.76,0.49,1.65,0.79,2.65,0.79h6.27c0.28,3.12,0.71,6.24,1.14,9.37c0.79,0.94,0.83,2.46,0.29,3.49
	c-0.81,1.54-2.68,1.72-4.1,1.08c0.62,0.28,0.2,0.15-0.11,0.05c-0.07,0-0.64-0.1-0.76-0.11c-0.74-0.05-1.47-0.04-2.21-0.04
	c-1.37,0-2.43-0.91-2.83-2.12c-0.25,0.07-0.5,0.14-0.73,0.24C322.51,755.19,322.24,751.23,322.5,747.22z M334.46,780.67
	c-2.33,0.06-4.11,0.95-5.35,2.29c-0.93-0.37-1.97-0.56-3.1-0.54c-0.04-1.17-0.13-2.34-0.23-3.5c-1.81-1.13-2.21-4.25-2.23-6.09
	c-0.01-0.97,0.46-1.78,1.16-2.32c-0.1-0.61-0.19-1.22-0.29-1.83c0.19,0.02,0.4,0.02,0.6,0.02c3.27-0.07,6.52-0.45,9.72-1.07
	C335.08,771.98,335.11,776.33,334.46,780.67z M351.8,746.38c-0.38,4.81-0.14,9.68,0.41,14.54c-2.79-0.98-5.61-1.57-8.6-1.74
	c-0.5-4.14-1.03-8.3-1.36-12.49C345.44,746.82,348.62,746.72,351.8,746.38z M354,779.68c-2.37,0.34-4.77,0.52-7.17,0.59
	c-1.71,1.21-4.82,0.43-4.9-2.34c-0.07-2.22-0.49-4.41-0.51-6.64c-0.03-2.9,3.31-3.6,5.02-2.17c0.54-0.52,1.32-0.83,2.07-0.83
	c0.95,0,1.86,0.1,2.7,0.56c0.84,0.46,1.36,1.25,1.62,2.13c0.28-0.03,0.56-0.07,0.84-0.15c0.5,2.93,1.03,5.85,1.52,8.74
	C354.79,779.59,354.4,779.62,354,779.68z"/>
<path class="st2" d="M235.02,601.98c1.34-1.59,2.23-3.41,2.17-5.4c0.6-0.86,0.99-1.81,0.99-2.91c0-1.23-0.54-2.69-1.46-3.54
	c-1.67-1.53-4.49-2-6.38-0.62c-0.15-0.01-0.29-0.03-0.44-0.03c-0.08,0-0.15,0.02-0.22,0.02c-0.18-2.64-0.79-5.11-2.4-6.79
	c-4.41-4.58-9.95-0.57-11.74,4.08c-0.02,0.04-0.03,0.07-0.05,0.11c-0.27,0.08-0.55,0.15-0.82,0.24c-0.16,0.05-0.3,0.12-0.45,0.18
	c-0.48-0.63-1.15-1.12-1.91-1.45c2.15-3.91,2.02-9.95-0.77-14.15c-0.13-0.2-0.27-0.37-0.41-0.54c0.11-0.26,0.21-0.52,0.3-0.78
	c1.21-3.72-0.22-7.75-3.78-9.48c-2.96-1.44-5.79-0.81-8.34,0.64c-0.56-1.74-1.42-3.37-2.8-4.86c-1.77-1.89-4.6-1.82-6.53-0.41
	c-2.27-1.36-5.49-0.69-6.92,1.67c-1.68-1.54-3.87-2.47-6.6-2.5c-1.98-0.02-3.35,0.91-4.12,2.22c-0.79,0.2-1.58,0.56-2.33,1.14
	c-5.12,3.97-4.03,9.72-1.07,14.35c-3.16,1.3-5.91,3.83-6.03,7.35c-0.13,3.71,2.68,5.51,5.88,6.37c0.14,0.88,0.39,1.76,0.84,2.6
	c1.25,2.36,3.9,4.13,6.62,4.07c3.2-0.07,5.15-1.93,6.36-4.39c0.23,0.36,0.51,0.71,0.87,1.04c3,2.8,5.48,6.33,10.18,5.26
	c3.76-0.86,5.52-4.34,6.39-7.79c0.39,0.24,0.78,0.47,1.17,0.67c1.27,0.67,2.45,1.07,3.53,1.26c-1.47,4.29-2.27,9.74,0.56,13.57
	c0.49,0.67,1.07,1.22,1.69,1.68c-0.68,4.01-0.27,8.02,4.68,8.93c2.09,0.38,3.85-0.12,5.3-1.14c0.35,0.42,0.74,0.83,1.21,1.2
	c3.48,2.77,7.81,2.25,11.64,0.52c3.77-1.71,7.38-4.62,6.59-9.22C236.17,603.82,235.68,602.8,235.02,601.98z"/>
<path class="st4" d="M646.05,772.82c-1.86-4.6-7.34-7.31-11.85-4.45c-0.51,0.32-0.94,0.73-1.3,1.19c-1.56,0.49-2.79,1.81-3.44,3.46
	c-0.04,0.1-0.08,0.21-0.12,0.31c-0.17-2.84-2.6-5.76-6.24-5.04c-0.48,0.1-0.96,0.19-1.44,0.29c-0.68-1.46-1.04-3.39-1.82-4.61
	c-0.21-0.32-0.43-0.63-0.66-0.92c0.32-0.65,0.5-1.42,0.47-2.32c-0.15-4.62-0.29-9.23-0.44-13.85c2.06-2.55,1.8-7.01-2.31-7.97
	c-9.38-2.19-18.66-2.44-28.18-1c-2.22,0.34-3.33,1.74-3.57,3.37c-2.4,0.13-4.75,1.73-4.85,4.81c-0.17,5-0.05,9.99,0.35,14.97
	c0.16,1.94,1.2,3.3,2.55,4.06c-1.08,3.43-0.63,7.86-0.52,10.93c0.22,6.42,10.22,6.45,10,0c-0.06-1.66,0.27-3.78,0.19-5.6
	c0.54-0.01,1.06-0.03,1.4-0.03c0.89,0.01,1.78-0.02,2.66-0.07c-1.01,1.16-1.78,2.52-2.17,4.17c-1.2,5.09,1.89,10.66,6.96,12.16
	c5.14,1.51,10.83-1.79,12.39-6.84c0.42-1.35,0.51-2.65,0.37-3.89c0.84,1.08,1.9,1.95,3.31,2.45c2.64,0.93,5.31,0.07,7.95-0.46
	c1.28-0.26,2.19-0.86,2.77-1.65c-0.58,3.37,0.05,6.82,2.83,9.28c3.61,3.19,9.25,3.07,12.68-0.37
	C647.13,782.1,647.64,776.77,646.05,772.82z M605.75,758.74c-0.37,0.03-0.75,0.09-1.15,0.21c-2.97,0.85-5.92,1.41-9.01,1.48
	c-1.56,0.04-3.31-0.26-5-0.31c-0.3-4.16-0.41-8.32-0.32-12.49c0.35,0.02,0.72,0,1.1-0.06c4.57-0.69,9.14-0.81,13.69-0.44
	c0.01,0.12,0.01,0.23,0.03,0.35c0.54,3.35,1.11,6.69,1.71,10.03C606.39,757.86,606.04,758.28,605.75,758.74z"/>
<path class="st4" d="M767.7,735.88c-1.14-0.21-2.16-0.07-3.03,0.32c-4.74-1.38-10.02-1.66-14.55-2.14
	c-9.98-1.07-20.01-1.21-30.03-0.6c-1.29,0.08-2.32,0.56-3.09,1.26c-0.33,0.13-0.66,0.29-0.96,0.47c-7.41-3.24-16.53-5.85-21.2-2.78
	c-1.9-0.23-3.91,0.72-5,2.38c-0.2-0.36-0.38-0.7-0.55-0.99c-1.5-2.66-4.59-2.89-6.82-1.68c-1.96-0.72-4.34-0.33-5.75,1.05
	c-1.16-0.32-2.5-0.16-3.68,0.4c-1.12-0.13-2.3,0.11-3.32,0.69c-1.6-2.43-5.24-2.26-7.41-0.37c-2.1-1.48-5.13-1.26-6.73,0.78
	c-0.36,0-0.71,0.04-1.05,0.12c-3.31-2.8-8.4-1.93-11.74,1.02c-8.47,7.47-4.6,18.43,2.48,24.97c-2.68,1.66-2.92,5.91-0.67,8.05
	c0.01,0.38,0.07,0.76,0.19,1.12c0.87,2.7,3.41,4.08,6.15,3.49c1.24-0.27,2.48-0.53,3.72-0.8c0.51-0.11,0.99-0.33,1.42-0.62
	c-0.44,1.83-0.36,3.77,0.22,5.56c-1.04,1.91-1.09,4.27,0.15,6.33c1.87,3.11,5.37,3.38,8.63,3.52c3.1,0.13,5.94-0.65,7.41-3.62
	c0.86-1.73,1.05-3.97,1.08-6.2c17.6-2.7,35.57-1.93,53.09-4.9c-1.04,2.33-1.37,5.03-0.85,7.61c1.25,6.24,8.34,10.41,14.08,6.78
	c1.34-0.84,2.34-2.05,3-3.43c1.75-0.8,3.16-2.56,2.98-4.53c-0.02-0.26-0.06-0.52-0.09-0.78c0.58,0.09,1.21,0.08,1.89-0.06
	c1.24-0.26,2.5-0.49,3.76-0.73c0.06,1.08,0.2,2.13,0.49,3.09c1.08,3.52,4.62,5.65,8.23,4.93c1.14-0.23,2.09-0.66,2.92-1.21
	c0.47,0.23,0.96,0.43,1.51,0.57c4.03,1.06,6.74-1.22,8.28-4.4c1.27-0.9,2.13-2.29,1.96-3.91c-0.11-1.05-0.22-2.09-0.32-3.14
	c1.1-0.66,1.94-1.78,2.28-3c0.74-2.65,0.31-5.54-0.43-8.22c2.88-2.72,4.61-7.24,4.99-11.1C782.23,742.1,775.9,737.4,767.7,735.88z
	 M748.92,761.91c0.32-0.17,0.63-0.36,0.93-0.56c0.29,0.19,0.6,0.34,0.91,0.5C750.15,761.87,749.53,761.89,748.92,761.91z"/>
<rect x="386.25" y="914.04" class="st5" width="492" height="150"/>
<rect x="1295.25" y="916.04" class="st5" width="519" height="136"/>
<rect x="524.25" y="415.04" class="st5" width="354" height="120"/>
<rect x="143.25" y="431.04" class="st5" width="209" height="96"/>
<path d="M1921.84,869.34c-15.82,1.75-31.65,2.75-47.49,3.23c-1.2-50.72,1.7-101.42,5.01-152.02c3.42-52.35,7.26-104.73,7.3-157.22
	c0.02-29.31-1.17-58.62-4.24-87.78c-0.03-0.3-0.12-0.55-0.24-0.78c13.13-2.72,26.39-4.74,39.73-6.02c1.08-0.1,2-0.85,2-2
	c0-1-0.92-2.1-2-2c-14.39,1.38-28.69,3.58-42.83,6.6c-0.16-0.29-0.42-0.56-0.81-0.75c-10.6-5.36-21.19-10.71-31.79-16.07
	c-0.87-0.44-1.7-0.21-2.28,0.3c-10.18-0.77-20.36-1.53-30.53-2.3c-0.25-0.26-0.56-0.46-0.91-0.6c-17.5-6.88-35.01-13.76-52.51-20.64
	c-2.47-0.97-4.93-1.94-7.4-2.91c-0.59-0.23-1.18-0.46-1.77-0.67c1.89,0.14,3.79,0.29,5.68,0.42c34.2,2.49,68.47,4.53,102.59,8
	c19.8,2.01,39.51,4.71,59.03,8.61c5.03,1.01,7.18-6.7,2.13-7.71c-33.81-6.77-68.17-9.87-102.51-12.43
	c-35.11-2.62-70.22-5.3-105.35-7.65c-20.48-1.37-41-2.2-61.51-0.9c-2.13,0.14-3.36,1.6-3.72,3.24c-0.33,0.31-0.62,0.69-0.86,1.18
	c-2.8,5.9-5.58,11.8-8.37,17.71c-0.23-0.15-0.47-0.28-0.74-0.39c-31.66-13.23-61.79-29.96-89.88-49.66
	c-1.04-0.73-2.07-0.86-2.97-0.59c-0.52-0.32-1.12-0.54-1.84-0.6c-39.27-3.22-78.75-2.52-117.88,2.09h-22.34
	c-1.13-0.9-2.69-1.24-4.32-0.37c-13.11,7-26.53,13.38-40.26,19.05c-0.39,0.16-0.72,0.36-1.02,0.59c-12.56,0-25.12,0-37.68,0
	c-0.95,0-1.72,0.27-2.32,0.72c-0.89-0.26-1.9-0.2-2.94,0.37c-7,3.85-13.73,8.11-20.21,12.79c-28.81-0.26-57.53,1.71-86.05,5.81
	c-1.34,0.19-2.16,0.88-2.58,1.76c-10.99,8.24-21.98,16.48-32.96,24.72c-0.37,0.28-0.67,0.59-0.91,0.92c-0.07,0.01-0.14,0-0.21,0.02
	c-12.11,2.14-23.99,5.17-35.64,9.08c-1.09-0.2-2.26,0.1-3.25,1.2c-35.61,39.43-69.44,80.42-101.46,122.81
	c-1.76,0.99-3.03,3.2-2,5.58c7.34,16.98,14.44,34.05,21.32,51.22c-5.35,1.22-10.54,3-15.44,5.58c-1.27-0.05-2.57,0.48-3.46,1.83
	c-5,7.61-9.45,15.52-13.35,23.74c-27.42,1.24-53.81,9.47-81.02,12.39c-0.19,0.02-0.36,0.07-0.54,0.11
	c-1.14-0.26-2.41-0.06-3.53,0.87c-7.71,6.43-15.65,12.55-23.83,18.36c-2.24,1.59-2.12,4.34-0.87,6.07c0.5,8.07,2.1,15.86,4.93,23.42
	c-24.25,14.22-48.02,29.26-71.26,45.1c-0.16-0.02-0.31-0.05-0.49-0.05c-82.49-0.28-164.97,1.31-247.38,4.75
	c-0.11,0-0.2,0.03-0.3,0.04c-0.65-0.18-1.39-0.17-2.23,0.13c-4.69,1.71-9.37,3.41-14.06,5.12c-0.51-0.29-1.11-0.49-1.81-0.53
	c-17.39-1.05-34.78-2.04-52.18-2.96c-8.53-0.45-17.07-0.89-25.61-1.32c-7.53-0.37-15.1-0.85-22.29,1.74
	c-35.61,0.3-71.22,0.6-106.82,0.91c0-0.03,0.01-0.05,0.01-0.07c-0.09-19.15-0.18-38.3-0.27-57.44c-0.01-3.14-3-4.36-5.32-3.67
	c-1.43-0.63-2.87-1.03-4.34-1.17c0.24-24.94,0.48-49.88,0.73-74.83c0.01-1.43-0.6-2.45-1.49-3.09c-0.3-1.69-1.56-3.15-3.79-3.09
	c-7.39,0.18-14.78,0.37-22.18,0.55c-5.28,0.13-11.91-0.78-17.02,1.18c-2.32-0.64-5.21,0.57-5.18,3.68
	c0.28,26.23,0.57,52.47,0.85,78.7c-0.38-0.02-0.78-0.02-1.19,0.04c-1.11,0.15-2.23,0.3-3.34,0.45v-6.42c0-0.44-0.08-0.83-0.18-1.19
	c0.34-2.2-0.93-4.74-3.8-4.82c-14.81-0.43-29.62-0.5-44.44-0.22c-0.59,0.01-1.11,0.14-1.56,0.33
	c-10.51-24.11-25.67-47.9-22.71-75.27c0.18-1.64-0.53-2.74-1.58-3.33c-0.62-1.02-1.69-1.76-3.24-1.78
	c-18.64-0.23-37.28-0.45-55.91-0.68c-1.63-0.02-2.74,0.77-3.34,1.86c-0.71,0.86-1.09,2.01-0.79,3.39c5.6,25.77-8.91,49.67-19,72.29
	c-0.14,0.32-0.28,0.64-0.42,0.96c-0.07,0-0.12-0.01-0.19-0.01c-18.36,1.21-36.75,1.67-55.16,1.37c-1.99-0.03-3.2,1.15-3.66,2.61
	c-1.61,0.33-2.91,1.56-2.69,3.72c2.05,20.1,2.65,40.29,1.81,60.48c-0.02,0.58,0.07,1.08,0.23,1.52
	c-28.68,3.32-57.37,6.64-86.05,9.97c-5.05,0.59-5.11,8.59,0,8c31.64-3.66,63.28-7.33,94.92-10.99c4.34,22.89,8.07,45.9,11.14,68.99
	c0.82,6.19,1.6,12.39,2.33,18.6c-6.09-0.69-12.2-0.72-18.51,0.67c-11.42,2.51-21.53,7.11-33.44,4.68c-9.8-2-19.57-5.63-29.58-2.62
	c-7.54,2.27-18.73,11.85-26.26,6.21c-4.12-3.09-8.11,3.85-4.04,6.91c6.39,4.79,13.81,2.7,20.52-0.25c3.95-1.74,7.76-3.9,11.9-5.16
	c5.14-1.56,10.32-0.85,15.46,0.29c9.18,2.04,17.71,4.43,27.19,2.86c10.45-1.72,20.2-6.58,30.97-6.26
	c11.37,0.33,22.71,3.94,33.92,5.7c10.5,1.65,21.06,2.85,31.65,3.75c22.53,1.91,45.15,2.49,67.73,3.26
	c22.75,0.78,45.78,2.69,68.54,2.09c10.13-0.27,19.48-2.73,29.11-5.65c11.07-3.35,21.28-4.62,32.78-2.68
	c10.69,1.81,21.14,4.23,31.98,5.06c10.51,0.8,21.07,1.17,31.6,1.67c10.47,0.5,21.03,0.67,31.24-2.06
	c9.94-2.66,19.53-7.76,30.06-7.37c5.98,0.23,11.88,1.96,17.76,2.96c5.69,0.97,11.43,1.7,17.18,2.23
	c12.41,1.16,24.88,1.44,37.34,1.62c25.58,0.36,51.2,0.29,76.75,1.66c5.15,0.28,5.13-7.73,0-8c-5.1-0.27-10.19-0.48-15.29-0.65
	c-0.23-1.01-0.81-1.91-1.81-2.37c-0.62-0.29-1.22-0.61-1.78-0.99c-0.11-0.07-0.26-0.2-0.34-0.27c-0.24-0.21-0.48-0.42-0.7-0.65
	c-0.22-0.22-0.42-0.45-0.62-0.69c-0.03-0.03-0.05-0.05-0.06-0.07c-0.02-0.04-0.05-0.09-0.1-0.16c-0.4-0.64-0.76-1.27-1.06-1.96
	c-0.59-1.33-2.18-2-3.66-1.95c-12.42-7.75-24.67-15.79-36.75-24.07c22.38-1.9,44.83-0.54,67.24,0.41c11.89,0.51,23.8,0.88,35.7,0.52
	c11.57-0.35,23.15-2.18,34.73-1.84c12.34,0.36,24.3,3.97,36.46,5.72c11.81,1.7,23.73,2.35,35.66,2.13
	c24.47-0.44,48.09-5.36,72.27-8.27c13.69-1.65,26.77-0.48,40.29,1.92c12.34,2.19,24.7,4.53,37.27,3.89c0.85,0.75,2.05,1.11,3.5,0.65
	c19.19-6.1,38.83,0.18,57.97,3.25c19.82,3.18,39.04,0.64,58.86-0.96c20.49-1.65,40.41,1.37,60.8,2.66
	c10.25,0.65,20.33,0.2,30.54-0.82c10.32-1.03,20.46-1.8,30.76-0.04c10.9,1.87,21.4,4.58,32.56,3.49
	c10.62-1.04,20.78-4.22,30.87-7.54c0.26,0.15,0.55,0.27,0.88,0.37c6.21,1.83,12.15,4.21,17.89,7.19c2.01,1.04,3.92,0.28,5.04-1.09
	c0.57,1.85,2.24,3.18,4.55,2.21c10.08-4.22,20.77-3.65,31.45-3.1c11.56,0.59,23.14,1,34.71,1.2c23.15,0.38,46.32-0.07,69.44-1.35
	c22.63-1.25,45.68-5.09,68.34-2.81c11.16,1.12,22.12,3.12,33.36,3.37c11.18,0.25,22.35-0.48,33.53-0.75
	c12.88-0.32,25.56,0.17,38.17,3c10.09,2.27,20.51,4.55,30.04-0.82c0.33-0.19,0.6-0.4,0.84-0.63c18.29,3.81,36.79,7.46,55.54,7.6
	c9.92,0.07,19.75-1.19,29.63-1.86c10.21-0.69,20.44-0.4,30.65,0.03c31,1.31,62.01,3.13,93.04,3.91c0.5,1.84,3.34,1.87,3.84,0.09
	c8.44,0.19,16.87,0.3,25.31,0.29c22.99-0.02,45.94-1.19,68.8-3.71C1926.9,876.78,1926.96,868.78,1921.84,869.34z M575.4,800.24
	c0.03,0,0.06,0,0.09,0c0.13,0.11,0.28,0.2,0.43,0.28c-2.82,16.12-5.92,32.19-9.28,48.21c-2.93-2.08-5.84-4.18-8.75-6.3
	c2.3-14.27,4.59-28.54,6.89-42.81C568.32,799.82,571.86,800.02,575.4,800.24z M478.45,797.24c0.18-0.1,0.35-0.2,0.51-0.32
	c6.99-2.04,14.38-1.18,21.6-0.82c8.21,0.41,16.41,0.84,24.62,1.28c11.87,0.63,23.73,1.31,35.6,2c-2.17,13.47-4.33,26.94-6.5,40.4
	c-6.58-4.83-13.11-9.73-19.56-14.73c-0.11-0.08-0.22-0.16-0.33-0.23c-0.46-0.73-1.2-1.31-2.3-1.57
	c-18.27-4.34-36.92-6.64-55.67-6.87c0.75-6.06,1.5-12.12,2.25-18.18C478.72,797.86,478.63,797.53,478.45,797.24z M474.79,797.7
	c-0.05,0.16-0.09,0.33-0.11,0.5c-0.75,6.05-1.5,12.11-2.25,18.16c-2.18,0.01-4.36,0.04-6.55,0.1c-0.52,0.02-0.98,0.13-1.39,0.29
	c-0.13,0.01-0.25,0.01-0.39,0.04c-30.01,6.02-59.71,13.46-89.01,22.3c-0.04-0.01-0.06-0.02-0.1-0.03c-12.46-2-24.76-4.69-36.95-7.84
	c0.53-10.78,0.65-21.58,0.38-32.37C383.88,798.47,429.34,798.09,474.79,797.7z M326.07,655.95l9.64-0.24
	c5.19-0.13,10.38-0.26,15.58-0.39c-0.04,4.4-0.08,8.8-0.13,13.19c-11.08-1.07-22.22-1.39-33.34-0.97c-0.04-3.7-0.08-7.41-0.12-11.11
	C319.99,655.45,323.66,656.01,326.07,655.95z M318.09,693.13c-0.08-7.2-0.16-14.39-0.23-21.59c11.1-0.42,22.21-0.1,33.26,0.97
	c-0.06,6.61-0.13,13.22-0.19,19.83C339.98,692.6,329.04,692.87,318.09,693.13z M350.89,696.34l-0.2,20.29
	c-10.78,0.29-21.56,0.59-32.34,0.88c-0.07-6.79-0.15-13.58-0.22-20.37C329.05,696.87,339.97,696.6,350.89,696.34z M297.97,727.33
	v6.53c0,1.95,1.15,3.16,2.58,3.63c0.82,2.02,2.67,2.74,4.78,2.45c2.04-0.27,4.08-0.55,6.12-0.82c1.16-0.16,2.08-1.09,2.57-2.21
	c2.17,0.26,4.54-1,4.51-3.82c-0.04-3.86-0.08-7.72-0.13-11.58c10.75-0.29,21.5-0.58,32.26-0.88l-0.09,9.4
	c-0.01,1.18,0.41,2.07,1.05,2.71c0.02,0.25,0.07,0.49,0.14,0.73c0.69,2.13,2.74,3.31,4.92,2.79c0.23-0.05,1.13-0.07,0.4-0.09
	c0.28,0.01,0.57,0,0.85,0c0.04,0.01,0.47,0.06,0.66,0.1c0.17,0.04,1.14,0.43,0.43,0.11c0.39,0.18,0.82,0.3,1.24,0.37l0.25,53.77
	c0,0.05,0.01,0.09,0.01,0.14l-25.62,0.22c-0.58,0-1.08,0.12-1.52,0.3c-0.75,0.08-1.5,0.37-2.2,0.95c-3.78,3.14-8.08,5.74-12.63,7.61
	c-0.65,0.26-1.21,0.64-1.68,1.09c-16.94,1.17-33.84-0.71-50.75-1.83c4.13-24.4,1.62-48.82-7.02-71.83
	C272.05,726.96,285.01,727.01,297.97,727.33z M324.61,806.16c0.09-0.19,0.18-0.39,0.24-0.59c3.38-1.67,6.55-3.66,9.58-5.94
	c0.23,10.19,0.12,20.38-0.36,30.56c-3.91-1.04-7.82-2.12-11.71-3.25c0.39-6.43,1.26-12.81,2.62-19.11
	C325.14,807.16,324.96,806.59,324.61,806.16z M320.8,808.51c-1.15,5.71-1.93,11.49-2.33,17.29c-13.81-4.09-27.49-8.62-41.11-13.29
	c-5.66-1.94-11.32-3.9-16.98-5.85C280.51,807.73,300.63,810.49,320.8,808.51z M176.98,646.53c16.02,0.19,32.04,0.39,48.06,0.58
	c-0.38,5.87,0.01,11.61,0.97,17.24c-16.35-0.1-32.7-0.2-49.06-0.29C177.68,658.3,177.77,652.46,176.98,646.53z M176.34,668.06
	c16.81,0.1,33.63,0.2,50.44,0.3c1.43,6.6,3.59,13.05,6.11,19.4c-16.2-0.39-32.42-0.52-48.62-0.36c-4.5,0.05-8.99,0.12-13.49,0.21
	C173.17,681.21,175.15,674.69,176.34,668.06z M169.21,691.6c0.12,0.02,0.25,0.03,0.4,0.03c17.13-0.35,34.27-0.39,51.4-0.12
	c4.51,0.07,9.02,0.17,13.53,0.29c2.94,6.96,6.24,13.81,9.44,20.6c-22.22,0.58-44.45,0.79-66.68,0.58
	c-5.87-0.05-11.73-0.15-17.6-0.25c0.69-1.48,1.39-2.95,2.07-4.4C164.36,702.84,166.92,697.27,169.21,691.6z M157.87,716.7
	c23.25,0.45,46.51,0.48,69.76,0.07c6.07-0.11,12.13-0.25,18.2-0.42c0.2,0.42,0.4,0.85,0.59,1.27c11.6,25.18,16.66,51.99,11.94,79.54
	c-0.09,0.5-0.07,0.96,0,1.4c-7.13-0.33-14.26-0.44-21.39-0.01c-19.33-6.71-38.66-13.45-58-20.16c-1.27-0.01-2.55-0.07-3.82-0.15
	c-0.57,0.31-1.03,0.78-1.36,1.35c-7.7-0.1-15.39,0.08-23.06,0.53c0.01-0.59-0.1-1.2-0.37-1.83
	C141.27,757.93,149.07,736.04,157.87,716.7z M97.02,785.78c0.04-0.21,0.08-0.41,0.09-0.63c0.82-19.62,0.26-39.24-1.65-58.79
	c16.73,0.23,33.46-0.17,50.16-1.2c-6.84,17.93-10.35,37.19-2.87,55.53c-2.57,0.21-5.14,0.45-7.71,0.72
	c-0.07,0.01-0.13,0.03-0.2,0.04c-0.18,0-0.36-0.01-0.56,0.01C121.86,782.91,109.44,784.34,97.02,785.78z M136,885.58
	c-2.77-0.49-5.53-1-8.28-1.56c-4.04-0.81-8.02-1.63-11.98-2.24c-2.74-23.27-6.1-46.46-10.1-69.54c-1.1-6.36-2.26-12.71-3.46-19.05
	c10.7-1.24,21.4-2.48,32.1-3.72c0.08-0.01,0.14-0.03,0.22-0.05c0.18,0,0.35,0.02,0.54,0c12.8-1.37,25.63-1.97,38.5-1.81
	c-8.18,26.19-17.63,52-28.37,77.25C142.2,871.81,139.14,878.71,136,885.58z M140.07,886.24c11.46-25.17,21.71-50.89,30.64-77.07
	c2.44-7.15,4.77-14.34,7.01-21.55c14.87,28.03,29.36,56.26,43.44,84.7c3.44,6.94,6.83,13.89,10.22,20.85
	C200.83,892.31,170.15,891.17,140.07,886.24z M281.64,894.74c-6.89-0.24-13.78-0.47-20.67-0.71c-8.34-0.29-16.71-0.51-25.08-0.74
	c-13.83-28.45-28.05-56.72-42.66-84.78c-3.56-6.83-7.15-13.64-10.75-20.44c14.25,4.95,28.49,9.91,42.74,14.86
	c3.43,0.75,6.67,2.11,9.77,3.77c0.29-0.02,0.59-0.05,0.88-0.07c13.12,4.55,26.24,9.09,39.37,13.6
	c29.94,10.27,60.19,19.9,91.38,25.48c-22.17,11.44-43.94,23.66-65.23,36.65c-6.55,4-13.05,8.07-19.51,12.2
	C281.77,894.62,281.71,894.68,281.64,894.74z M355.62,885.92c-10.17,0.32-19.62,3.91-29.3,6.61c-10.48,2.93-20.88,3.01-31.68,2.65
	c-1.99-0.07-3.97-0.14-5.96-0.2c21.5-13.6,43.47-26.44,65.9-38.45c6.08-3.25,12.19-6.44,18.33-9.57c0.29,0.17,0.61,0.3,0.95,0.38
	c-4.42,12.88-8.85,25.76-13.27,38.65C358.94,885.9,357.28,885.86,355.62,885.92z M451.71,893.82c-10.44,0.83-21.02-0.17-31.46-0.69
	c-11.2-0.56-22.45-0.86-33.5-2.9c-7.31-1.34-14.63-3.12-22.04-3.92c4.56-13.29,9.12-26.57,13.69-39.86
	c26.87-8.06,54.08-14.95,81.55-20.65c1.34,17.49,2.69,34.98,4.03,52.47c0.33,4.27,0.66,8.53,0.98,12.8
	C460.66,892.38,456.3,893.45,451.71,893.82z M576.33,891.28c-22.27-0.29-44.73-0.28-66.67-4.55c-9.69-1.88-18.5-3.27-28.23-0.79
	c-4.28,1.09-8.42,2.53-12.57,3.89c-1.34-17.42-2.67-34.83-4.01-52.25c-0.32-4.2-0.64-8.39-0.97-12.59c0.39-0.08,0.78-0.16,1.16-0.24
	c0.15,0.17,0.34,0.33,0.59,0.45c19.14,9.65,38.4,19.06,57.77,28.22c19.45,9.19,39.02,18.14,58.7,26.82
	c8.77,3.87,17.56,7.67,26.38,11.44C597.77,891.51,587.05,891.42,576.33,891.28z M612.92,889.28c-18.21-7.77-36.33-15.74-54.35-23.93
	c-19.58-8.91-39.05-18.07-58.4-27.48c-9.13-4.44-18.22-8.95-27.29-13.5c18.96-0.04,37.78,2.08,56.27,6.41
	C556.1,851.65,584.03,871.19,612.92,889.28z M575.37,851.59c-1.18,0.13-2.08,0.68-2.71,1.42c-0.83-0.58-1.65-1.17-2.47-1.75
	c3.57-16.92,6.84-33.9,9.81-50.93c0-0.03,0-0.05,0.01-0.08c2.91-1.06,5.81-2.12,8.72-3.18c-0.47,17.8,0.03,35.61,1.52,53.35
	C585.28,850.66,580.33,851.03,575.37,851.59z M1634.81,445.29c-21.99,46.61-43.69,93.35-65.12,140.22
	c1.49-17.59,2.43-35.23,2.8-52.88c0.45-21.65,0.06-43.32-1.17-64.94c-0.66-11.62-1.58-23.22-2.72-34.81
	c16.11,3.92,32.23,7.84,48.34,11.76c4.75,1.15,9.49,2.31,14.24,3.46c2.5,0.61,3.57-3.25,1.06-3.86l-49.48-12.03
	c-4.75-1.15-9.49-2.31-14.24-3.46c-0.04-0.01-0.07-0.01-0.11-0.02c-4.97-9.38-10.28-18.57-15.92-27.56
	C1578.46,418.5,1606.01,433.22,1634.81,445.29z M1542.75,394.94c0.23,0.02,0.43,0,0.64-0.01c0.05,0.04,0.09,0.07,0.14,0.11
	c0.17,0.12,0.35,0.24,0.52,0.36c7.42,11.29,14.31,22.93,20.66,34.86c-0.18,0.3-0.29,0.63-0.25,0.99
	c2.17,21.55,3.52,43.17,4.01,64.82c0.49,21.65,0.15,43.32-1.05,64.94c-0.65,11.84-1.57,23.67-2.72,35.48
	c-5.05,11.07-10.08,22.15-15.1,33.23c-6.98-14.58-14-29.13-21.09-43.65c-7.57-15.51-15.21-30.98-22.92-46.42
	c-7.71-15.44-15.48-30.85-23.32-46.22c-7.88-15.45-15.82-30.86-23.82-46.24c-7.97-15.31-16.01-30.58-24.11-45.82
	c-0.9-1.69-1.8-3.38-2.7-5.08C1468.55,392.37,1505.73,391.9,1542.75,394.94z M1426.47,448.62c0.64-16.8,1.19-33.61,1.65-50.42
	c8.04,15.08,16.01,30.2,23.92,45.35c7.99,15.3,15.91,30.63,23.76,46c7.85,15.37,15.64,30.77,23.37,46.2
	c7.76,15.51,15.45,31.05,23.08,46.62c7.59,15.5,15.11,31.03,22.57,46.59c0.88,1.84,1.76,3.68,2.64,5.53
	c-0.03,0.09-0.06,0.19-0.08,0.28c-1.44-2.34-2.87-4.69-4.31-7.03c-0.71-1.14-1.7-1.7-2.73-1.84c-0.64-0.69-1.54-1.18-2.73-1.23
	c-18.94-0.94-37.04-8.02-56.06-7.95c-0.75-0.38-1.66-0.53-2.7-0.29c-16.23,3.84-32.24,8.45-48.03,13.83
	c-0.42-0.14-0.88-0.23-1.41-0.22c-4.46,0.11-8.92,0.23-13.38,0.35c2.28-29.74,4.29-59.5,6.01-89.28
	C1423.81,510.29,1425.29,479.46,1426.47,448.62z M1403.18,397.02h20.64c0.11,0.01,0.23,0.02,0.34,0.02
	c-0.84,30.8-1.98,61.58-3.42,92.36c-1.44,30.83-3.19,61.65-5.23,92.45c-1.08,16.22-2.25,32.44-3.49,48.65
	c-14.54,0.42-29.07,0.96-43.6,1.56c5.25-29.5,10.18-59.06,14.78-88.67c4.86-31.34,9.35-62.74,13.48-94.19
	C1398.96,431.82,1401.12,414.43,1403.18,397.02z M1357.86,420.38c0.55-1.56,1.1-3.11,1.65-4.67c0.1-0.07,0.21-0.13,0.3-0.2
	c0.09-0.03,0.17-0.06,0.26-0.09c13.3-5.5,26.34-11.56,39.09-18.24c-3.68,31.12-7.71,62.19-12.11,93.21
	c-4.43,31.23-9.22,62.4-14.38,93.51c-2.67,16.13-5.46,32.23-8.32,48.32c-18.41,0.78-36.82,1.7-55.22,2.77
	c-2.13,0.12-3.37,1.59-3.73,3.23c-0.13,0.11-0.27,0.2-0.39,0.33c-4.83,4.89-10.04,9.32-15.68,13.24
	c3.56-14.65,7.25-29.26,11.08-43.84c4.16-15.83,8.48-31.63,12.96-47.37c4.46-15.67,9.07-31.29,13.84-46.87
	c4.79-15.65,9.75-31.26,14.85-46.81S1352.44,435.83,1357.86,420.38z M1320.26,447.58c0.5-10.43,0.87-20.86,1.15-31.29
	c11.22,0,22.45,0,33.67,0c-5.12,14.54-10.11,29.12-14.96,43.76c-5.15,15.54-10.14,31.13-14.97,46.78
	c-4.75,15.37-9.35,30.79-13.79,46.25c1.78-14.73,3.35-29.49,4.68-44.27C1317.87,488.43,1319.28,468.02,1320.26,447.58z
	 M1298.54,428.57c6.06-4.33,12.33-8.31,18.85-11.92c-0.51,19.22-1.39,38.43-2.66,57.62c-1.35,20.41-3.13,40.8-5.34,61.13
	c-1.25,11.48-2.63,22.95-4.15,34.39c-0.09,0.68,0.34,1.29,0.91,1.66c-2.73,9.79-5.41,19.6-8.02,29.42
	c0.2-20.09,0.28-40.19,0.2-60.28c-0.09-24.26-0.38-48.51-0.88-72.76c-0.26-12.6-0.58-25.2-0.95-37.8
	C1297.41,429.79,1298.09,429.26,1298.54,428.57z M1292.51,430.17c0.68,23.18,1.17,46.37,1.48,69.56
	c0.32,24.25,0.43,48.51,0.35,72.76c-0.05,13.71-0.16,27.41-0.34,41.12c-0.01,0.55,0.18,0.98,0.46,1.29
	c-2.91,11.21-5.74,22.44-8.49,33.7c-0.27,1.1-0.54,2.2-0.8,3.31c-5.69,0.3-11.34,0.93-16.97,1.89c-0.95,0.16-1.65,0.57-2.12,1.11
	c-1.23,0.13-2.35,0.88-3.15,1.96c-1.79,2.41-3.58,4.83-5.37,7.24c-13.73-2.77-27.32-6.12-40.76-9.98
	c-3.71-28.47-4.3-57.22-4.55-85.89c-0.25-28.85-0.43-57.71-0.64-86.56c-0.11-15.39-0.23-30.77-0.34-46.16
	C1238.18,431.71,1265.33,429.98,1292.51,430.17z M1189.9,667.93c-1.3-4.99-2.81-10.01-3.53-15.13
	c22.98,8.06,46.47,14.52,70.36,19.29c0.2,0.04,0.39,0.06,0.58,0.07c-2.04,16.75-4.01,33.5-5.88,50.27
	c-1.96,17.56-3.84,35.12-5.62,52.7c-0.76,7.52-1.49,15.05-2.22,22.58c-7.67-21.92-15.57-43.76-23.69-65.52
	c-0.46-1.22-1.3-1.99-2.27-2.38c-0.55-1.23-1.7-2.17-3.47-2.15c-2.89,0.03-5.78,0.04-8.67,0.06
	C1200.29,707.79,1195.09,687.86,1189.9,667.93z M1201.36,727.75c-10.66,0.07-21.32,0.12-31.97,0.12
	c4.38-19.41,8.41-38.91,12.04-58.48c0.68-3.65,1.32-7.3,1.97-10.95c0.57,2.57,1.24,5.11,1.9,7.66c1.4,5.37,2.8,10.75,4.2,16.12
	c2.8,10.75,5.6,21.49,8.4,32.24C1199.05,718.9,1200.2,723.32,1201.36,727.75z M1175.39,461.87c0.28-0.12,0.55-0.28,0.83-0.49
	c10.35-7.77,20.71-15.53,31.06-23.3c0.2,27.32,0.4,54.63,0.61,81.95c0.21,28.71,0.04,57.46,1.12,86.15
	c0.59,15.62,1.67,31.24,3.64,46.75c-9.61-2.85-19.14-5.97-28.57-9.37c-0.95-0.34-1.78-0.31-2.49-0.05l-6.15-0.02
	c0.89-22.95,1.45-45.92,1.64-68.89c0.2-24.6,0-49.2-0.6-73.79c-0.32-12.91-0.76-25.82-1.3-38.73
	C1175.26,462,1175.33,461.94,1175.39,461.87z M1136.63,509.81c0.7-12.62,1.36-25.25,1.98-37.88c0-0.03,0-0.06,0-0.09
	c10.69-3.53,21.57-6.32,32.65-8.37c0.96,23.23,1.57,46.48,1.81,69.73c0.25,24.6,0.09,49.2-0.46,73.79
	c-0.28,12.16-0.67,24.31-1.14,36.47l-43.59-0.17c1.67-21.98,3.24-43.98,4.69-65.98C1134.03,554.82,1135.39,532.32,1136.63,509.81z
	 M1037.02,593.31c30.76-40.77,63.29-80.18,97.42-118.18c-1.07,21.45-2.23,42.89-3.52,64.33c-1.35,22.5-2.81,45-4.4,67.48
	c-0.85,12.11-1.75,24.23-2.67,36.34l-22.49-0.09c-13.95-0.05-29.08-1.21-43.41,0.69c-0.05-0.2-0.09-0.41-0.18-0.62
	C1051.08,626.51,1044.15,609.87,1037.02,593.31z M1024.57,680.7c3.59-7.59,7.67-14.9,12.2-21.97c0.14-0.06,0.28-0.1,0.41-0.18
	c9.66-5.47,20.56-6.97,31.51-7.33c12.21-0.41,24.46-0.06,36.67-0.02l75.23,0.3c-3.61,20.71-7.63,41.34-12.08,61.88
	c-1.05,4.84-2.13,9.67-3.23,14.5c-52.28-0.04-104.55-1.02-156.79-2.95c4.24-13.91,9.18-27.6,14.82-41.01
	c0.22-0.52,0.08-1.1-0.24-1.57C1023.66,682.03,1024.19,681.51,1024.57,680.7z M1018.82,684.38c-5.49,13.22-10.32,26.7-14.47,40.4
	c-1.27-0.05-2.53-0.09-3.8-0.14c-17.09-0.66-34.22-1.84-51.33-1.89c-3.04-8.77-6.08-17.55-9.13-26.32
	C966.47,693.19,992.19,685.41,1018.82,684.38z M936.16,697.26c2.95,8.51,5.9,17.02,8.85,25.53c-1.18,0.01-2.37,0.01-3.55,0.03
	c-0.52,0.01-0.98,0.12-1.39,0.28c-0.77-0.11-1.62,0.01-2.48,0.5c-5.92,3.29-11.79,6.64-17.66,10.03c-2.21-6.37-3.57-12.9-3.97-19.69
	c-0.02-0.34-0.08-0.65-0.16-0.95C922.75,707.95,929.54,702.71,936.16,697.26z M764.17,856.91c-12.07-1.23-23.77-4.39-35.78-5.99
	c-11.9-1.59-23.57-0.11-35.46,0.63c-11.88,0.74-23.79,0.61-35.68,0.21c-21.01-0.71-42.03-2.23-63.03-1.51
	c-1.52-18.18-2.01-36.43-1.46-54.66c0.14-0.05,0.28-0.1,0.42-0.15c0.2,0.02,0.39,0.04,0.61,0.03c57.22-2.39,114.48-3.86,171.75-4.46
	c8.13,18.09,15.99,36.3,23.56,54.64c1.68,4.07,3.33,8.15,4.99,12.23C784.11,858.17,774.11,857.92,764.17,856.91z M775.76,804.2
	c-1.94-4.42-3.91-8.83-5.88-13.24c23.42-0.23,46.83-0.32,70.25-0.24c-11.8,17.87-23.6,35.74-35.4,53.61
	c-2.44,3.7-4.89,7.4-7.33,11.1C790.42,838.26,783.21,821.18,775.76,804.2z M837.23,853.7c-12.08,1.85-24.25,3.26-36.46,3.91
	c-0.01,0-0.02,0-0.03,0c10.98-16.62,21.95-33.24,32.93-49.86c2.67-4.05,5.35-8.1,8.02-12.15c6.33,14.22,12.13,28.68,17.37,43.34
	c1.28,3.59,2.52,7.19,3.74,10.81C854.23,850.78,845.74,852.4,837.23,853.7z M872.14,848.9c-1.76,0.1-3.52,0.25-5.28,0.41
	c-5.12-15.24-10.82-30.28-17.09-45.09c-1.01-2.4-2.05-4.78-3.09-7.17c12.57,15.11,25.33,30.07,38.3,44.84
	c2.34,2.67,4.71,5.32,7.06,7.97C885.46,849.01,878.84,848.52,872.14,848.9z M944.33,855.84c-0.55-0.3-1.22-0.47-2.03-0.41
	c-14.93,1.03-29.48-2.36-44.14-4.67c-14.01-15.73-27.8-31.64-41.35-47.76c-2.51-2.99-5.01-6-7.51-9.01
	c13.02,7.41,26,14.9,38.91,22.5c14.7,8.65,29.34,17.41,43.9,26.29c6.31,3.85,12.6,7.74,18.89,11.64
	C948.78,854.77,946.55,855.22,944.33,855.84z M957.53,853.74c-14.09-8.76-28.24-17.41-42.46-25.95
	c-14.62-8.78-29.32-17.44-44.08-25.99c-7.78-4.5-15.58-8.97-23.39-13.4c29.64-20.12,60.13-38.94,91.39-56.43
	c6.12,16.02,12.18,32.07,18.18,48.13c6.16,16.5,12.27,33.02,18.3,49.57c3.22,8.82,6.42,17.64,9.6,26.47
	C975.91,854.51,966.71,853.24,957.53,853.74z M971.4,806.96c-6.09-16.53-12.25-33.03-18.47-49.51c-3.35-8.89-6.73-17.77-10.12-26.64
	c16.94-0.26,33.88,0.88,50.79,1.56c17.87,0.72,35.75,1.33,53.63,1.84c9.26,0.26,18.52,0.49,27.79,0.69
	c-10.53,16.05-21.3,31.94-32.33,47.65c-11.63,16.56-23.55,32.93-35.73,49.09c-5.94,7.87-11.95,15.68-18.01,23.46
	C983.15,839.02,977.31,822.98,971.4,806.96z M1066.08,858.09c-20.63,1.28-40.89,4.88-61.54,1.59c-4.12-0.66-8.26-1.44-12.41-2.23
	c11.47-14.7,22.72-29.57,33.73-44.61c12.05-16.46,23.81-33.13,35.29-50c5.81-8.53,11.52-17.11,17.18-25.74
	c-2.14,30.94-2.18,62.03-0.05,92.97c0.62,9.04,1.43,18.06,2.41,27.06c0.03,0.28,0.11,0.55,0.22,0.8
	C1075.99,857.78,1071.05,857.79,1066.08,858.09z M1084.47,858.09c0.17-0.29,0.27-0.61,0.23-0.95c-3.49-31.92-4.7-64.09-3.62-96.18
	c0.29-8.65,0.76-17.3,1.39-25.93c23.29,0.46,46.58,0.75,69.88,0.84c-7.64,16.33-15.38,32.62-23.21,48.86
	c-7.86,16.31-15.82,32.58-23.88,48.81c-4.16,8.38-8.36,16.75-12.57,25.1C1089.96,858.43,1087.22,858.23,1084.47,858.09z
	 M1114.02,860.52c-5.68-0.47-11.35-1.04-17.03-1.53c7.48-14.86,14.9-29.76,22.22-44.7c7.97-16.26,15.85-32.57,23.63-48.93
	c3.27-6.87,6.5-13.76,9.74-20.64c-3.57,13.11-7.38,26.16-11.43,39.13c-5.16,16.48-10.7,32.85-16.63,49.07
	c-3.37,9.21-6.86,18.36-10.47,27.48C1114.03,860.44,1114.03,860.48,1114.02,860.52z M1185.49,860.53
	c-19.56-3.41-38.94,1.62-58.59,0.83c-2.93-0.12-5.84-0.3-8.76-0.51c6.27-15.86,12.18-31.86,17.71-47.99
	c5.6-16.34,10.81-32.81,15.62-49.4c2.66-9.16,5.19-18.36,7.62-27.59c17.86,0.04,35.73-0.03,53.59-0.21c0.04,0.1,0.07,0.2,0.11,0.29
	c-0.69,16.26-1.77,32.5-3.27,48.71c-1.61,17.39-3.68,34.74-6.22,52.01c-1.29,8.78-2.72,17.53-4.25,26.27
	C1194.55,862.26,1190.06,861.33,1185.49,860.53z M1249.8,856.85c-0.36-0.11-0.69-0.15-1.02-0.17c-0.84-0.64-1.96-0.91-3.3-0.47
	c-9.62,3.17-19.42,6.52-29.56,7.52c-4.4,0.44-8.68,0.25-12.93-0.25c2.82-16.18,5.25-32.42,7.27-48.72
	c2.17-17.51,3.86-35.08,5.08-52.68c0.38-5.5,0.71-11.01,1-16.52c13.86,37.53,27.06,75.3,39.6,113.3
	C1253.91,858.14,1251.87,857.46,1249.8,856.85z M1257.52,838.35c-3.62-10.75-7.28-21.49-11.01-32.21c0.18-0.31,0.3-0.67,0.34-1.05
	c1.69-17.67,3.46-35.33,5.33-52.98c1.86-17.57,3.81-35.12,5.86-52.67c1.11-9.49,2.24-18.98,3.4-28.47c0.84-0.32,1.6-0.92,2.19-1.7
	l3.98-5.37c-2.36,23.77-4.34,47.58-5.9,71.41c-1.69,25.94-2.91,51.91-3.64,77.9C1257.84,821.59,1257.66,829.97,1257.52,838.35z
	 M1294.78,737.56c-0.53,27.09-1.96,54.15-1.92,81.25c0.02,14.21,0.46,28.43,1.63,42.59c-7.32,0.06-14.57,0.87-21.47,3.76
	c-0.75,0.32-1.33,0.78-1.75,1.33c-0.31-0.64-0.85-1.22-1.67-1.64c-1.66-0.86-3.35-1.68-5.05-2.46c0.34-0.74,0.43-1.64,0.09-2.66
	c-1.08-3.28-2.17-6.56-3.26-9.85c0.26-23.65,0.89-47.29,1.95-70.91c1.16-25.97,2.79-51.92,4.9-77.83c1.08-13.3,2.3-26.58,3.64-39.86
	c5.51-0.87,11.03-1.37,16.61-1.53c0.58-0.02,1.08-0.14,1.53-0.34c0.52,0.18,1.09,0.22,1.68,0.09
	C1294.98,685.37,1295.29,711.52,1294.78,737.56z M1306.6,861.77c-2.7-0.14-5.4-0.27-8.11-0.33c-2.15-26.1-1.79-52.33-1.03-78.49
	c0.8-27.13,2.02-54.28,1.29-81.42c-0.4-14.82-1.43-29.61-3.36-44.31c4.78-3.46,9.31-7.24,13.54-11.35
	c-1.22,5.53-1.25,11.27-0.94,16.92c0.4,7.17,1.01,14.33,1.5,21.49c1.01,14.76,1.93,29.52,2.76,44.29
	c1.66,29.37,2.97,58.76,3.94,88.16c0.5,15.18,0.9,30.36,1.21,45.55C1313.81,862.12,1310.2,861.96,1306.6,861.77z M1481,859.02
	c-22.33-2.52-44.96,1.13-67.27,2.43c-22.79,1.33-45.62,1.86-68.45,1.57c-7.96-0.1-15.91-0.31-23.87-0.61
	c-0.58-28.03-1.47-56.05-2.68-84.06c-1.27-29.39-2.88-58.76-4.84-88.12c-0.54-8.08-1.13-16.15-1.69-24.22
	c-0.53-7.61-0.88-15.38,1.56-22.72c0.07-0.2,0.09-0.39,0.1-0.57c38.37-2.18,76.76-3.75,115.18-4.69c0.8,0.48,1.81,0.63,2.99,0.22
	c12.68-4.35,25.51-8.18,38.48-11.53c2.83,29.79,5.66,59.57,8.48,89.36c3.01,31.69,6.02,63.38,9.02,95.06
	c1.56,16.43,3.12,32.86,4.68,49.29C1488.82,859.97,1484.92,859.46,1481,859.02z M1580.24,863.45c-10.67-1.95-21.53-2.28-32.35-2.06
	c-11.18,0.22-22.35,0.97-33.53,0.83c-5.93-0.08-11.77-0.61-17.61-1.28c-2.9-30.53-5.8-61.05-8.69-91.58
	c-3.01-31.69-6.02-63.38-9.02-95.06c-1.54-16.18-3.07-32.36-4.61-48.55c1.4-0.35,2.79-0.7,4.19-1.04c0.16,0.01,0.3,0.04,0.47,0.03
	c19.16-0.71,37.42,6.38,56.41,7.77c5.68,14.81,10.63,29.89,15.12,45.11c4.61,15.64,8.75,31.4,12.76,47.2
	c4.02,15.81,7.9,31.65,12.01,47.44c4.1,15.75,8.42,31.44,13.3,46.97c4.85,15.42,10.27,30.67,16.54,45.57
	c0.23,0.54,0.46,1.07,0.69,1.61C1597.66,868.56,1588.38,864.93,1580.24,863.45z M1613.88,862.58c-2.04-0.43-3.6,0.6-4.4,2.03
	c-5.77-13.57-10.8-27.45-15.34-41.47c-4.98-15.41-9.37-31-13.5-46.65c-4.14-15.7-8.03-31.46-12-47.2
	c-3.97-15.73-8.02-31.45-12.51-47.05c-3.57-12.41-7.41-24.74-11.69-36.93c34.07,56.07,65.38,113.8,93.7,172.97
	c8.22,17.17,16.18,34.47,23.9,51.87C1645.85,869.13,1629.84,865.92,1613.88,862.58z M1682.13,870.2c-3.86,0.26-7.7,0.34-11.54,0.29
	c-0.03-0.49-0.13-1.01-0.36-1.53c-28.68-64.84-60.79-128.15-96.25-189.55c-7.61-13.18-15.38-26.26-23.29-39.26
	c1.45,0.33,2.98-0.16,3.8-1.97c31.77-70.26,64.17-140.24,97.19-209.92c3.86,57.34,7.71,114.68,11.59,172.02
	c3.95,58.39,8.08,116.81,15.2,174.92c3.86,31.52,8.61,62.93,14.64,94.11C1689.45,869.64,1685.79,869.95,1682.13,870.2z
	 M1697.1,869.01L1697.1,869.01c-11.02-56.78-17.7-114.29-22.65-171.89c-5.02-58.43-8.55-116.98-12.49-175.49
	c-2.2-32.6-4.39-65.2-6.59-97.79c29.35-1.47,58.79,1,88.09,3.29c-8.12,57.09-14.95,114.36-21.03,171.7
	c-6.15,58.05-11.55,116.18-16.78,174.32C1702.79,805.09,1699.95,837.05,1697.1,869.01z M1716.62,697.39
	c5.46-57.82,11.33-115.6,18.21-173.26c3.72-31.2,7.75-62.36,12.15-93.47c1.57,0.3,3.09,0.91,4.58,1.49c2.16,0.85,4.32,1.7,6.48,2.55
	l12.95,5.09c1.21,0.48,2.42,0.95,3.64,1.43c-0.41,0.22-0.74,0.62-0.86,1.24c-11.07,55.91-21.64,111.91-31.69,168.01
	c-10.05,56.1-19.59,112.29-28.62,168.56c-3.43,21.38-6.78,42.78-10.06,64.18C1707.72,794.59,1712.03,745.98,1716.62,697.39z
	 M1740.75,869.18c-9.91-0.44-19.83-0.99-29.75-0.88c-2.48,0.03-4.96,0.14-7.43,0.28c8.18-54.32,16.82-108.57,25.96-162.74
	c9.48-56.2,19.47-112.31,29.97-168.32c5.88-31.37,11.93-62.71,18.13-94.01c0.09-0.43,0.04-0.82-0.1-1.16
	c6.46,2.54,12.91,5.08,19.37,7.61c3.5,1.38,7,2.75,10.5,4.13c0,0.15,0.03,0.29,0.07,0.43c-0.22-0.01-0.42,0.02-0.62,0.09
	c-1.78,0.13-2.21,2.26-1.29,3.35c-7.1,53.33-10.45,107.05-13.18,160.75c-2.78,54.64-5.38,109.28-8.06,163.93
	c-1.44,29.41-2.04,59.13-7.41,88.15C1764.85,870.26,1752.8,869.72,1740.75,869.18z M1824.13,787.26
	c-0.78,28.42-0.92,56.87-0.44,85.3c-7.27-0.18-14.54-0.41-21.81-0.7c-6.99-0.28-13.97-0.59-20.96-0.89
	c4.64-25.58,5.59-51.63,6.86-77.55c1.34-27.36,2.69-54.73,4.03-82.09c2.67-54.41,4.85-108.88,8.76-163.22
	c2.19-30.43,5.02-60.83,9.1-91.07c0.04-0.29,0.02-0.56-0.04-0.81c11.05,0.83,22.11,1.66,33.16,2.5c0,0.07-0.01,0.14,0,0.22
	c5.22,54.76-1.19,109.63-7.1,164.06C1829.76,677.6,1825.64,732.34,1824.13,787.26z M1827.71,872.65
	c-0.89-52.73,0.36-105.5,3.81-158.12c1.79-27.25,4.2-54.45,7.1-81.6c2.92-27.32,6.13-54.62,8.15-82.03
	c2.24-30.53,2.94-61.23,0.04-91.74c9.59,4.85,19.18,9.69,28.77,14.54c0.09,1.12,1.03,2.23,2.45,1.95
	c-6.17,52.14-12.33,104.29-18.5,156.43l-18.44,155.96c-3.34,28.24-6.68,56.47-10.02,84.71
	C1829.95,872.72,1828.83,872.68,1827.71,872.65z M1870.35,872.68c-11.76,0.29-23.52,0.31-35.3,0.13
	c6.03-51.03,12.07-102.05,18.1-153.08c6.16-52.06,12.31-104.13,18.47-156.19c2.79-23.59,5.58-47.18,8.37-70.77
	c3.74,46.45,3.03,93.16,0.76,139.69c-2.57,52.49-7.07,104.86-9.33,157.36C1870.23,817.42,1869.69,845.06,1870.35,872.68z"/>
<path d="M1148.78,964.68c-27.88-10.11-54.56-23.62-81.46-36.03c-0.02-0.01-0.04-0.01-0.07-0.02c-0.84-1.33-2.34-2.3-4.28-2.01
	c-21.91,3.25-43.26,9.15-63.72,17.6c-0.32-0.11-0.65-0.2-1.03-0.23c-8.75-0.84-17.3-2.57-25.72-5.06c-1.31-0.39-2.41-0.12-3.24,0.49
	c-0.41-0.07-0.84-0.09-1.3-0.03c-8.35,1.16-16.47,3.12-24.42,5.91c-1.33,0.47-2.12,1.4-2.49,2.45c0,0.01-0.01,0.01-0.02,0.02
	c-4.82,6.66-9.63,13.32-14.45,19.99c-0.82,1.13-0.9,2.25-0.53,3.2c-1.46,2.4-0.4,6.3,3.22,6.18c71.96-2.38,143.98-3.19,215.98-2.41
	c1.77,0.02,2.92-0.93,3.48-2.17C1151.98,971.83,1152.82,966.15,1148.78,964.68z M966.84,968.06c-10.43,0.27-20.86,0.55-31.29,0.88
	c3.99-5.52,7.98-11.04,11.98-16.56c7.14-2.38,14.42-4.11,21.88-5.18L966.84,968.06z M970.86,967.96c0.84-6.83,1.68-13.66,2.52-20.49
	c7.15,1.95,14.4,3.31,21.75,4.17c-0.43,0.5-0.66,1.19-0.41,1.81l5.63,13.88C990.52,967.51,980.69,967.72,970.86,967.96z
	 M1004.51,967.02c-1.9-4.69-3.81-9.39-5.71-14.08c0.22-0.05,0.45-0.12,0.69-0.23c19.94-8.41,40.73-14.37,62.08-17.82
	c3.81,6.09,7.62,12.19,11.43,18.28c2.1,3.36,4.2,6.72,6.3,10.07c0.63,1,1.24,2.16,1.93,3.26c-25.55,0.06-51.1,0.3-76.65,0.75
	C1004.55,967.17,1004.54,967.09,1004.51,967.02z M1086.77,966.49c-0.15-0.04-0.29-0.07-0.45-0.09c-0.84-0.08-1.87-2.45-2.27-3.08
	c-0.96-1.54-1.92-3.08-2.89-4.62c-1.92-3.08-3.85-6.16-5.77-9.23c-2.43-3.89-4.86-7.78-7.29-11.67
	c21.05,9.8,42.02,20.07,63.55,28.81C1116.69,966.49,1101.73,966.47,1086.77,966.49z"/>
<path d="M1172.64,992.93l-4.95-11.33c-0.54-1.24-1.87-1.88-3.22-1.94c-0.74-0.4-1.62-0.61-2.63-0.46
	c-11.23,1.59-22.45,3.18-33.68,4.77c-0.22,0.03-0.41,0.09-0.6,0.15c-10.56-3.03-21.27-5.48-32.11-7.33
	c-0.83-0.77-2.03-1.07-3.48-0.46c-11.92,5.03-23.85,10.06-35.77,15.09c-0.7,0.3-1.25,0.73-1.67,1.23c-0.94,0.05-1.84,0.39-2.45,1.14
	c-2.9,3.55-6.2,6.66-10.01,9.21c-3.26,2.19-1.67,6.77,1.18,7.49c0.63,0.64,1.49,1.09,2.61,1.17c11.05,0.74,22.13,1.49,33.2,0.93
	c5.07-0.25,10.13-1.12,15.22-1.16c5.69-0.04,9.81,2.74,15.17,3.91c7.69,1.68,16.02-0.71,23.68-3.09c0.21-0.03,0.41-0.1,0.61-0.19
	c1.51-0.47,3-0.94,4.45-1.37c10.55-3.14,20.93-6.81,31.14-10.91c0.77-0.31,1.33-0.78,1.76-1.33c0.03-0.02,0.07-0.03,0.11-0.05
	C1173.25,997.21,1173.51,994.92,1172.64,992.93z M1090.38,1003.79c-3.68,0.19-7.41,0.6-11.3,0.79c-8.57,0.43-17.15,0.08-25.72-0.45
	c1.56-1.47,3.03-3.03,4.39-4.7c0.04-0.04,0.06-0.09,0.1-0.14c0.16-0.05,0.32-0.1,0.49-0.17c11.21-4.73,22.42-9.45,33.62-14.18
	C1091.97,991.26,1091.46,997.56,1090.38,1003.79z M1131.19,1004.54c-8.05,2.52-16.5,4.66-24.41,1.45c-4.19-1.7-8.26-2.24-12.36-2.3
	c1.03-6.19,1.54-12.46,1.52-18.74c11.35,2.05,22.56,4.73,33.6,8.07c0.84,0.25,1.59,0.23,2.25,0.03L1131.19,1004.54z
	 M1137.88,1002.43c-0.86,0.26-1.74,0.54-2.62,0.82c0.19-3.51,0.37-7.03,0.56-10.54c2.25,2.83,4.66,5.53,7.19,8.1
	C1141.3,1001.36,1139.59,1001.91,1137.88,1002.43z M1147.27,999.4c-2.9-2.83-5.62-5.82-8.17-8.97c7.46-1.06,14.93-2.11,22.39-3.17
	c0.88,2,1.75,4.01,2.63,6.01C1158.55,995.45,1152.93,997.49,1147.27,999.4z"/>
<circle class="st6" cx="603.25" cy="778.04" r="10.5"/>
<circle class="st6" cx="638.25" cy="778.04" r="10.5"/>
<circle class="st6" cx="664.25" cy="778.04" r="10.5"/>
<circle class="st6" cx="736.25" cy="778.04" r="10.5"/>
<circle class="st6" cx="762.25" cy="778.04" r="10.5"/>
<path d="M631.29,766.41c-1.31-1.2-3.67-1.63-5.16-0.47v-26.72c0-1.81-0.99-2.96-2.27-3.5c-0.62-0.55-1.44-0.92-2.48-0.96
	c-11.49-0.44-22.99-0.52-34.48-0.24c-1.77,0.04-2.91,1.02-3.47,2.27c-0.08,0.08-0.16,0.13-0.24,0.22c-4.35,4.84-4,12.74-4.56,18.86
	c-0.75,8.22-1.08,16.45-1.07,24.7c0,2.82,2.4,4.09,4.57,3.82c0.71,1.02,1.86,1.71,3.23,1.71h6.13c2.09,0,4.1-1.84,4-4
	c-0.1-2.17-1.76-4-4-4h-5.91c0.04-5.44,0.21-10.88,0.58-16.32c0.2-2.96,0.45-5.92,0.76-8.87c0.3-2.86-0.06-8.03,1.93-10.25
	c0.05-0.06,0.09-0.12,0.13-0.18c9.72-0.2,19.43-0.14,29.14,0.17v27.2c0,1.71,0.89,2.84,2.07,3.42c0.23,0.23,0.49,0.43,0.8,0.59
	c3.35,1.7,7.81,1.27,10.29-1.79C632.6,770.45,632.99,767.98,631.29,766.41z"/>
<path d="M654.28,768.98c-0.02,0.03-0.02,0.06-0.04,0.09l-0.47,0.61c-0.37,0.37-0.82,0.63-1.32,0.77c-0.25,0.03-0.49,0.07-0.74,0.1
	c-0.4,0.21-0.87,0.35-1.42,0.35c-1.38,0-2.26-0.77-2.65-1.76c-0.4-0.38-0.68-0.87-0.81-1.4c-1.21,0.4-2.22,1.3-2.53,2.64
	c-0.46,2.01,0.61,4.45,2.79,4.92l3.82,0.82c2.04,0.44,4.42-0.61,4.92-2.79C656.19,771.74,655.6,769.92,654.28,768.98z"/>
<path d="M625.95,777.4c-4.12-0.3-8.21-0.19-12.3,0.32c-2.14,0.27-4,1.65-4,4c0,1.95,1.84,4.27,4,4c4.1-0.51,8.18-0.62,12.3-0.32
	C631.09,785.78,631.07,777.77,625.95,777.4z"/>
<path d="M723.23,772.86c-15.6,0.06-31.19,0.68-46.75,1.86c-5.1,0.39-5.14,8.39,0,8c15.56-1.18,31.14-1.8,46.75-1.86
	C728.38,780.84,728.39,772.84,723.23,772.86z"/>
<path d="M784.99,740.45c-3.95-6.86-10.85-10.33-18.25-11.46c-0.12,0.01-0.23,0.03-0.36,0.03c-6.06-0.07-12.06-0.89-18.09-1.41
	c-4.17,0.04-8.34,0.08-12.5,0.12l-27.52,0.26c-13.72,0.13-27.44,0.26-41.16,0.39c-0.41,0.21-0.9,0.33-1.49,0.3
	c-9.42-0.59-18.71,0.03-27.64,3.24c-4.27,2.88-7.29,6.99-7.63,13.18c-0.47,8.57,3.65,17.72,12.13,20.56
	c1.74,0.58,3.11-0.03,3.96-1.11c0.44-0.01,0.87-0.02,1.31-0.03c0.47-0.4,1.08-0.65,1.87-0.65c0.61,0,1.11,0.16,1.52,0.41
	c0.17-0.02,0.35-0.05,0.52-0.07c0.36-0.01,0.7,0.06,1.02,0.21c14.15-0.3,28.3-0.48,42.46-0.52c17.27-0.04,34.54,0.11,51.81,0.46
	c8.85,0.18,17.7,0.42,26.54,0.7c0.27,0.26,0.57,0.5,0.9,0.69c0.01,0.28,0.01,0.57,0.03,0.85c0.04,1,0.08,2,0.12,3.01
	c0.03,0.86-0.18,2.11,0.1,2.9c0,0.01,0,0.03,0,0.04c-3.32-0.31-6.44,3.91-3.35,6.72c2.27,2.06,5.27,2.37,7.92,0.76
	c2.93-1.79,3.48-5.25,3.41-8.41c-0.06-2.88,0.22-6.42-0.72-9.2C787.94,756.94,789.19,747.75,784.99,740.45z M772.38,760.66
	c-0.05,0.12-0.1,0.24-0.13,0.36c-15.9-0.5-31.81-0.84-47.72-1c-17.27-0.18-34.54-0.16-51.81,0.05c-8.52,0.11-17.03,0.27-25.55,0.47
	c-0.1-0.33-0.27-0.64-0.47-0.94c-1.57,0.05-3.13-0.61-4.22-1.84c-0.21-0.23-0.38-0.48-0.55-0.73c-0.85-0.72-1.57-1.59-2.05-2.6
	c-0.26-0.56-0.39-1.15-0.36-1.73c-1.02-2.44-1.37-5.26-1.17-7.6c0.49-5.79,5.47-7.98,10.34-9.49c0.19,0.17,0.4,0.31,0.62,0.43
	c0.2-0.05,0.42-0.08,0.65-0.09c1.84-0.08,3.6,0.15,5.32,0.54c16.35-0.15,32.71-0.31,49.06-0.46c8.52-0.08,17.04-0.16,25.56-0.24
	c4.59-0.04,9.17-0.09,13.76-0.13c2.93-0.03,7.5-0.9,10.81-0.19c0.16,0.21,0.36,0.4,0.57,0.56c2.34-0.35,4.8-0.11,7.13,0.52
	c5.11,0.13,10.18,1.38,13.87,5.22c2.49,2.58,3.76,6.11,3.35,9.33C779.8,755.75,777.7,760.16,772.38,760.66z"/>
<path d="M607.93,746.38c-0.06-0.85-0.57-1.73-1.47-1.93c-5.17-1.15-10.43-1.31-15.67-0.54c-1.07,0.16-1.66,1.51-1.4,2.46
	c0.02,0.08,0.05,0.14,0.08,0.22c-0.65,0.33-1.03,1.02-1.13,1.79c-0.31,2.57-0.48,5.15-0.47,7.74c0.01,2.27-0.35,5.73,2.02,7.01
	c1.17,0.63,2.41,0.45,3.66,0.27c1.37-0.2,2.73-0.4,4.1-0.6c2.63-0.38,5.26-0.77,7.88-1.15c0.64-0.09,1.27-0.79,1.4-1.4
	C607.94,755.69,608.29,751.03,607.93,746.38z M594.41,759.26c-0.58,0.08-1.16,0.17-1.73,0.25c-0.05,0.01-0.47,0.06-0.47,0.06
	c-0.07,0.01-0.13,0.01-0.2,0.01c-0.01-0.13-0.03-0.37-0.03-0.37c-0.02-0.26-0.03-0.52-0.04-0.78c-0.04-1.09-0.06-2.17-0.05-3.26
	c0.03-2.28,0.19-4.55,0.46-6.81c0.03-0.23-0.01-0.45-0.09-0.66c3.9-0.52,7.89-0.4,11.76,0.32c0.14,3.33-0.08,6.65-0.69,9.92
	c-1.87,0.27-3.75,0.55-5.62,0.82C596.61,758.94,595.51,759.1,594.41,759.26z"/>
<path d="M296.21,748.3c0.06-0.19,0.1-0.39,0.09-0.58c-0.05-1.18-0.88-1.88-2-2c-4.03-0.42-8.08-0.2-12.05,0.57
	c-1.03,0.2-1.71,1.49-1.4,2.46c0.06,0.17,0.13,0.32,0.22,0.47c-0.09,0.23-0.16,0.48-0.19,0.74c-0.43,3.5-0.17,7.08,0.7,10.5
	c0.15,0.6,0.63,1.08,1.2,1.32c0.36,0.46,0.92,0.75,1.59,0.82c3.52,0.39,7.06,0.21,10.54-0.44c0.96-0.18,1.61-1.32,1.44-2.26
	c0.44-0.36,0.74-0.89,0.74-1.52v-8.43C297.08,749.3,296.73,748.67,296.21,748.3z M292.61,758.5c-0.09,0.01-0.18,0.03-0.27,0.04
	c-0.02,0-0.03,0-0.06,0.01c-0.19,0.02-0.38,0.05-0.58,0.07c-0.8,0.09-1.61,0.14-2.41,0.17c-1.34,0.05-2.68-0.01-4.02-0.13
	c-0.13-0.56-0.24-1.12-0.33-1.68c-0.01-0.06-0.04-0.26-0.05-0.33c-0.02-0.18-0.05-0.37-0.06-0.55c-0.04-0.41-0.08-0.82-0.1-1.23
	c-0.1-1.64-0.04-3.29,0.16-4.92c0-0.03,0-0.06,0-0.08c0.15-0.02,0.35-0.05,0.37-0.06c0.2-0.03,0.41-0.05,0.61-0.07
	c0.92-0.1,1.85-0.17,2.77-0.21c1.49-0.06,2.98-0.01,4.47,0.11c-0.02,0.1-0.03,0.2-0.03,0.31v8.43c0,0.02,0,0.03,0.01,0.05
	C292.93,758.44,292.77,758.48,292.61,758.5z"/>
<path d="M315.38,748.49c0.06-0.19,0.1-0.39,0.09-0.58c-0.05-1.18-0.88-1.88-2-2c-4.03-0.42-8.08-0.2-12.05,0.57
	c-1.03,0.2-1.71,1.49-1.4,2.46c0.06,0.17,0.13,0.32,0.22,0.47c-0.09,0.23-0.16,0.48-0.19,0.74c-0.43,3.5-0.17,7.08,0.7,10.5
	c0.15,0.6,0.63,1.08,1.2,1.32c0.36,0.46,0.92,0.75,1.59,0.82c3.52,0.39,7.06,0.21,10.54-0.44c0.96-0.18,1.61-1.32,1.44-2.26
	c0.44-0.36,0.74-0.89,0.74-1.52v-8.43C316.25,749.49,315.9,748.87,315.38,748.49z M311.77,758.7c-0.09,0.01-0.18,0.03-0.27,0.04
	c-0.02,0-0.03,0-0.06,0.01c-0.19,0.02-0.38,0.05-0.58,0.07c-0.8,0.09-1.61,0.14-2.41,0.17c-1.34,0.05-2.68-0.01-4.02-0.13
	c-0.13-0.56-0.24-1.12-0.33-1.68c-0.01-0.06-0.04-0.26-0.05-0.33c-0.02-0.18-0.05-0.37-0.06-0.55c-0.04-0.41-0.08-0.82-0.1-1.23
	c-0.1-1.64-0.04-3.29,0.16-4.92c0-0.03,0-0.06,0-0.08c0.15-0.02,0.35-0.05,0.37-0.06c0.2-0.03,0.41-0.05,0.61-0.07
	c0.92-0.1,1.85-0.17,2.77-0.21c1.49-0.06,2.98-0.01,4.47,0.11c-0.02,0.1-0.03,0.2-0.03,0.31v8.43c0,0.02,0,0.03,0.01,0.05
	C312.09,758.64,311.93,758.67,311.77,758.7z"/>
<path d="M335.38,748.5c0.06-0.19,0.1-0.39,0.09-0.58c-0.05-1.18-0.88-1.88-2-2c-4.03-0.42-8.08-0.2-12.05,0.57
	c-1.03,0.2-1.71,1.49-1.4,2.46c0.06,0.17,0.13,0.32,0.22,0.47c-0.09,0.23-0.16,0.48-0.19,0.74c-0.43,3.5-0.17,7.08,0.7,10.5
	c0.15,0.6,0.63,1.08,1.2,1.32c0.36,0.46,0.92,0.75,1.59,0.82c3.52,0.39,7.06,0.21,10.54-0.44c0.96-0.18,1.61-1.32,1.44-2.26
	c0.44-0.36,0.74-0.89,0.74-1.52v-8.43C336.25,749.5,335.9,748.88,335.38,748.5z M331.77,758.71c-0.09,0.01-0.18,0.03-0.27,0.04
	c-0.02,0-0.03,0-0.06,0.01c-0.19,0.02-0.38,0.05-0.58,0.07c-0.8,0.09-1.61,0.14-2.41,0.17c-1.34,0.05-2.68-0.01-4.02-0.13
	c-0.13-0.56-0.24-1.12-0.33-1.68c-0.01-0.06-0.04-0.26-0.05-0.33c-0.02-0.18-0.05-0.37-0.06-0.55c-0.04-0.41-0.08-0.82-0.1-1.23
	c-0.1-1.64-0.04-3.29,0.16-4.92c0-0.03,0-0.06,0-0.08c0.15-0.02,0.35-0.05,0.37-0.06c0.2-0.03,0.41-0.05,0.61-0.07
	c0.92-0.1,1.85-0.17,2.77-0.21c1.49-0.06,2.98-0.01,4.47,0.11c-0.02,0.1-0.03,0.2-0.03,0.31v8.43c0,0.02,0,0.03,0.01,0.05
	C332.09,758.65,331.93,758.68,331.77,758.71z"/>
<path d="M354.38,748.5c0.06-0.19,0.1-0.39,0.09-0.58c-0.05-1.18-0.88-1.88-2-2c-4.03-0.42-8.08-0.2-12.05,0.57
	c-1.03,0.2-1.71,1.49-1.4,2.46c0.06,0.17,0.13,0.32,0.22,0.47c-0.09,0.23-0.16,0.48-0.19,0.74c-0.43,3.5-0.17,7.08,0.7,10.5
	c0.15,0.6,0.63,1.08,1.2,1.32c0.36,0.46,0.92,0.75,1.59,0.82c3.52,0.39,7.06,0.21,10.54-0.44c0.96-0.18,1.61-1.32,1.44-2.26
	c0.44-0.36,0.74-0.89,0.74-1.52v-8.43C355.25,749.5,354.9,748.88,354.38,748.5z M350.77,758.71c-0.09,0.01-0.18,0.03-0.27,0.04
	c-0.02,0-0.03,0-0.06,0.01c-0.19,0.02-0.38,0.05-0.58,0.07c-0.8,0.09-1.61,0.14-2.41,0.17c-1.34,0.05-2.68-0.01-4.02-0.13
	c-0.13-0.56-0.24-1.12-0.33-1.68c-0.01-0.06-0.04-0.26-0.05-0.33c-0.02-0.18-0.05-0.37-0.06-0.55c-0.04-0.41-0.08-0.82-0.1-1.23
	c-0.1-1.64-0.04-3.29,0.16-4.92c0-0.03,0-0.06,0-0.08c0.15-0.02,0.35-0.05,0.37-0.06c0.2-0.03,0.41-0.05,0.61-0.07
	c0.92-0.1,1.85-0.17,2.77-0.21c1.49-0.06,2.98-0.01,4.47,0.11c-0.02,0.1-0.03,0.2-0.03,0.31v8.43c0,0.02,0,0.03,0.01,0.05
	C351.09,758.65,350.93,758.68,350.77,758.71z"/>
<path d="M296.72,768.4c0.06-0.19,0.1-0.39,0.09-0.58c-0.05-1.18-0.88-1.88-2-2c-4.03-0.42-8.08-0.2-12.05,0.57
	c-1.03,0.2-1.71,1.49-1.4,2.46c0.06,0.17,0.13,0.32,0.22,0.47c-0.09,0.23-0.16,0.48-0.19,0.74c-0.43,3.5-0.17,7.08,0.7,10.5
	c0.15,0.6,0.63,1.08,1.2,1.32c0.36,0.46,0.92,0.75,1.59,0.82c3.52,0.39,7.06,0.21,10.54-0.44c0.96-0.18,1.61-1.32,1.44-2.26
	c0.44-0.36,0.74-0.89,0.74-1.52v-8.43C297.58,769.4,297.23,768.78,296.72,768.4z M293.11,778.6c-0.09,0.01-0.18,0.03-0.27,0.04
	c-0.02,0-0.03,0-0.06,0.01c-0.19,0.02-0.38,0.05-0.58,0.07c-0.8,0.09-1.61,0.14-2.41,0.17c-1.34,0.05-2.68-0.01-4.02-0.13
	c-0.13-0.56-0.24-1.12-0.33-1.68c-0.01-0.06-0.04-0.26-0.05-0.33c-0.02-0.18-0.05-0.37-0.06-0.55c-0.04-0.41-0.08-0.82-0.1-1.23
	c-0.1-1.64-0.04-3.29,0.16-4.92c0-0.03,0-0.06,0-0.08c0.15-0.02,0.35-0.05,0.37-0.06c0.2-0.03,0.41-0.05,0.61-0.07
	c0.92-0.1,1.85-0.17,2.77-0.21c1.49-0.06,2.98-0.01,4.47,0.11c-0.02,0.1-0.03,0.2-0.03,0.31v8.43c0,0.02,0,0.03,0.01,0.05
	C293.43,778.55,293.27,778.58,293.11,778.6z"/>
<path d="M315.88,768.59c0.06-0.19,0.1-0.39,0.09-0.58c-0.05-1.18-0.88-1.88-2-2c-4.03-0.42-8.08-0.2-12.05,0.57
	c-1.03,0.2-1.71,1.49-1.4,2.46c0.06,0.17,0.13,0.32,0.22,0.47c-0.09,0.23-0.16,0.48-0.19,0.74c-0.43,3.5-0.17,7.08,0.7,10.5
	c0.15,0.6,0.63,1.08,1.2,1.32c0.36,0.46,0.92,0.75,1.59,0.82c3.52,0.39,7.06,0.21,10.54-0.44c0.96-0.18,1.61-1.32,1.44-2.26
	c0.44-0.36,0.74-0.89,0.74-1.52v-8.43C316.75,769.6,316.4,768.97,315.88,768.59z M312.27,778.8c-0.09,0.01-0.18,0.03-0.27,0.04
	c-0.02,0-0.03,0-0.06,0.01c-0.19,0.02-0.38,0.05-0.58,0.07c-0.8,0.09-1.61,0.14-2.41,0.17c-1.34,0.05-2.68-0.01-4.02-0.13
	c-0.13-0.56-0.24-1.12-0.33-1.68c-0.01-0.06-0.04-0.26-0.05-0.33c-0.02-0.18-0.05-0.37-0.06-0.55c-0.04-0.41-0.08-0.82-0.1-1.23
	c-0.1-1.64-0.04-3.29,0.16-4.92c0-0.03,0-0.06,0-0.08c0.15-0.02,0.35-0.05,0.37-0.06c0.2-0.03,0.41-0.05,0.61-0.07
	c0.92-0.1,1.85-0.17,2.77-0.21c1.49-0.06,2.98-0.01,4.47,0.11c-0.02,0.1-0.03,0.2-0.03,0.31v8.43c0,0.02,0,0.03,0.01,0.05
	C312.59,778.74,312.43,778.77,312.27,778.8z"/>
<path d="M335.88,768.6c0.06-0.19,0.1-0.39,0.09-0.58c-0.05-1.18-0.88-1.88-2-2c-4.03-0.42-8.08-0.2-12.05,0.57
	c-1.03,0.2-1.71,1.49-1.4,2.46c0.06,0.17,0.13,0.32,0.22,0.47c-0.09,0.23-0.16,0.48-0.19,0.74c-0.43,3.5-0.17,7.08,0.7,10.5
	c0.15,0.6,0.63,1.08,1.2,1.32c0.36,0.46,0.92,0.75,1.59,0.82c3.52,0.39,7.06,0.21,10.54-0.44c0.96-0.18,1.61-1.32,1.44-2.26
	c0.44-0.36,0.74-0.89,0.74-1.52v-8.43C336.75,769.6,336.4,768.98,335.88,768.6z M332.27,778.81c-0.09,0.01-0.18,0.03-0.27,0.04
	c-0.02,0-0.03,0-0.06,0.01c-0.19,0.02-0.38,0.05-0.58,0.07c-0.8,0.09-1.61,0.14-2.41,0.17c-1.34,0.05-2.68-0.01-4.02-0.13
	c-0.13-0.56-0.24-1.12-0.33-1.68c-0.01-0.06-0.04-0.26-0.05-0.33c-0.02-0.18-0.05-0.37-0.06-0.55c-0.04-0.41-0.08-0.82-0.1-1.23
	c-0.1-1.64-0.04-3.29,0.16-4.92c0-0.03,0-0.06,0-0.08c0.15-0.02,0.35-0.05,0.37-0.06c0.2-0.03,0.41-0.05,0.61-0.07
	c0.92-0.1,1.85-0.17,2.77-0.21c1.49-0.06,2.98-0.01,4.47,0.11c-0.02,0.1-0.03,0.2-0.03,0.31v8.43c0,0.02,0,0.03,0.01,0.05
	C332.59,778.75,332.43,778.78,332.27,778.81z"/>
<path d="M354.88,768.6c0.06-0.19,0.1-0.39,0.09-0.58c-0.05-1.18-0.88-1.88-2-2c-4.03-0.42-8.08-0.2-12.05,0.57
	c-1.03,0.2-1.71,1.49-1.4,2.46c0.06,0.17,0.13,0.32,0.22,0.47c-0.09,0.23-0.16,0.48-0.19,0.74c-0.43,3.5-0.17,7.08,0.7,10.5
	c0.15,0.6,0.63,1.08,1.2,1.32c0.36,0.46,0.92,0.75,1.59,0.82c3.52,0.39,7.06,0.21,10.54-0.44c0.96-0.18,1.61-1.32,1.44-2.26
	c0.44-0.36,0.74-0.89,0.74-1.52v-8.43C355.75,769.6,355.4,768.98,354.88,768.6z M351.27,778.81c-0.09,0.01-0.18,0.03-0.27,0.04
	c-0.02,0-0.03,0-0.06,0.01c-0.19,0.02-0.38,0.05-0.58,0.07c-0.8,0.09-1.61,0.14-2.41,0.17c-1.34,0.05-2.68-0.01-4.02-0.13
	c-0.13-0.56-0.24-1.12-0.33-1.68c-0.01-0.06-0.04-0.26-0.05-0.33c-0.02-0.18-0.05-0.37-0.06-0.55c-0.04-0.41-0.08-0.82-0.1-1.23
	c-0.1-1.64-0.04-3.29,0.16-4.92c0-0.03,0-0.06,0-0.08c0.15-0.02,0.35-0.05,0.37-0.06c0.2-0.03,0.41-0.05,0.61-0.07
	c0.92-0.1,1.85-0.17,2.77-0.21c1.49-0.06,2.98-0.01,4.47,0.11c-0.02,0.1-0.03,0.2-0.03,0.31v8.43c0,0.02,0,0.03,0.01,0.05
	C351.59,778.75,351.43,778.78,351.27,778.81z"/>
<path d="M242.53,592.29c-0.91-4.62-4.63-7.63-8.82-7.95c-0.37-3.3-2.16-6.38-5.21-8.05c-3.39-1.86-7.62-1.53-10.79,0.52
	c-0.44-2.39-1.62-4.5-3.56-5.66c-0.08-4.4-0.92-9.05-4.28-12.15c-2.43-2.24-6.04-3.45-9.28-2.8c-5.48-6.11-14.17-7.25-20.97-2.68
	c-4.74-2.11-10.64-2.07-14.22,2.18c-3.59,4.26-3.05,9.66-1.23,14.5c-7.7,3.04-7.4,16.42,0.02,19.11c0.04,4.24,3.03,8.24,7.27,9.4
	c3.49,0.95,7.5,0.46,10.44-1.51c4.02,3.24,9.99,4.1,14.95,3.22c0.1,1.68,0.71,3.31,1.97,4.71c0.59,0.65,1.29,1.16,2.06,1.56
	c-0.73,3.06-0.06,6.36,2.28,8.92c3.26,3.57,8.28,3.9,12.41,1.97c5.62,3.87,13.07,4.35,18.7-0.02c4.05-3.14,5.71-8.64,3.71-12.63
	C241.56,601.96,243.44,596.86,242.53,592.29z M200.37,582.9c-0.38,0.18-0.73,0.45-1.04,0.76c0.07,0.24,0.13,0.49,0.17,0.74
	c0.63,5.1-2.88,9.85-8.25,9.68c-3.99-0.13-6.65-2.61-7.58-5.91c-0.55-0.28-1.17-0.43-1.8-0.46c-1.45,3.3-4.25,6.29-8.15,5.14
	c-1.95-0.58-3.33-2.32-3.81-4.25c-0.31-1.27-0.26-2.53,0.01-3.77c-2.5-0.55-4.66-2.17-5.05-5.01c-0.47-3.39,1.95-5.35,4.79-6.01
	c-0.86-0.95-1.49-2.11-1.74-3.49c-0.78-4.36,1.77-9.4,5.74-11.41c2.12-1.08,4.59-1.27,6.7-0.04c0.75,0.43,1.37,0.99,1.91,1.64
	c2.66-3.6,7.57-4.83,11.7-2.86c2.86,1.36,4.28,3.72,4.59,6.35c1.3-0.96,2.81-1.61,4.48-1.55c2.04,0.07,3.88,1.26,4.93,2.98
	c1.53,2.5,1.44,5.46,0.31,8.02c2.03,1.85,3.07,4.65,2.02,7.48c-0.69,1.87-2.13,3.36-4.12,3.78
	C204.02,585.18,202.02,584.24,200.37,582.9z M228.57,602.72c-0.05,0.12-0.12,0.23-0.16,0.35c1.15,0.85,1.91,2.11,2.68,3.32
	c0.57,0.88,0.54,2.14,0,3.03c-3.42,5.64-11.67,5.17-14.78-0.2c-0.17-0.05-0.34-0.09-0.52-0.12c-0.94,0.98-2.14,1.71-3.52,2.03
	c-0.4,0.09-0.77,0.1-1.12,0.06c-0.12,0.01-0.23,0.04-0.36,0.05c-1.28,0.08-2.59-0.99-2.89-2.2c-0.67-2.7-0.26-5.25,0.72-7.73
	c-0.52,0.03-1.04,0.06-1.57,0.06c-1.56,0-2.74-1.19-2.96-2.67c-0.42-0.96-0.36-2.14,0.18-3.03c-0.09-0.12-0.19-0.24-0.3-0.36
	c0.66-1.35,1.03-2.88,1.12-4.5c4.8-0.02,9.13-1.66,11.43-6.18c0.39,0.28,0.81,0.48,1.26,0.61c0.22-0.55,0.51-1.08,0.92-1.55
	c1.12-1.29,2.93-1.7,4.53-1.19c3.34,1.06,4.87,5.17,4.52,8.38c-0.01,0.06-0.02,0.12-0.03,0.18c0.3,0.34,0.65,0.63,1.03,0.87
	c0.9-0.63,1.93-1.05,3.12-1.17c0.15-0.02,0.3,0,0.45,0c0.42-0.08,0.84-0.13,1.29-0.15c1.72-0.08,2.88,1.44,3,3
	C236.98,598.31,233.26,602.51,228.57,602.72z"/>
<g>
	<path class="st7" d="M1003.33,883.74c-0.87-1.67-2.35-3.01-3.54-4.53c-1.27-1.63-2.71-3.17-3.7-4.96
		c-5.06-9.18-19.18-10.7-25.36-2.31c-2.44,3.31-4.07,7.42-5.26,11.4c-2.11,7.08-3.16,14.5-5.46,21.5
		c-3.49,10.64-6.5,21.16-3.68,32.49c0.52,2.08,0.02,4.27-2.64,5.08c-1.68,0.51-1.8,1.51-1.26,2.62c5.49,2.62,11.4,4.05,17.32,5.44
		c0.72,0.08,1.45,0.15,2.17,0.21c3,0.25,5.74,0.08,8.85,1.7c4.06,2.12,9.16,2.84,13.97,1.03c0.29-0.23,0.57-0.45,0.86-0.68
		c0.49-0.68,0.81-1.43,1.01-2.22c-0.05-0.93-0.27-1.88-0.57-2.76c-1.34-0.76-2.67-1.61-4.07-2.4c7.32-6.32,10.32-11.9,9.7-21.02
		c-0.48-7.16-2.24-14.23-3.5-21.33c-0.9-5.08-2.08-10.12-0.78-15.43c0.94,0.26,1.68,0.65,2.4,0.62c1.24-0.07,3-0.01,3.54-0.74
		C1003.95,886.61,1003.86,884.76,1003.33,883.74z M991.43,950.49c-2.59-0.27-5.18-0.54-8.18-0.85c3.16-1.99,5.77-2.03,8.25-0.09
		C991.47,949.86,991.45,950.18,991.43,950.49z M997.72,926.35c0.32,5.84-2.16,10.99-6.9,14.77c-10.68-7.68-6.63-36.6,4.05-38.59
		C995.88,910.58,997.29,918.44,997.72,926.35z M993.56,882.9c-0.64,0-1.58,0.49-1.81,1.01c-0.23,0.52,0.24,1.36,0.45,2.05
		c0.31,1.01,0.93,1.99,0.97,2.99c0.12,3.45,0.05,6.91,0.05,10.61c-13.13,9.16-15.68,29.13-4.98,43.47
		c-9.86,5.49-19.93,4.06-30.57,1.8c3.05-3.58,2.95-7.23,2.06-11.03c-1.85-7.83-0.04-15.3,2.34-22.71c0.44-1.37,0.78-2.77,1.16-4.15
		c-0.81-1.85-1.47-3.62,1.65-3.73c1.56-6.95,3.03-13.92,4.75-20.82c0.55-2.21,1.59-4.35,2.71-6.36c2.24-4,5.56-6.42,10.4-5.84
		c4.69,0.56,8.25,2.72,10.49,7.13c1.11,2.19,3.02,3.99,4.65,6.07C996.36,883.2,994.96,882.9,993.56,882.9z"/>
	<path class="st8" d="M964.86,903.21c1.56-6.95,3.03-13.92,4.75-20.82c0.55-2.21,1.59-4.35,2.71-6.36c2.24-4,5.56-6.42,10.4-5.84
		c4.69,0.56,8.25,2.72,10.49,7.13c1.11,2.19,3.02,3.99,4.65,6.07c-1.5-0.19-2.9-0.5-4.3-0.49c-0.64,0-1.58,0.49-1.81,1.01
		c-0.23,0.52,0.24,1.36,0.45,2.05c0.31,1.01,0.93,1.99,0.97,2.99c0.12,3.45,0.05,6.91,0.05,10.61
		c-13.13,9.16-15.68,29.13-4.98,43.47c-9.86,5.49-19.93,4.06-30.57,1.8c3.05-3.58,2.95-7.23,2.06-11.03
		c-1.85-7.83-0.04-15.3,2.34-22.71c0.44-1.37,0.78-2.77,1.16-4.15c0.21-0.32,0.42-0.64,0.64-0.95c0.01-0.02,0.15,0.06,0.01,0
		c0,5.46-0.05,10.83,0.02,16.2c0.05,4.23-0.04,8.49,0.53,12.66c0.21,1.55,1.84,3.43,3.32,4.16c2,0.99,3.89-0.41,5.21-2.12
		c0.76-0.99,1.44-2.05,2.05-3.14c4.89-8.74,6.96-18.32,8.1-28.14c0.08-0.7-0.75-1.5-1.16-2.25c-0.85,0.59-2.11,1-2.46,1.81
		c-0.55,1.28-0.47,2.83-0.69,4.26c-1.17,7.57-3.05,14.92-6.73,21.7c-0.82,1.52-1.97,2.86-2.96,4.28c-0.27-0.11-0.55-0.21-0.82-0.32
		c-0.2-1.59-0.59-3.18-0.56-4.77c0.17-8.09,0.47-16.19,0.69-24.28C968.49,902.84,968.05,902.52,964.86,903.21z M987.13,877.39
		c-1.32-0.89-2.52-1.99-2.77-1.8c-1.05,0.76-1.96,1.84-2.58,2.99c-0.13,0.24,1.6,1.94,1.8,1.82
		C984.71,879.74,985.63,878.73,987.13,877.39z"/>
	<path class="st9" d="M994.87,902.53c1.01,8.06,2.42,15.91,2.85,23.82c0.32,5.84-2.16,10.99-6.9,14.77
		C980.14,933.44,984.19,904.52,994.87,902.53z"/>
	<path class="st10" d="M964.86,903.21c3.19-0.69,3.63-0.37,3.54,2.81c-0.23,8.09-0.52,16.19-0.69,24.28
		c-0.03,1.59,0.36,3.18,0.56,4.77c0.27,0.11,0.55,0.21,0.82,0.32c1-1.42,2.14-2.76,2.96-4.28c3.67-6.78,5.56-14.14,6.73-21.7
		c0.22-1.43,0.14-2.97,0.69-4.26c0.35-0.81,1.61-1.22,2.46-1.81c0.41,0.75,1.24,1.56,1.16,2.25c-1.14,9.82-3.2,19.39-8.1,28.14
		c-0.61,1.09-1.29,2.15-2.05,3.14c-1.32,1.71-3.21,3.11-5.21,2.12c-1.48-0.73-3.11-2.61-3.32-4.16c-0.57-4.17-0.47-8.43-0.53-12.66
		c-0.07-5.37-0.02-10.74-0.02-16.2c0.14,0.06,0-0.02-0.01,0c-0.22,0.31-0.43,0.63-0.64,0.95
		C962.4,905.1,961.74,903.32,964.86,903.21z"/>
	<path class="st11" d="M983.25,949.64c3.16-1.99,5.77-2.03,8.25-0.09c-0.02,0.31-0.05,0.63-0.07,0.94
		C988.84,950.22,986.25,949.95,983.25,949.64z"/>
	<path class="st12" d="M987.13,877.39c-1.5,1.34-2.42,2.35-3.55,3c-0.21,0.12-1.93-1.58-1.8-1.82c0.62-1.15,1.53-2.23,2.58-2.99
		C984.61,875.4,985.8,876.5,987.13,877.39z"/>
</g>
<rect x="116.25" y="445.6" class="st13" width="259.4" height="110.3"/>
<text transform="matrix(1 0 0 1 172.5374 468.2736)"><tspan x="0" y="0" class="st14 st15">Desarrollo</tspan><tspan x="6.07" y="40.8" class="st14 st15">Industrial</tspan></text>
<rect x="536.25" y="437.87" class="st13" width="327" height="110.3"/>
<text transform="matrix(1 0 0 1 575.2773 460.5498)"><tspan x="0" y="0" class="st14 st15">Quema de fsiles</tspan><tspan x="-23.54" y="40.8" class="st14 st15">y produccin de CO2</tspan></text>
<rect x="384.27" y="932.87" class="st13" width="491.98" height="110.3"/>
<text transform="matrix(1 0 0 1 416.2961 955.5492)"><tspan x="0" y="0" class="st14 st15">La expansin del agua debido</tspan><tspan x="16.69" y="40.8" class="st14 st15">al aumento de temperatura</tspan><tspan x="70.47" y="81.6" class="st14 st15">de mares y ocanos</tspan></text>
<rect x="1306.17" y="948.4" class="st13" width="491.98" height="110.3"/>
<text transform="matrix(1 0 0 1 1342.4839 971.0789)"><tspan x="0" y="0" class="st14 st15">El derretimiento de glaciares:</tspan><tspan x="-27.68" y="40.8" class="st14 st15">Fusin de hielo sobre tierra firme</tspan></text>
<rect x="425.86" y="132.67" class="st13" width="1082.39" height="110.3"/>
<text transform="matrix(1 0 0 1 453.416 169.3528)" class="st14 st16">Claves para entender esta imparable subida</text>
<g>
	<g>
		<path d="M98.64,277.34c-1.52,7.07-6.86,12.22-16.35,12.22c-12.02,0-17.71-8.51-17.71-19.29c0-10.39,5.87-19.71,18.1-19.71
			c10.1,0,14.99,5.93,15.92,12.26h-8.2c-0.79-2.92-2.83-5.83-7.98-5.83c-6.76,0-9.37,6.08-9.37,12.98c0,6.41,2.26,13.16,9.59,13.16
			c5.35,0,7.04-3.58,7.75-5.8H98.64z"/>
		<path d="M128.25,281.67c0,2.71,0.22,6.67,0.38,7.35h-7.53c-0.22-0.56-0.38-2.06-0.4-2.78c-1.03,1.6-2.97,3.44-8,3.44
			c-6.86,0-9.76-4.51-9.76-8.93c0-6.48,5.21-9.48,13.55-9.48c1.39,0,3.11,0,4.06,0v-1.74c0-2.02-0.73-4.01-4.38-4.01
			c-3.33,0-4.06,1.41-4.42,3.48h-7.49c0.43-5.06,3.56-9.15,12.21-9.1c7.62,0.05,11.77,3.03,11.77,9.8V281.67z M120.56,276.07
			c-0.66,0-2.17,0-3.21,0c-4.75,0-6.51,1.45-6.51,4.19c0,2.06,1.26,3.8,4.1,3.8c5.01,0,5.62-3.48,5.62-7.24V276.07z"/>
		<path d="M160.45,280.75c0,2.74,0.01,5.73,0.06,8.27h-7.72c-0.11-0.76-0.16-2.29-0.21-3.28c-1.69,2.86-4.2,3.94-7.84,3.94
			c-5.8,0-9.5-3.52-9.5-10.58v-18.54h7.87v16.96c0,3.14,0.97,5.74,4.39,5.74c3.59,0,5.08-1.92,5.08-7.55v-15.15h7.88V280.75z"/>
		<path d="M173.37,280.47c0.6,2.27,2.45,3.54,5.39,3.54c2.91,0,3.97-1.04,3.97-2.77c0-1.83-1.22-2.54-5.3-3.54
			c-9.27-2.29-10.79-5.16-10.79-9.17c0-4.18,2.96-8.62,11.54-8.62c8.63,0,11.56,4.71,11.8,8.57h-7.49
			c-0.25-1.05-0.95-3.04-4.66-3.04c-2.61,0-3.45,1.15-3.45,2.43c0,1.42,0.88,2.1,5.5,3.18c9.5,2.21,10.84,5.46,10.84,9.64
			c0,4.71-3.58,9-12.26,9c-8.64,0-12.21-4.17-12.83-9.22H173.37z"/>
		<path d="M219.54,281.67c0,2.71,0.22,6.67,0.38,7.35h-7.53c-0.22-0.56-0.38-2.06-0.4-2.78c-1.03,1.6-2.97,3.44-8,3.44
			c-6.86,0-9.76-4.51-9.76-8.93c0-6.48,5.21-9.48,13.55-9.48c1.39,0,3.11,0,4.06,0v-1.74c0-2.02-0.73-4.01-4.38-4.01
			c-3.33,0-4.06,1.41-4.42,3.48h-7.49c0.43-5.06,3.56-9.15,12.21-9.1c7.62,0.05,11.77,3.03,11.77,9.8V281.67z M211.86,276.07
			c-0.66,0-2.17,0-3.21,0c-4.75,0-6.51,1.45-6.51,4.19c0,2.06,1.26,3.8,4.1,3.8c5.01,0,5.62-3.48,5.62-7.24V276.07z"/>
		<path d="M232.49,280.47c0.6,2.27,2.45,3.54,5.39,3.54c2.91,0,3.97-1.04,3.97-2.77c0-1.83-1.22-2.54-5.3-3.54
			c-9.27-2.29-10.79-5.16-10.79-9.17c0-4.18,2.96-8.62,11.54-8.62c8.63,0,11.56,4.71,11.8,8.57h-7.49
			c-0.25-1.05-0.95-3.04-4.66-3.04c-2.61,0-3.45,1.15-3.45,2.43c0,1.42,0.88,2.1,5.5,3.18c9.5,2.21,10.84,5.46,10.84,9.64
			c0,4.71-3.58,9-12.26,9c-8.64,0-12.21-4.17-12.83-9.22H232.49z"/>
		<path d="M286.61,286c-1.61,2.6-4.15,3.69-7.95,3.69c-6.32,0-11.96-4.74-11.96-14.61c0-9.17,5.51-15.17,12.62-15.17
			c4.54,0,6.62,1.83,7.29,3.33c0.04-0.73,0.15-1.97,0.25-2.67h7.43c-0.01,2.37-0.05,5.21-0.05,7.79v31.58h-7.63V286z M274.8,274.81
			c0,5.07,1.84,8.56,6,8.56c4.83,0,5.92-3.5,5.92-8.65c0-5.52-1.1-8.51-5.8-8.51C276.74,266.22,274.8,269.72,274.8,274.81z"/>
		<path d="M326.39,280.75c0,2.74,0.01,5.73,0.06,8.27h-7.72c-0.11-0.76-0.16-2.29-0.21-3.28c-1.69,2.86-4.2,3.94-7.84,3.94
			c-5.8,0-9.5-3.52-9.5-10.58v-18.54h7.87v16.96c0,3.14,0.97,5.74,4.39,5.74c3.59,0,5.08-1.92,5.08-7.55v-15.15h7.88V280.75z"/>
		<path d="M339.76,276.48c0.01,3.56,1.79,7.04,5.71,7.04c3.28,0,4.22-1.32,4.97-3.04h7.89c-1.01,3.48-4.12,9.21-13.06,9.21
			c-9.38,0-13.44-7.01-13.44-14.48c0-8.93,4.58-15.31,13.72-15.31c9.78,0,13.1,7.07,13.1,14.18c0,0.96,0,1.59-0.1,2.4H339.76z
			 M350.75,271.64c-0.05-3.31-1.38-6.1-5.22-6.1c-3.78,0-5.3,2.6-5.61,6.1H350.75z"/>
		<path d="M401.97,279.83c-0.98,4.74-4.32,9.86-12.8,9.86c-8.86,0-13.41-6.13-13.41-14.69c0-8.41,5.13-15.1,13.79-15.1
			c9.6,0,12.26,6.89,12.42,10.11h-7.69c-0.49-2.32-1.8-3.94-4.88-3.94c-3.6,0-5.64,3.16-5.64,8.68c0,6.06,2.16,8.82,5.61,8.82
			c2.71,0,4.16-1.6,4.86-3.74H401.97z"/>
		<path d="M433.45,274.74c0,8.61-5.15,14.95-14.17,14.95c-8.83,0-13.98-6.3-13.98-14.79c0-8.78,5.31-14.99,14.35-14.99
			C428.03,259.9,433.45,265.81,433.45,274.74z M413.3,274.79c0,5.48,2.36,8.73,6.15,8.73c3.86,0,6-3.25,6-8.68
			c0-5.96-2.19-8.77-6.11-8.77C415.69,266.07,413.3,268.77,413.3,274.79z"/>
		<path d="M438.92,267.73c0-2.42,0-5.07-0.06-7.17h7.63c0.16,0.73,0.26,2.71,0.3,3.63c0.97-1.79,3.27-4.29,8.26-4.29
			c5.72,0,9.43,3.86,9.43,11.02v18.11h-7.88v-17.23c0-3.2-1.07-5.52-4.54-5.52c-3.35,0-5.26,1.86-5.26,6.89v15.86h-7.88V267.73z"/>
		<path d="M497.6,248.88v32.32c0,2.59,0,5.22,0.05,7.82h-7.58c-0.16-0.85-0.31-2.32-0.36-2.97c-1.38,2.24-3.83,3.63-8.08,3.63
			c-7.2,0-11.78-5.78-11.78-14.66c0-8.76,4.87-15.13,12.93-15.13c4.09,0,6.29,1.44,6.93,2.72v-13.74H497.6z M477.96,274.82
			c0,5.55,2.16,8.55,6.02,8.55c5.42,0,6.04-4.52,6.04-8.61c0-4.87-0.69-8.55-5.84-8.55C480.05,266.21,477.96,269.44,477.96,274.82z"
			/>
		<path d="M529.66,280.75c0,2.74,0.01,5.73,0.06,8.27h-7.72c-0.11-0.76-0.16-2.29-0.21-3.28c-1.69,2.86-4.2,3.94-7.84,3.94
			c-5.8,0-9.5-3.52-9.5-10.58v-18.54h7.87v16.96c0,3.14,0.97,5.74,4.39,5.74c3.59,0,5.08-1.92,5.08-7.55v-15.15h7.88V280.75z"/>
		<path d="M561.41,279.83c-0.98,4.74-4.32,9.86-12.8,9.86c-8.86,0-13.41-6.13-13.41-14.69c0-8.41,5.13-15.1,13.79-15.1
			c9.6,0,12.26,6.89,12.42,10.11h-7.69c-0.49-2.32-1.8-3.94-4.88-3.94c-3.6,0-5.64,3.16-5.64,8.68c0,6.06,2.16,8.82,5.61,8.82
			c2.71,0,4.16-1.6,4.86-3.74H561.41z"/>
		<path d="M572.68,276.48c0.01,3.56,1.79,7.04,5.71,7.04c3.28,0,4.22-1.32,4.97-3.04h7.89c-1.01,3.48-4.12,9.21-13.06,9.21
			c-9.38,0-13.44-7.01-13.44-14.48c0-8.93,4.58-15.31,13.72-15.31c9.78,0,13.1,7.07,13.1,14.18c0,0.96,0,1.59-0.1,2.4H572.68z
			 M583.67,271.64c-0.05-3.31-1.38-6.1-5.22-6.1c-3.78,0-5.3,2.6-5.61,6.1H583.67z"/>
		<path d="M596.99,267.73c0-2.42,0-5.07-0.06-7.17h7.63c0.16,0.73,0.26,2.71,0.3,3.63c0.97-1.79,3.27-4.29,8.26-4.29
			c5.72,0,9.43,3.86,9.43,11.02v18.11h-7.88v-17.23c0-3.2-1.07-5.52-4.54-5.52c-3.35,0-5.26,1.86-5.26,6.89v15.86h-7.88V267.73z"/>
		<path d="M666.47,281.67c0,2.71,0.22,6.67,0.38,7.35h-7.53c-0.22-0.56-0.38-2.06-0.4-2.78c-1.03,1.6-2.97,3.44-8,3.44
			c-6.86,0-9.76-4.51-9.76-8.93c0-6.48,5.21-9.48,13.55-9.48c1.39,0,3.11,0,4.06,0v-1.74c0-2.02-0.73-4.01-4.38-4.01
			c-3.33,0-4.06,1.41-4.42,3.48h-7.49c0.43-5.06,3.56-9.15,12.21-9.1c7.62,0.05,11.77,3.03,11.77,9.8V281.67z M658.79,276.07
			c-0.66,0-2.17,0-3.21,0c-4.75,0-6.51,1.45-6.51,4.19c0,2.06,1.26,3.8,4.1,3.8c5.01,0,5.62-3.48,5.62-7.24V276.07z"/>
		<path d="M673.6,289.02v-40.14h7.88v40.14H673.6z"/>
		<path d="M726.52,279.83c-0.98,4.74-4.32,9.86-12.8,9.86c-8.86,0-13.41-6.13-13.41-14.69c0-8.41,5.13-15.1,13.79-15.1
			c9.6,0,12.26,6.89,12.42,10.11h-7.69c-0.49-2.32-1.8-3.94-4.88-3.94c-3.6,0-5.64,3.16-5.64,8.68c0,6.06,2.16,8.82,5.61,8.82
			c2.71,0,4.16-1.6,4.86-3.74H726.52z"/>
		<path d="M755.12,281.67c0,2.71,0.22,6.67,0.38,7.35h-7.53c-0.22-0.56-0.38-2.06-0.4-2.78c-1.03,1.6-2.97,3.44-8,3.44
			c-6.86,0-9.76-4.51-9.76-8.93c0-6.48,5.21-9.48,13.55-9.48c1.39,0,3.11,0,4.06,0v-1.74c0-2.02-0.73-4.01-4.38-4.01
			c-3.33,0-4.06,1.41-4.42,3.48h-7.49c0.43-5.06,3.56-9.15,12.21-9.1c7.62,0.05,11.77,3.03,11.77,9.8V281.67z M747.44,276.07
			c-0.66,0-2.17,0-3.21,0c-4.75,0-6.51,1.45-6.51,4.19c0,2.06,1.26,3.8,4.1,3.8c5.01,0,5.62-3.48,5.62-7.24V276.07z"/>
		<path d="M762.26,267.9c0-2.46,0-4.9-0.05-7.34h7.54c0.1,0.69,0.26,2.28,0.3,3.39c1.45-2.12,3.73-4.05,7.91-4.05
			c4.09,0,6.34,2.12,7.34,4.33c1.67-2.33,4.12-4.33,8.77-4.33c4.96,0,9.02,3.05,9.02,10.45v18.67h-7.69v-17.71
			c0-2.57-0.93-5.08-4.16-5.08c-3.35,0-4.66,2.16-4.66,6.53v16.27h-7.73v-17.42c0-2.95-0.73-5.33-4.09-5.33
			c-3.21,0-4.72,1.97-4.72,6.85v15.9h-7.78V267.9z"/>
		<path d="M810.17,248.88h7.88v14.7c1.17-1.83,3.53-3.68,8.14-3.68c7.75,0,11.61,6.4,11.61,14.38c0,8.16-4.19,15.4-12.38,15.4
			c-4.23,0-6.1-1.29-7.48-3.36c0,0.94-0.15,1.98-0.3,2.7h-7.54c0.05-3.09,0.05-6.22,0.05-9.31V248.88z M829.81,274.44
			c0-4.74-1.76-8.22-6.02-8.22c-4.5,0-6.1,2.93-6.1,8.73c0,4.79,1.42,8.48,6.01,8.48C827.71,283.42,829.81,279.82,829.81,274.44z"/>
		<path d="M843.22,248.88h7.88v7.03h-7.88V248.88z M843.22,260.56h7.88v28.46h-7.88V260.56z"/>
		<path d="M884.66,274.74c0,8.61-5.15,14.95-14.17,14.95c-8.83,0-13.98-6.3-13.98-14.79c0-8.78,5.31-14.99,14.35-14.99
			C879.24,259.9,884.66,265.81,884.66,274.74z M864.51,274.79c0,5.48,2.36,8.73,6.15,8.73c3.86,0,6-3.25,6-8.68
			c0-5.96-2.19-8.77-6.11-8.77C866.9,266.07,864.51,268.77,864.51,274.79z"/>
		<path d="M928.03,279.83c-0.98,4.74-4.32,9.86-12.8,9.86c-8.86,0-13.41-6.13-13.41-14.69c0-8.41,5.13-15.1,13.79-15.1
			c9.6,0,12.26,6.89,12.42,10.11h-7.69c-0.49-2.32-1.8-3.94-4.88-3.94c-3.6,0-5.64,3.16-5.64,8.68c0,6.06,2.16,8.82,5.61,8.82
			c2.71,0,4.16-1.6,4.86-3.74H928.03z"/>
		<path d="M933.03,289.02v-40.14h7.88v40.14H933.03z"/>
		<path d="M947.99,248.88h7.88v7.03h-7.88V248.88z M947.99,260.56h7.88v28.46h-7.88V260.56z"/>
		<path d="M962.95,267.9c0-2.46,0-4.9-0.05-7.34h7.54c0.1,0.69,0.26,2.28,0.3,3.39c1.45-2.12,3.73-4.05,7.91-4.05
			c4.09,0,6.34,2.12,7.34,4.33c1.67-2.33,4.12-4.33,8.77-4.33c4.96,0,9.02,3.05,9.02,10.45v18.67h-7.69v-17.71
			c0-2.57-0.93-5.08-4.16-5.08c-3.35,0-4.66,2.16-4.66,6.53v16.27h-7.73v-17.42c0-2.95-0.73-5.33-4.09-5.33
			c-3.21,0-4.72,1.97-4.72,6.85v15.9h-7.78V267.9z"/>
		<path d="M1034.46,281.67c0,2.71,0.22,6.67,0.38,7.35h-7.53c-0.22-0.56-0.38-2.06-0.4-2.78c-1.03,1.6-2.97,3.44-8,3.44
			c-6.86,0-9.76-4.51-9.76-8.93c0-6.48,5.21-9.48,13.55-9.48c1.39,0,3.11,0,4.06,0v-1.74c0-2.02-0.73-4.01-4.38-4.01
			c-3.33,0-4.06,1.41-4.42,3.48h-7.49c0.43-5.06,3.56-9.15,12.21-9.1c7.62,0.05,11.77,3.03,11.77,9.8V281.67z M1026.78,276.07
			c-0.66,0-2.17,0-3.21,0c-4.75,0-6.51,1.45-6.51,4.19c0,2.06,1.26,3.8,4.1,3.8c5.01,0,5.62-3.48,5.62-7.24V276.07z M1034.11,248.33
			l-8.77,8.15h-6.89l6.32-8.15H1034.11z"/>
		<path d="M1038.83,260.56h4.39v-7.71h7.88v7.71h5.58v5.92h-5.58v14.05c0,2.16,0.66,3,3.01,3c0.44,0,1.21-0.01,1.79-0.09v5.42
			c-1.56,0.53-3.71,0.54-5.3,0.54c-5.55,0-7.39-2.97-7.39-7.95v-14.97h-4.39V260.56z"/>
		<path d="M1061.56,248.88h7.88v7.03h-7.88V248.88z M1061.56,260.56h7.88v28.46h-7.88V260.56z"/>
		<path d="M1101.17,279.83c-0.98,4.74-4.32,9.86-12.8,9.86c-8.86,0-13.41-6.13-13.41-14.69c0-8.41,5.13-15.1,13.79-15.1
			c9.6,0,12.26,6.89,12.42,10.11h-7.69c-0.49-2.32-1.8-3.94-4.88-3.94c-3.6,0-5.64,3.16-5.64,8.68c0,6.06,2.16,8.82,5.61,8.82
			c2.71,0,4.16-1.6,4.86-3.74H1101.17z"/>
		<path d="M1132.65,274.74c0,8.61-5.15,14.95-14.17,14.95c-8.83,0-13.98-6.3-13.98-14.79c0-8.78,5.31-14.99,14.35-14.99
			C1127.23,259.9,1132.65,265.81,1132.65,274.74z M1112.5,274.79c0,5.48,2.36,8.73,6.15,8.73c3.86,0,6-3.25,6-8.68
			c0-5.96-2.19-8.77-6.11-8.77C1114.89,266.07,1112.5,268.77,1112.5,274.79z"/>
		<path d="M1156.57,260.56c2.94,9.82,5.5,18.59,5.96,21.22h0.05c0.62-2.87,2.28-9.25,5.68-21.22h7.85l-9.56,29.28
			c-2.72,8.19-4.99,10.63-11.83,10.63c-0.7,0-2.33-0.06-3.69-0.21v-6.33c0.53,0.06,1.4,0.12,2.04,0.12c2.89,0,4.35-1.01,5.42-4.15
			l-10.36-29.34H1156.57z"/>
		<path d="M1216.84,281.67c0,2.71,0.22,6.67,0.38,7.35h-7.53c-0.22-0.56-0.38-2.06-0.4-2.78c-1.03,1.6-2.97,3.44-8,3.44
			c-6.86,0-9.76-4.51-9.76-8.93c0-6.48,5.21-9.48,13.55-9.48c1.39,0,3.11,0,4.06,0v-1.74c0-2.02-0.73-4.01-4.38-4.01
			c-3.33,0-4.06,1.41-4.42,3.48h-7.49c0.43-5.06,3.56-9.15,12.21-9.1c7.62,0.05,11.77,3.03,11.77,9.8V281.67z M1209.16,276.07
			c-0.66,0-2.17,0-3.21,0c-4.75,0-6.51,1.45-6.51,4.19c0,2.06,1.26,3.8,4.1,3.8c5.01,0,5.62-3.48,5.62-7.24V276.07z"/>
		<path d="M1223.98,289.02v-40.14h7.88v40.14H1223.98z"/>
		<path d="M89.09,347.67c0,2.71,0.22,6.67,0.38,7.35h-7.53c-0.22-0.56-0.38-2.06-0.4-2.78c-1.03,1.6-2.97,3.44-8,3.44
			c-6.86,0-9.76-4.51-9.76-8.93c0-6.48,5.21-9.48,13.55-9.48c1.39,0,3.11,0,4.06,0v-1.74c0-2.02-0.73-4.01-4.38-4.01
			c-3.33,0-4.06,1.41-4.42,3.48H65.1c0.43-5.06,3.56-9.15,12.21-9.1c7.62,0.05,11.77,3.03,11.77,9.8V347.67z M81.41,342.06
			c-0.66,0-2.17,0-3.21,0c-4.75,0-6.51,1.45-6.51,4.19c0,2.06,1.26,3.8,4.1,3.8c5.01,0,5.62-3.48,5.62-7.24V342.06z"/>
		<path d="M121.29,346.75c0,2.74,0.01,5.73,0.06,8.27h-7.72c-0.11-0.76-0.16-2.29-0.21-3.28c-1.69,2.86-4.2,3.94-7.84,3.94
			c-5.8,0-9.5-3.52-9.5-10.58v-18.54h7.87v16.96c0,3.14,0.97,5.74,4.39,5.74c3.59,0,5.08-1.92,5.08-7.55v-15.15h7.88V346.75z"/>
		<path d="M128.4,333.89c0-2.46,0-4.9-0.05-7.34h7.54c0.1,0.69,0.26,2.28,0.3,3.39c1.45-2.12,3.73-4.05,7.91-4.05
			c4.09,0,6.34,2.12,7.34,4.33c1.67-2.33,4.12-4.33,8.77-4.33c4.96,0,9.02,3.05,9.02,10.45v18.67h-7.69v-17.71
			c0-2.57-0.93-5.08-4.16-5.08c-3.35,0-4.66,2.16-4.66,6.53v16.27H145v-17.42c0-2.95-0.73-5.33-4.09-5.33
			c-3.21,0-4.72,1.97-4.72,6.85v15.9h-7.78V333.89z"/>
		<path d="M182.57,342.48c0.01,3.56,1.79,7.04,5.71,7.04c3.28,0,4.22-1.32,4.97-3.04h7.89c-1.01,3.48-4.12,9.21-13.06,9.21
			c-9.38,0-13.44-7.01-13.44-14.48c0-8.93,4.58-15.31,13.72-15.31c9.78,0,13.1,7.07,13.1,14.18c0,0.96,0,1.59-0.1,2.4H182.57z
			 M193.57,337.64c-0.05-3.31-1.38-6.1-5.22-6.1c-3.78,0-5.3,2.6-5.61,6.1H193.57z"/>
		<path d="M206.88,333.73c0-2.42,0-5.07-0.06-7.17h7.63c0.16,0.73,0.26,2.71,0.3,3.63c0.97-1.79,3.27-4.29,8.26-4.29
			c5.72,0,9.43,3.86,9.43,11.02v18.11h-7.88v-17.23c0-3.2-1.07-5.52-4.54-5.52c-3.35,0-5.26,1.86-5.26,6.89v15.86h-7.88V333.73z"/>
		<path d="M236.67,326.56h4.39v-7.71h7.88v7.71h5.58v5.92h-5.58v14.05c0,2.16,0.66,3,3.01,3c0.44,0,1.21-0.01,1.79-0.09v5.42
			c-1.56,0.53-3.71,0.54-5.3,0.54c-5.55,0-7.39-2.97-7.39-7.95v-14.97h-4.39V326.56z"/>
		<path d="M285.89,340.74c0,8.61-5.15,14.95-14.17,14.95c-8.83,0-13.98-6.3-13.98-14.8c0-8.78,5.31-14.99,14.35-14.99
			C280.47,325.9,285.89,331.81,285.89,340.74z M265.74,340.79c0,5.48,2.36,8.73,6.15,8.73c3.86,0,6-3.25,6-8.68
			c0-5.96-2.19-8.77-6.11-8.77C268.13,332.07,265.74,334.77,265.74,340.79z"/>
		<path d="M330.73,314.88v32.32c0,2.59,0,5.22,0.05,7.82h-7.58c-0.16-0.85-0.31-2.33-0.36-2.97c-1.38,2.24-3.83,3.63-8.08,3.63
			c-7.2,0-11.78-5.78-11.78-14.66c0-8.76,4.87-15.13,12.93-15.13c4.09,0,6.29,1.44,6.93,2.72v-13.74H330.73z M311.09,340.82
			c0,5.55,2.16,8.55,6.02,8.55c5.42,0,6.04-4.52,6.04-8.61c0-4.87-0.69-8.55-5.84-8.55C313.18,332.21,311.09,335.44,311.09,340.82z"
			/>
		<path d="M343.99,342.48c0.01,3.56,1.79,7.04,5.71,7.04c3.28,0,4.22-1.32,4.97-3.04h7.89c-1.01,3.48-4.12,9.21-13.06,9.21
			c-9.38,0-13.44-7.01-13.44-14.48c0-8.93,4.58-15.31,13.72-15.31c9.78,0,13.1,7.07,13.1,14.18c0,0.96,0,1.59-0.1,2.4H343.99z
			 M354.99,337.64c-0.05-3.31-1.38-6.1-5.22-6.1c-3.78,0-5.3,2.6-5.61,6.1H354.99z"/>
		<path d="M368.25,355.02v-40.14h7.88v40.14H368.25z"/>
		<path d="M396.57,333.73c0-2.42,0-5.07-0.06-7.17h7.63c0.16,0.73,0.26,2.71,0.3,3.63c0.97-1.79,3.27-4.29,8.26-4.29
			c5.72,0,9.43,3.86,9.43,11.02v18.11h-7.88v-17.23c0-3.2-1.07-5.52-4.54-5.52c-3.35,0-5.26,1.86-5.26,6.89v15.86h-7.88V333.73z"/>
		<path d="M429.13,314.88h7.88v7.03h-7.88V314.88z M429.13,326.56h7.88v28.46h-7.88V326.56z"/>
		<path d="M449.38,326.56c2.71,9.64,4.97,18.07,5.53,21.5h0.05c0.8-4.7,3.59-13.28,6.07-21.5h7.85l-10.05,28.46h-8.29l-9.64-28.46
			H449.38z"/>
		<path d="M479.07,342.48c0.01,3.56,1.79,7.04,5.71,7.04c3.28,0,4.22-1.32,4.97-3.04h7.89c-1.01,3.48-4.12,9.21-13.06,9.21
			c-9.38,0-13.44-7.01-13.44-14.48c0-8.93,4.58-15.31,13.72-15.31c9.78,0,13.1,7.07,13.1,14.18c0,0.96,0,1.59-0.1,2.4H479.07z
			 M490.06,337.64c-0.05-3.31-1.38-6.1-5.22-6.1c-3.78,0-5.3,2.6-5.61,6.1H490.06z"/>
		<path d="M503.32,355.02v-40.14h7.88v40.14H503.32z"/>
		<path d="M557.71,314.88v32.32c0,2.59,0,5.22,0.05,7.82h-7.58c-0.16-0.85-0.31-2.33-0.36-2.97c-1.38,2.24-3.83,3.63-8.08,3.63
			c-7.2,0-11.78-5.78-11.78-14.66c0-8.76,4.87-15.13,12.93-15.13c4.09,0,6.29,1.44,6.93,2.72v-13.74H557.71z M538.07,340.82
			c0,5.55,2.16,8.55,6.02,8.55c5.42,0,6.04-4.52,6.04-8.61c0-4.87-0.69-8.55-5.84-8.55C540.16,332.21,538.07,335.44,538.07,340.82z"
			/>
		<path d="M570.97,342.48c0.01,3.56,1.79,7.04,5.71,7.04c3.28,0,4.22-1.32,4.97-3.04h7.89c-1.01,3.48-4.12,9.21-13.06,9.21
			c-9.38,0-13.44-7.01-13.44-14.48c0-8.93,4.58-15.31,13.72-15.31c9.78,0,13.1,7.07,13.1,14.18c0,0.96,0,1.59-0.1,2.4H570.97z
			 M581.96,337.64c-0.05-3.31-1.38-6.1-5.22-6.1c-3.78,0-5.3,2.6-5.61,6.1H581.96z"/>
		<path d="M595.23,355.02v-40.14h7.88v40.14H595.23z"/>
		<path d="M623.5,333.89c0-2.46,0-4.9-0.05-7.34h7.54c0.1,0.69,0.26,2.28,0.3,3.39c1.45-2.12,3.73-4.05,7.91-4.05
			c4.09,0,6.34,2.12,7.34,4.33c1.67-2.33,4.12-4.33,8.77-4.33c4.96,0,9.02,3.05,9.02,10.45v18.67h-7.69v-17.71
			c0-2.57-0.93-5.08-4.16-5.08c-3.35,0-4.66,2.16-4.66,6.53v16.27h-7.73v-17.42c0-2.95-0.73-5.33-4.09-5.33
			c-3.21,0-4.72,1.97-4.72,6.85v15.9h-7.78V333.89z"/>
		<path d="M695.01,347.67c0,2.71,0.22,6.67,0.38,7.35h-7.53c-0.22-0.56-0.38-2.06-0.4-2.78c-1.03,1.6-2.97,3.44-8,3.44
			c-6.86,0-9.76-4.51-9.76-8.93c0-6.48,5.21-9.48,13.55-9.48c1.39,0,3.11,0,4.06,0v-1.74c0-2.02-0.73-4.01-4.38-4.01
			c-3.33,0-4.06,1.41-4.42,3.48h-7.49c0.43-5.06,3.56-9.15,12.21-9.1c7.62,0.05,11.77,3.03,11.77,9.8V347.67z M687.33,342.06
			c-0.66,0-2.17,0-3.21,0c-4.75,0-6.51,1.45-6.51,4.19c0,2.06,1.26,3.8,4.1,3.8c5.01,0,5.62-3.48,5.62-7.24V342.06z"/>
		<path d="M702.14,334.28c0-2.83-0.01-5.34-0.05-7.72h7.73c0.1,0.64,0.21,3.46,0.21,5c1.26-3.25,4.29-5.63,9.13-5.66v7.52
			c-5.72-0.15-9.13,1.39-9.13,9.19v12.41h-7.88V334.28z"/>
	</g>
</g>
<g>
	<g>
		<path d="M330.42,102.15l-4.62,13.7h-12.6l20.13-59.29h16.1l21,59.29h-13.48l-4.87-13.7H330.42z M349.33,91.64
			c-4.21-12.51-6.89-20.51-8.32-25.84h-0.09c-1.46,5.84-4.42,15.15-7.8,25.84H349.33z"/>
		<path d="M390.52,56.56v35.33c0,11.38,5.85,14.75,12.24,14.75c7.34,0,11.94-3.99,11.94-14.75V56.56h12.83v34.69
			c0,20.27-11.87,25.44-24.94,25.44c-13.38,0-24.91-5.39-24.91-25.19V56.56H390.52z"/>
		<path d="M490.52,93.61c0-10.12,0.16-21.46,0.42-28.16h-0.41c-2.79,12.1-8.71,31.85-14.4,50.4h-10.92
			c-4.32-16.22-10.45-38.72-13.05-50.56h-0.4c0.51,6.96,0.75,19.16,0.75,29.33v21.24h-11.68V56.56h19.08
			c4.62,15.49,9.8,34.92,11.58,43.76h0.1c1.45-7.79,7.96-28.57,12.91-43.76h18.39v59.29h-12.37V93.61z"/>
		<path d="M557.82,90.28h-28.35v15.06h31.28l-1.52,10.51h-42.2V56.56h42.04v10.51h-29.6v12.7h28.35V90.28z"/>
		<path d="M570.17,115.85V56.56h15.89c7.41,13.31,21.09,37.32,23.82,43.78h0.16c-0.67-6.19-0.66-16.48-0.66-26.21V56.56H621v59.29
			h-15.07c-6.37-11.58-21.54-39.17-24.47-46.02h-0.16c0.43,5.19,0.57,17.37,0.57,27.98v18.03H570.17z"/>
		<path d="M646.94,67.06h-18.01V56.56h48.79v10.51h-17.95v48.78h-12.83V67.06z"/>
		<path d="M740.25,86c0,16.5-9.91,30.71-29.16,30.71c-18.61,0-28.35-13.52-28.35-30.5c0-17.25,10.76-30.51,29.17-30.51
			C729.26,55.7,740.25,67.85,740.25,86z M695.98,85.94c0,11.57,5.08,20.33,15.59,20.33c11.4,0,15.44-9.55,15.44-20.11
			c0-11.22-4.6-20.03-15.65-20.03C700.65,66.13,695.98,74.4,695.98,85.94z"/>
		<path d="M772.27,56.56h23.51c17.27,0,28.55,11.37,28.55,28.9c0,17.29-10.95,30.39-29.09,30.39h-22.97V56.56z M785.09,105.49h9.61
			c11.37,0,16.39-8.45,16.39-20c0-9.69-4.71-18.58-16.32-18.58h-9.69V105.49z"/>
		<path d="M876.36,90.28H848v15.06h31.28l-1.52,10.51h-42.2V56.56h42.04v10.51H848v12.7h28.35V90.28z"/>
		<path d="M888.71,56.56h12.82v48.78h29.53l-1.47,10.51h-40.89V56.56z"/>
		<path d="M959.92,115.85V56.56h15.89c7.41,13.31,21.09,37.32,23.82,43.78h0.16c-0.67-6.19-0.66-16.48-0.66-26.21V56.56h11.62v59.29
			h-15.07c-6.37-11.58-21.54-39.17-24.47-46.02h-0.16c0.43,5.19,0.57,17.37,0.57,27.98v18.03H959.92z"/>
		<path d="M1037.67,56.56v59.29h-12.82V56.56H1037.67z"/>
		<path d="M1065.69,115.85l-20.92-59.29h13.77l8.82,27.39c2.67,8.28,4.71,15.32,6.08,21.38h0.17c1.21-5.53,3.53-12.78,6.35-21.18
			l9.25-27.58h13.08l-21.48,59.29H1065.69z"/>
		<path d="M1150.18,90.28h-28.35v15.06h31.28l-1.52,10.51h-42.2V56.56h42.04v10.51h-29.6v12.7h28.35V90.28z"/>
		<path d="M1162.53,56.56h12.82v48.78h29.53l-1.47,10.51h-40.89V56.56z"/>
		<path d="M1233.74,56.56h23.51c17.27,0,28.55,11.37,28.55,28.9c0,17.29-10.95,30.39-29.09,30.39h-22.97V56.56z M1246.56,105.49
			h9.61c11.37,0,16.39-8.45,16.39-20c0-9.69-4.71-18.58-16.32-18.58h-9.69V105.49z"/>
		<path d="M1337.83,90.28h-28.35v15.06h31.28l-1.52,10.51h-42.2V56.56h42.04v10.51h-29.6v12.7h28.35V90.28z"/>
		<path d="M1350.18,56.56H1363v48.78h29.53l-1.47,10.51h-40.89V56.56z"/>
		<path d="M1471.08,93.61c0-10.12,0.16-21.46,0.42-28.16h-0.41c-2.79,12.1-8.71,31.85-14.4,50.4h-10.92
			c-4.32-16.22-10.45-38.72-13.05-50.56h-0.4c0.51,6.96,0.75,19.16,0.75,29.33v21.24h-11.68V56.56h19.08
			c4.62,15.49,9.8,34.92,11.58,43.76h0.1c1.45-7.79,7.96-28.57,12.91-43.76h18.39v59.29h-12.37V93.61z"/>
		<path d="M1508.69,102.15l-4.62,13.7h-12.6l20.13-59.29h16.1l21,59.29h-13.48l-4.87-13.7H1508.69z M1527.6,91.64
			c-4.21-12.51-6.89-20.51-8.32-25.84h-0.09c-1.46,5.84-4.42,15.15-7.8,25.84H1527.6z"/>
		<path d="M1569.28,92.12v23.73h-12.53V56.56h26.05c12.93,0,19.89,7.12,19.89,16.28c0,7.96-4.33,12.26-8.62,14.03
			c2.94,1.08,7.37,4.14,7.37,14.75v2.93c0,3.99,0.03,8.53,0.85,11.3h-12.15c-1.04-2.58-1.24-7.02-1.24-13.31v-0.87
			c0-6.48-1.64-9.55-11.19-9.55H1569.28z M1569.28,81.91h10.75c7.02,0,9.73-2.67,9.73-7.63c0-4.82-3.15-7.52-9.42-7.52h-11.05V81.91
			z"/>
	</g>
</g>
<line class="st17" x1="1296.25" y1="984.04" x2="1199.25" y2="985.04"/>
<line class="st17" x1="627.75" y1="921.54" x2="627.75" y2="839.54"/>
<line class="st17" x1="247.75" y1="516.54" x2="247.75" y2="743.54"/>
<line class="st17" x1="699.75" y1="534.54" x2="699.75" y2="748.54"/>
<ellipse class="st17" cx="1131.25" cy="982.04" rx="65.5" ry="55.5"/>
</svg>
