<svg id="Capa_1" data-name="Capa 1" xmlns="http://www.w3.org/2000/svg" xmlns:xlink="http://www.w3.org/1999/xlink" viewBox="0 0 1920 1080"><defs><style>.cls-1{fill:url(#Degradado_sin_nombre_5);}.cls-2,.cls-21,.cls-7{fill:none;stroke-miterlimit:10;}.cls-2,.cls-7{stroke:#000;}.cls-3{fill:#5e7059;}.cls-4{fill:#fff;}.cls-5{fill:#b9539a;}.cls-6{fill:#e3bad7;}.cls-7{stroke-width:5px;}.cls-8{fill:#0b090b;}.cls-9{fill:#b55298;}.cls-10{fill:#faf9fa;}.cls-11{fill:#090408;}.cls-12{fill:#e0dfdf;}.cls-13{fill:#0f060e;}.cls-14{font-size:34px;}.cls-14,.cls-17{font-family:DidactGothic-Regular, Didact Gothic;}.cls-15{letter-spacing:-0.01em;}.cls-16{letter-spacing:-0.03em;}.cls-17,.cls-19{font-size:55px;}.cls-18{letter-spacing:-0.02em;}.cls-19,.cls-20{font-family:OpenSans-Bold, Open Sans;font-weight:700;}.cls-20{font-size:86px;}.cls-21{stroke:#e3bad7;stroke-width:3px;}</style><linearGradient id="Degradado_sin_nombre_5" x1="960.25" y1="877.04" x2="960.25" y2="0.04" gradientUnits="userSpaceOnUse"><stop offset="0" stop-color="#fff"/><stop offset="0.04" stop-color="#f6f7f5"/><stop offset="0.28" stop-color="#c0c7be"/><stop offset="0.51" stop-color="#96a292"/><stop offset="0.71" stop-color="#778773"/><stop offset="0.88" stop-color="#657760"/><stop offset="1" stop-color="#5e7159"/></linearGradient></defs><rect class="cls-1" x="-2.75" y="0.04" width="1926" height="877"/><rect class="cls-2" x="1917.25" y="438.04" height="1"/><rect class="cls-3" x="-0.75" y="827.04" width="1920" height="253"/><path class="cls-4" d="M1937.81,841.62a20.21,20.21,0,0,0-5.41-5.68,20,20,0,0,0,1.22-12.62q-3.18-14.73-5.71-29.59c.1-.38.2-.76.29-1.14a350.38,350.38,0,0,0,7.5-44.93c3-28.07,3.06-56.41,2.28-84.59q-1.43-51-7.92-101.71c-.1-.75-.22-1.49-.37-2.22a21.47,21.47,0,0,0,5.22-12.55,575.53,575.53,0,0,0,1.91-82.73c-.42-8.69-6.71-17.1-15.5-18.35a16,16,0,0,0-5.07-2.12c-33.16-7.55-67.21-10-101.11-11.5l-12.05-.49a378.65,378.65,0,0,0-118.88-11.52c-8.56-.8-17-.46-25,2.48-8.46,3.11-14.16,10.25-13.33,19.42a15.66,15.66,0,0,0-2.21,3.2l-.51,1-.3-.1a103.15,103.15,0,0,1-10-3.18c.34.11-.29-.18-1.16-.56l-4.21-3.51c-3.38-2.81-6.87-4.85-11.17-5.32a2.77,2.77,0,0,0-.3-.19c-2.94-2.36-5.7-4.94-8.61-7.34-14.5-11.94-32.49-19.17-49.17-27.57a21.65,21.65,0,0,0-4.27-1.57,17.26,17.26,0,0,0-12.12-4.66c-26.39.47-52.78.86-79.17,1.44a436.75,436.75,0,0,0-44.79,2.82,17.81,17.81,0,0,0-14.68-2.31,41.23,41.23,0,0,0-15.57,8.29l-.43.11c-5.79,1.66-11.47,3.66-17.22,5.45-2.58.8-5.17,1.57-7.78,2.25-1.45.37-2.9.72-4.37,1-.18,0-3.81.66-3.38.66-12,1.33-24.39-.67-36,3.8-5.54,2.14-10.43,5.15-15.66,7.83,1.45-.78-2.38.89-2.82,1-1.09.31-2.21.57-3.33.8-.68.14-1.38.25-2.08.36-.37,0-3.56.34-4.12.38-12.58,1-25.17,1.84-37.76,2.75l-21.5,1.57c-7.18.52-14.62.88-21.43,3.35-8.43,3.05-14.9,8.54-21.57,14.36l-15.28,13.33L1146.79,468a18.27,18.27,0,0,0-17.6,8.89c-1.34,2.29-2.74,4.54-4.26,6.73-.76,1.09-1.55,2.16-2.35,3.23l-.52.62c-3.62,4.28-7.35,8.42-11.24,12.45-7.63,7.89-15.59,15.46-22.73,23.8-8.4,9.82-14.65,20.73-21.95,31.29-.87,1.26-1.76,2.49-2.67,3.71-.15.18-.33.41-.54.65-2,2.38-4,4.72-6.16,7q-2.93,3.06-6,5.91c-1,1-2.1,1.88-3.17,2.79-.56.48-4.38,3.56-1.52,1.35A23.93,23.93,0,0,0,1037.3,589a18.8,18.8,0,0,0,0,18.28,341.34,341.34,0,0,0,18.22,30.06c2.45,3.59,4.94,7.19,7.55,10.69-2,.53-4.08,1.08-6.11,1.67-6.58,1.94-13.83,3.95-19.7,7.52a32.82,32.82,0,0,0-9.75,9.53,27.11,27.11,0,0,0-2.09,3.31v0c-4.37,3.36-7.53,8.08-7.79,13.55a272.69,272.69,0,0,0-65.3,8.37c-13.52,3.43-30.47,6.83-34.58,22.34-1.92,7.26.74,15,5,22.26q-35.38,20.05-69.57,42.13a19.68,19.68,0,0,0-8,9.9l-139.71,4.61-89.74,3c-14.39.48-28.79,1.1-43.19,1.26-7.09.08-14.19,0-21.28-.3q-4.83-.21-9.64-.61-2.89-.24-5.77-.56c-.29,0-4.15-.56-3.63-.47-15.19-2.35-30.23-6.13-45.67-6.41-13.65-.24-27.41,1.82-40.75,4.74a14.19,14.19,0,0,0-7.36-1.33Q413,795,387.68,799.26l-1.95-.19s-3.36-.52-3.5-.54c-6-1.09-11.79-2.66-17.78-3.55-8.13-1.21-15.74-1.68-23.86.19-6.84,1.57-12.64,5.26-18.15,9.4l-.57.41c-.46-.07-.92-.13-1.39-.16a80.66,80.66,0,0,0-30.28,3.52c-.31.09-.61.21-.92.32L277.13,808c-8.06-.46-16.12-.85-24.16-1.43-2.16-.16-4.31-.33-6.46-.54l-3.71-.44-1.46-.22c-1.22-.21-2.43-.44-3.64-.68-1.79-.37-3.58-.79-5.35-1.26-14.48-3.85-27.8-11-42.19-15.11-18.08-5.19-35.76-5-53.11,2.35a10.58,10.58,0,0,0-1.26.63l-.49.11c-1.65-.2-3.3-.37-5-.54a20.77,20.77,0,0,0-15.15-2.63l-7.27,1.32c-1.68,0-3.36,0-5,0-34.13.11-68,6-101.57,11.68-9.56,1.64-15.78,13.91-12.92,22.76a18.68,18.68,0,0,0,7.94,10.47,21.39,21.39,0,0,0,4,7.34c-2.5,5.35-3.13,12-3.12,18.36-5.54,3.35-9.52,9.61-9.23,16,.47,10.43,8.13,18,18.5,18.5,10.69.52,18.32-5.47,27-10.53l.34-.11a32.23,32.23,0,0,1,3.34-.76c-4,.82,3-.23,3.74-.29,2.42-.19,4.84-.38,7.27-.38,1.13,0,2.26,0,3.39.08a31.88,31.88,0,0,0,3.88,1.06,69.91,69.91,0,0,0,7.17,3c6.28,1.9,12.54,1.64,18.91.65a102,102,0,0,0,12.29-3c2.07-.59,4.15-1.07,6.22-1.62l.37-.06.53,0a20.41,20.41,0,0,0,8.06,2q14.9.69,29.77,1.85c12.09,7.85,30.54,6.19,44,6.67l21.35.76,6.08,1a24.8,24.8,0,0,0,9.71-.39l20.48.73c18.57.66,37.17,1.73,55.75,1.75,18.35,0,37.25-1.57,54.54-8.09a23.66,23.66,0,0,0,3.34-1.58q6.58.75,13.19,1.38a20,20,0,0,0,9.36,2.76l28.72,1.3c2.46.11,4.93.21,7.39.36.54,0,5.35.52,5.16.42,4,.65,8,1.68,12,2.45,19.07,3.67,39,1.11,55.05-10.36a29.13,29.13,0,0,0,3.63,1.39,39,39,0,0,0,6.61,1,28.35,28.35,0,0,0,8.84-.91,14.59,14.59,0,0,0,3.25-1.22c4.48,1.15,8.89,2.55,13.35,3.77,10.73,2.92,21.87,4.42,32.75,1.89l4.1,3.24A14.2,14.2,0,0,0,560.2,897c10.75.21,21.46,1.07,32.15,2.13,4.68,0,9.36-.13,14-.14a2.73,2.73,0,0,1,1.15.25,123.67,123.67,0,0,1,14-.39c-2-5.2-6.4-9.17-12.31-11.61,3.35,1.38-2.9-1.46-3.48-1.77-2.06-1.07-4.08-2.21-6-3.44-1.73-1.07-3.41-2.21-5.06-3.39.72.46-3.3-2.69-3.73-3.07a21.7,21.7,0,0,0-3.94-2.71,12.27,12.27,0,0,0-3.34-4.29l-9.12-7.23a14.33,14.33,0,0,0-2-1.76,18.43,18.43,0,0,0-1.68-3.39q6.78-.22,13.61-.86c15.16-1.4,30.32-3.57,45.58-3.16s30.33,3.45,45.61,3.58c17.61.16,31.22-4.91,46.24-4.41a16.09,16.09,0,0,0,5.47-.8C731.24,852,735,853.79,739,855a74.82,74.82,0,0,0,21.76,3l2.37,0c.51.05,1,.09,1.56.09l5.94,0c12.53,1.81,25.3,3.83,38,2.72a98.14,98.14,0,0,0,20.27-3.82c2.91-.88,5.79-1.87,8.75-2.6.75-.18,1.53-.38,2.3-.54-.35.18,3.19.06,3.44.07h.85c11.86,1,23.67,0,35.49-1a17.2,17.2,0,0,0,12.64,5.16l42.13-.89a19.19,19.19,0,0,0,6.63-1.33q17.14-.66,34.31-.29a22.91,22.91,0,0,0,4,1.85c21,7.37,43.12,6.92,64.85,4.2,1.66.27,3.44.56,5.41.9,6,1,12.44-.26,17-3.9a39.78,39.78,0,0,0,22.79,4.1c4.26-.45,8.46-1.2,12.67-2l.48-.09c2.6.09,5.21.06,7.8-.09,4.24,2.87,9.71,3.76,15.59,2.94l5.23-.72a13.74,13.74,0,0,0,5.19.45,390.11,390.11,0,0,1,45.09-1.92,18.07,18.07,0,0,0,11.08,3.83l39.57.36a18,18,0,0,0,13.32-5.85c5.71,4.07,14.42,5.51,20.94,5.86a54.83,54.83,0,0,0,13.2-.73,20.29,20.29,0,0,0,5.64-.54q8.9-2.13,17.9-3.74c12.06,4.78,24.94,4,37.92,2.78l3.52-.32a21.68,21.68,0,0,0,4.09.63,119.76,119.76,0,0,0,18.93-.44l119.67-2.79c.78.16,1.56.31,2.37.42,16.35,2.19,32.69,1.7,49,.67,9.32,4.22,19.64,3.83,29.82,2.91a107.26,107.26,0,0,1,15.73,0h.16l.23.06c1.45.35,2.93.55,4.38.88a84.91,84.91,0,0,1,8.56,2.54c5.94,2.07,12.86-.08,17.57-4.38,40.87,12,84.9,9.66,127,6.9a20.59,20.59,0,0,0,2.7-.36q4.39-.3,8.81-.48a201.49,201.49,0,0,0,36.89,1.77,21.73,21.73,0,0,0,6.56,1.44c22.71,1.41,45.42,3.1,68.15,4.18s44.93-.64,65.89-10.11C1940,862.93,1942.83,849.41,1937.81,841.62ZM953.43,714.88l-.07-.11c-1.12-1.9-1.1-2,.07-.4Zm72.46-45.13a10.65,10.65,0,0,1,5.47-3.08A27.25,27.25,0,0,0,1025.89,669.75Zm619.43,145c0-.23,0-.46,0-.7-.19-3.55-.34-7.1-.51-10.65.31,1.06.6,2.12.91,3.17a18.56,18.56,0,0,0,4.73,8Z"/><path class="cls-4" d="M1156.86,984.28c-16.37,3.49-33.62,9.52-50.07,3.32a6.46,6.46,0,0,0-4.42,0c-5.59-.87-11.33-1.62-16.71-.34-3.51.84-6.94,2.15-10.38,3.25l-5.47,1.75-3.65,1.17a7.54,7.54,0,0,0-1.73.3c-7.22-2.36-15.11,7-8.35,13.06,7.6,6.75,17.9.93,26.19-1.73,4.28-1.37,7.79-2.74,12.32-2.29,3.85.38,7.69.93,11.53,1.44,18.12,5.25,37.06-.68,55-4.51C1171.18,997.57,1166.92,982.14,1156.86,984.28Z"/><path class="cls-4" d="M1120.08,956.32a8.08,8.08,0,0,0-3.1.58,7.62,7.62,0,0,0-6.08-3.1c-1.3,0-2.6-.07-3.89-.12a6.44,6.44,0,0,0-3.08-3.16l-21.8-10a97.94,97.94,0,0,0-13.33-5.36,11.35,11.35,0,0,0-3-2.39c-4.75-2.79-10.66-.89-15.59.29a150.23,150.23,0,0,0-16.22,4.83,163.5,163.5,0,0,0-30.23,14.59q-3.1.15-6.19.39l-8-2.85a6.63,6.63,0,0,0-3.89-.14c-1.58-3.45-4.49-5.92-8.59-5.3a8.35,8.35,0,0,0-3.32,1.26l-.26,0a10,10,0,0,0-2.75.4c-3-5.08-11-3.9-13.89,1.13a6.66,6.66,0,0,0-6.75.63q-6.6,4.49-13,9.31c-3.44,2.6-5.24,6.9-2.87,11,2,3.38,7.48,5.49,10.94,2.87,1.21-.92,2.44-1.8,3.66-2.7A8,8,0,0,0,959.33,970a7.7,7.7,0,0,0,8.51,3.44q6.51-1.5,13.06-2.56c3.76,3.92,9.71,2.44,12.36-1.64,1-.09,1.89-.19,2.84-.27a6.54,6.54,0,0,0,2.64-.22c1.72-.13,3.44-.23,5.16-.32a6.67,6.67,0,0,0,4.39-.17q7.1-.21,14.22,0c7.17,2.92,14.83,2.37,22.22.66a8.16,8.16,0,0,0,2.84.41q31.67-.72,63.33.44a8,8,0,0,0,3-.43,7.3,7.3,0,0,0,6.15,3C1130.37,972.32,1130.39,956.32,1120.08,956.32Z"/><path class="cls-5" d="M363.77,785.06a5.13,5.13,0,0,0,1.63-4.71c-2-12.67-5.91-26.62-2.7-39.33,1-4-2.53-6.49-5.64-6.19a5.91,5.91,0,0,0,.52-3q-3.63-32-5-64.14c6.41-3.13,4.93-14.41-3.75-15.19a138.39,138.39,0,0,0-24.93,0c-4.3.38-8,3.4-8,8a7.91,7.91,0,0,0,.84,3.42,229.34,229.34,0,0,0-.07,68.21,8,8,0,0,0-2.94,5.58h-6.54a7.29,7.29,0,0,0-3.63-4.24,7.35,7.35,0,0,0,.33-2.1c0-4.79-3.69-7.44-8-8a83.27,83.27,0,0,0-38.65,4.16,8,8,0,0,0-4,3c-1.17-3.08-2.5-6-3.48-8.37A134.24,134.24,0,0,0,237.63,699c0-.14-.08-.27-.13-.4-1.05-2.9-2.15-5.79-3.28-8.66,1.82-2.53,2.4-6.15.52-8.74-5.69-7.86-8.91-17.46-7.59-27.24.66-4.83-1.94-10.4-7.71-10.13l-26.67,1.25-.23,0c-2.74-3.66-8.18-5.29-11.77-1.21a8.88,8.88,0,0,0-1.29-.1c-8.68,0-10,11.37-4.09,14.94-6.64,21.17-16.24,41.31-25.65,61.4a465.08,465.08,0,0,1-50.23,1.67c-4.56-.09-7.67,3.76-8,8a284.84,284.84,0,0,0,.38,48.52c.52,5.6,4.66,8.55,10.12,7.71a400.46,400.46,0,0,1,80.91-4,9.07,9.07,0,0,0,3.8,2.51,495.37,495.37,0,0,0,53.9,16.15,7.55,7.55,0,0,0,8-2.65,45.36,45.36,0,0,0,14.1-.22c1.69,3.43,5.51,4.78,9.28,4.13,3-.51,5.92-.9,8.89-1.23a7.65,7.65,0,0,0,6.89,4.51c7.95.34,18.66,1.13,26.49-2.53a8.65,8.65,0,0,0,5.13-.94l.23-.11a16.16,16.16,0,0,1,2.66-.66h-.1a7.87,7.87,0,0,0,4.41-2.16,5.71,5.71,0,0,0,.51-.58c.54-.07,1.08-.15,1.63-.25a7.47,7.47,0,0,0,3.59-1.68,8.3,8.3,0,0,0,2.41.34,8,8,0,0,0,3.65-.83,8.78,8.78,0,0,0,2.47.45,102.45,102.45,0,0,0,17.41-1.17c4.28-.62,6.63-6.05,5.59-9.84C363.82,785.19,363.79,785.13,363.77,785.06ZM182.88,693.74a7.82,7.82,0,0,0-2.1-3.47c.31-.76.63-1.52.94-2.27.45,1.92.89,3.84,1.34,5.76Zm80.63,69.88a84.73,84.73,0,0,0-5.19-20.2,7.88,7.88,0,0,0,3.21-.47c.78-.28,1.57-.52,2.35-.77-.34,9,.64,17.89,1.59,26.82Q264.58,766.27,263.51,763.62ZM283,751.78c.07-.65.41-1.66.55-2.51,1,0,2-.25,2.93-.31l3.3-.2c1.78-.94,4.54-.1,4.54,2.52V758c0,3.6-5.2,3.84-5.91.73l-2.68.18a5.13,5.13,0,0,0-2.77,1c-.11-1.29-.17-2.58-.17-3.88S282.85,753.19,283,751.78Zm1.28,29a8.91,8.91,0,0,0-1.73-.25c-.32-4.47-.81-8.94-1.28-13.41a3.65,3.65,0,0,0,.31-.24,4.18,4.18,0,0,0,4.15,2l8-.53q.53,6.32,1,12.64A32.5,32.5,0,0,1,284.27,780.78Zm18.41-25-.56-6.93c0-.16,0-.3-.06-.45a7.37,7.37,0,0,0,1.89-.74c.21,0,.42,0,.64,0h7.9a57.19,57.19,0,0,0,.07,6.93c3,.79,2.74,5.88-.82,5.88H305.1C302.38,760.51,301.58,757.56,302.68,755.79ZM314.33,781a3.68,3.68,0,0,0-.82,1.15c-3-.5-5.92-1.13-8.79-1.43l-1.06-13,3-.2c1-.07,6.32.14,5.18-.89a5,5,0,0,0,2.45,1.25c.64,4,1.28,8.07,1.58,12.14A3.64,3.64,0,0,0,314.33,781Zm8.17-33.82a5,5,0,0,0,0-.67,8.5,8.5,0,0,0,.88-.15,4.8,4.8,0,0,0,2.64.79h6.28c.28,3.12.71,6.24,1.14,9.37a3.31,3.31,0,0,1,.28,3.49,3.08,3.08,0,0,1-4.1,1.07c.61.28.2.15-.12,0-.07,0-.64-.1-.75-.1-.74-.05-1.48-.05-2.21-.05a3,3,0,0,1-2.83-2.12,5.2,5.2,0,0,0-.73.24A64.09,64.09,0,0,1,322.5,747.22Zm12,33.45a7.34,7.34,0,0,0-5.35,2.29,8,8,0,0,0-3.1-.54c0-1.17-.13-2.34-.23-3.5-1.81-1.13-2.21-4.26-2.23-6.09a2.83,2.83,0,0,1,1.15-2.32c-.09-.61-.19-1.22-.29-1.83.2,0,.4,0,.6,0a57.83,57.83,0,0,0,9.73-1.07A57.47,57.47,0,0,1,334.46,780.67Zm17.34-34.29a75.35,75.35,0,0,0,.41,14.54,31,31,0,0,0-8.6-1.74c-.5-4.15-1-8.3-1.36-12.49A64.83,64.83,0,0,0,351.8,746.38Zm2.2,33.3a63.58,63.58,0,0,1-7.17.59c-1.71,1.21-4.81.43-4.9-2.33-.07-2.22-.49-4.42-.51-6.64,0-2.9,3.31-3.61,5-2.17a3.1,3.1,0,0,1,2.06-.83,5.51,5.51,0,0,1,2.71.56,3.48,3.48,0,0,1,1.62,2.12,4.66,4.66,0,0,0,.83-.15c.5,2.94,1,5.85,1.53,8.74C354.79,779.59,354.4,779.62,354,779.68Z"/><path class="cls-3" d="M235,602a8.12,8.12,0,0,0,2.17-5.41,5,5,0,0,0,1-2.91,5.08,5.08,0,0,0-1.47-3.53,5.24,5.24,0,0,0-6.38-.62c-.15,0-.29,0-.44,0a1.46,1.46,0,0,0-.22,0c-.18-2.65-.79-5.11-2.4-6.79-4.41-4.58-10-.57-11.74,4.08a1,1,0,0,0-.05.12l-.82.23-.45.18a4.77,4.77,0,0,0-1.91-1.45,14.53,14.53,0,0,0-.77-14.15c-.13-.19-.27-.37-.41-.54a6.58,6.58,0,0,0,.29-.78,7.69,7.69,0,0,0-3.78-9.48c-3-1.44-5.79-.81-8.34.64a12.57,12.57,0,0,0-2.8-4.86,4.94,4.94,0,0,0-6.53-.41A5.14,5.14,0,0,0,183,558a9.65,9.65,0,0,0-6.6-2.51,4.47,4.47,0,0,0-4.12,2.22,6.23,6.23,0,0,0-2.33,1.14c-5.12,4-4,9.72-1.07,14.35-3.17,1.3-5.91,3.84-6,7.35-.13,3.72,2.68,5.52,5.88,6.37a8.26,8.26,0,0,0,.85,2.6,7.68,7.68,0,0,0,6.61,4.07c3.21-.07,5.15-1.93,6.37-4.39a5.39,5.39,0,0,0,.86,1c3,2.79,5.48,6.33,10.18,5.26,3.76-.86,5.52-4.34,6.39-7.79.4.25.79.48,1.17.68a12.33,12.33,0,0,0,3.54,1.26c-1.48,4.29-2.28,9.73.55,13.57a8,8,0,0,0,1.7,1.68c-.68,4-.28,8,4.67,8.93a6.82,6.82,0,0,0,5.31-1.14,7.64,7.64,0,0,0,1.21,1.2c3.48,2.77,7.81,2.25,11.64.52s7.38-4.62,6.59-9.22A6.75,6.75,0,0,0,235,602Z"/><path class="cls-5" d="M646.05,772.82c-1.87-4.6-7.34-7.3-11.85-4.44a5.3,5.3,0,0,0-1.31,1.18,5.76,5.76,0,0,0-3.44,3.47c0,.1-.07.21-.11.31a5.26,5.26,0,0,0-6.25-5l-1.43.28c-.69-1.46-1-3.39-1.82-4.61-.21-.32-.43-.62-.67-.92a4.79,4.79,0,0,0,.47-2.32l-.44-13.85c2.06-2.55,1.8-7-2.31-8a73.64,73.64,0,0,0-28.18-1,3.88,3.88,0,0,0-3.56,3.37,4.88,4.88,0,0,0-4.85,4.81,131.21,131.21,0,0,0,.35,15,5,5,0,0,0,2.55,4.06c-1.08,3.43-.62,7.86-.52,10.93.22,6.41,10.22,6.44,10,0,0-1.67.27-3.79.2-5.6.54,0,1.06,0,1.4,0,.88,0,1.77,0,2.66-.07a9.63,9.63,0,0,0-2.17,4.17,10,10,0,0,0,19.35,5.31,9.4,9.4,0,0,0,.37-3.89,7.17,7.17,0,0,0,3.31,2.45c2.64.93,5.31.07,8-.46a4.41,4.41,0,0,0,2.78-1.65c-.58,3.37,0,6.81,2.83,9.28a9.33,9.33,0,0,0,12.68-.37C647.13,782.1,647.64,776.77,646.05,772.82Zm-40.3-14.08a5.38,5.38,0,0,0-1.15.21,35.81,35.81,0,0,1-9,1.48c-1.56,0-3.31-.26-5-.31q-.47-6.24-.32-12.49a5.94,5.94,0,0,0,1.1-.06,58.17,58.17,0,0,1,13.69-.44c0,.12,0,.23,0,.35q.81,5,1.71,10A5.39,5.39,0,0,0,605.75,758.74Z"/><path class="cls-5" d="M767.7,735.88a5.06,5.06,0,0,0-3,.32c-4.74-1.38-10-1.66-14.55-2.15a179.26,179.26,0,0,0-30-.59,5,5,0,0,0-3.09,1.26,6.07,6.07,0,0,0-1,.46c-7.41-3.24-16.53-5.84-21.2-2.77a5.31,5.31,0,0,0-5,2.38l-.55-1a4.91,4.91,0,0,0-6.82-1.67,5.67,5.67,0,0,0-5.74,1,37.41,37.41,0,0,0-7,1.1c-1.61-2.43-5.25-2.26-7.42-.37a5,5,0,0,0-6.73.78,4.57,4.57,0,0,0-1.05.12c-3.3-2.8-8.39-1.92-11.74,1-8.47,7.47-4.59,18.43,2.48,25-2.68,1.66-2.91,5.91-.67,8.05a3.8,3.8,0,0,0,.19,1.11,5.12,5.12,0,0,0,6.15,3.5l3.72-.8a4.1,4.1,0,0,0,1.42-.62,10.3,10.3,0,0,0,.22,5.56,6.27,6.27,0,0,0,.15,6.33c1.88,3.11,5.38,3.38,8.63,3.52s5.95-.65,7.42-3.62a14.92,14.92,0,0,0,1.08-6.2c17.6-2.7,35.57-1.93,53.09-4.9a12.77,12.77,0,0,0-.86,7.61c1.26,6.24,8.34,10.41,14.09,6.79a8.21,8.21,0,0,0,3-3.44,4.76,4.76,0,0,0,3-4.53q0-.39-.09-.78a5.28,5.28,0,0,0,1.89-.06l3.76-.73a13.39,13.39,0,0,0,.49,3.09,7.12,7.12,0,0,0,8.23,4.92,8,8,0,0,0,2.92-1.21,7.76,7.76,0,0,0,1.51.58c4,1.06,6.73-1.22,8.27-4.4a4.27,4.27,0,0,0,2-3.91l-.32-3.14a5.16,5.16,0,0,0,2.28-3,15.58,15.58,0,0,0-.43-8.22c2.88-2.71,4.61-7.23,5-11.1C782.23,742.1,775.9,737.4,767.7,735.88Zm-18.78,26c.32-.17.63-.36.93-.56.3.19.61.34.91.5Z"/><rect class="cls-6" x="386.25" y="914.04" width="492" height="150"/><rect class="cls-6" x="1295.25" y="916.04" width="519" height="136"/><rect class="cls-6" x="524.25" y="415.04" width="354" height="120"/><rect class="cls-6" x="143.25" y="431.04" width="209" height="96"/><path d="M1921.84,869.34c-15.81,1.75-31.65,2.75-47.49,3.23-1.21-50.72,1.7-101.42,5-152,3.42-52.35,7.25-104.73,7.29-157.22a832.62,832.62,0,0,0-4.24-87.78,2.09,2.09,0,0,0-.23-.78,367.27,367.27,0,0,1,39.73-6,2.06,2.06,0,0,0,2-2,2,2,0,0,0-2-2,377.63,377.63,0,0,0-42.83,6.59,1.83,1.83,0,0,0-.8-.75l-31.79-16.07a2,2,0,0,0-2.28.3l-30.54-2.3a2.54,2.54,0,0,0-.91-.6l-52.51-20.63-7.4-2.91c-.59-.24-1.18-.46-1.77-.67l5.68.42c34.2,2.49,68.47,4.53,102.58,8,19.8,2,39.51,4.71,59,8.62,5,1,7.18-6.71,2.13-7.72-33.81-6.77-68.17-9.87-102.51-12.43-35.11-2.62-70.23-5.3-105.36-7.65-20.48-1.37-41-2.2-61.5-.9a4,4,0,0,0-3.73,3.24,4.19,4.19,0,0,0-.86,1.18l-8.37,17.71a4,4,0,0,0-.74-.39,477,477,0,0,1-89.87-49.67,3.4,3.4,0,0,0-3-.59,4.21,4.21,0,0,0-1.84-.59A594,594,0,0,0,1424.86,389h-22.34a3.79,3.79,0,0,0-4.32-.37q-19.67,10.5-40.26,19.05a4.62,4.62,0,0,0-1,.59h-37.68a3.84,3.84,0,0,0-2.32.72,3.78,3.78,0,0,0-2.94.38,193.11,193.11,0,0,0-20.21,12.78,568.34,568.34,0,0,0-86,5.81,3.14,3.14,0,0,0-2.57,1.76l-33,24.73a4.13,4.13,0,0,0-.91.91l-.21,0a246.89,246.89,0,0,0-35.64,9.08,3.41,3.41,0,0,0-3.25,1.2q-53.42,59.13-101.46,122.81a4.35,4.35,0,0,0-2,5.57q11,25.47,21.32,51.22a62.89,62.89,0,0,0-15.44,5.59,3.84,3.84,0,0,0-3.46,1.83,196.73,196.73,0,0,0-13.36,23.74c-27.41,1.24-53.81,9.47-81,12.39a4.13,4.13,0,0,0-.53.11,4,4,0,0,0-3.53.88q-11.57,9.64-23.84,18.36a4.25,4.25,0,0,0-.86,6.07,80.5,80.5,0,0,0,4.93,23.42q-36.37,21.33-71.25,45.1c-.16,0-.32,0-.49,0q-123.72-.4-247.38,4.75l-.3,0a3.63,3.63,0,0,0-2.23.14l-14.06,5.12a4.09,4.09,0,0,0-1.81-.53q-26.08-1.57-52.18-3-12.81-.67-25.61-1.31c-7.53-.38-15.09-.86-22.29,1.74l-106.82.9v-.07l-.27-57.44c0-3.14-3-4.36-5.31-3.67a13.79,13.79,0,0,0-4.34-1.16l.72-74.83a9.67,9.67,0,0,0-5.27-6.18l-22.18.55c-5.28.13-11.91-.78-17,1.18-2.32-.64-5.21.58-5.18,3.69q.44,39.35.85,78.69a6.75,6.75,0,0,0-1.18,0l-3.35.45v-6.42a7.29,7.29,0,0,0-4-6q-22.22-.63-44.44-.22a4.16,4.16,0,0,0-1.56.33c-10.51-24.11-25.67-47.9-22.71-75.26a3.17,3.17,0,0,0-1.59-3.33,3.66,3.66,0,0,0-3.24-1.78l-55.91-.68a3.56,3.56,0,0,0-3.34,1.86,3.82,3.82,0,0,0-.79,3.39c5.6,25.77-8.91,49.67-19,72.29l-.42,1h-.19q-27.54,1.81-55.16,1.37A3.57,3.57,0,0,0,90,721a3.22,3.22,0,0,0-2.69,3.72,422.61,422.61,0,0,1,1.81,60.48,4,4,0,0,0,.23,1.52l-86.06,10c-5,.58-5.11,8.59,0,8l94.92-11q6.51,34.33,11.14,69,1.23,9.29,2.32,18.59a55.8,55.8,0,0,0-18.5.67c-11.42,2.52-21.54,7.12-33.45,4.68-9.8-2-19.56-5.63-29.58-2.62-7.53,2.26-18.72,11.85-26.25,6.21-4.12-3.09-8.12,3.86-4,6.91,6.39,4.79,13.81,2.7,20.52-.25,3.95-1.74,7.76-3.9,11.9-5.16,5.14-1.56,10.32-.85,15.46.3,9.18,2,17.71,4.43,27.19,2.86,10.45-1.72,20.2-6.58,31-6.26,11.37.34,22.71,3.94,33.92,5.7,10.5,1.65,21.06,2.86,31.65,3.75,22.53,1.92,45.14,2.49,67.73,3.26,22.75.78,45.79,2.69,68.54,2.09,10.13-.27,19.48-2.73,29.12-5.64,11.07-3.35,21.28-4.63,32.77-2.68,10.69,1.81,21.14,4.23,32,5.06,10.51.79,21.07,1.16,31.6,1.66s21,.67,31.24-2.06c9.94-2.66,19.53-7.76,30.06-7.36,6,.22,11.87,2,17.75,3,5.7,1,11.44,1.69,17.19,2.23,12.41,1.17,24.88,1.44,37.33,1.62,25.58.36,51.2.29,76.75,1.65,5.15.28,5.13-7.72,0-8s-10.19-.48-15.29-.65a3.34,3.34,0,0,0-1.81-2.36,12.85,12.85,0,0,1-1.78-1,3.55,3.55,0,0,1-.35-.27c-.24-.21-.47-.42-.7-.65s-.42-.45-.62-.68l-.06-.07-.1-.16a15.37,15.37,0,0,1-1.06-2,3.79,3.79,0,0,0-3.66-1.95Q599.45,871.44,581.33,859c22.38-1.9,44.83-.54,67.24.41,11.89.51,23.8.88,35.7.52,11.57-.34,23.14-2.17,34.73-1.83,12.34.36,24.3,4,36.46,5.72A221.49,221.49,0,0,0,791.12,866c24.47-.44,48.09-5.36,72.27-8.27,13.69-1.64,26.77-.48,40.29,1.92,12.34,2.2,24.7,4.54,37.27,3.89a3.46,3.46,0,0,0,3.5.65c19.18-6.1,38.83.18,58,3.25,19.82,3.18,39,.64,58.85-1,20.49-1.65,40.41,1.37,60.8,2.67a187.65,187.65,0,0,0,30.54-.83c10.32-1,20.46-1.8,30.76,0,10.89,1.87,21.4,4.58,32.55,3.49,10.62-1,20.79-4.22,30.87-7.54a4.65,4.65,0,0,0,.88.37,99.94,99.94,0,0,1,17.89,7.18,3.93,3.93,0,0,0,5-1.09,3.2,3.2,0,0,0,4.55,2.21c10.08-4.21,20.76-3.65,31.45-3.1,11.57.59,23.14,1,34.71,1.2q34.74.57,69.45-1.35c22.63-1.25,45.68-5.09,68.34-2.81,11.15,1.12,22.12,3.12,33.36,3.37s22.35-.48,33.53-.75c12.88-.32,25.55.17,38.17,3,10.09,2.27,20.51,4.55,30-.82a3.92,3.92,0,0,0,.84-.63c18.3,3.81,36.8,7.46,55.54,7.6,9.92.07,19.75-1.2,29.63-1.86a280,280,0,0,1,30.66,0c31,1.3,62,3.13,93,3.91a2,2,0,0,0,3.84.09q12.65.29,25.3.3a632.31,632.31,0,0,0,68.8-3.71C1926.9,876.78,1927,868.78,1921.84,869.34ZM575.4,800.24h.09a3.93,3.93,0,0,0,.42.29q-4.23,24.18-9.27,48.2-4.39-3.12-8.75-6.29,3.43-21.4,6.88-42.82C568.32,799.82,571.86,800,575.4,800.24Zm-96.95-3a3.46,3.46,0,0,0,.52-.32c7-2,14.37-1.18,21.6-.82q12.31.61,24.62,1.28,17.79.95,35.59,2-3.24,20.21-6.49,40.4-9.88-7.24-19.57-14.73a3.29,3.29,0,0,0-.33-.23,3.6,3.6,0,0,0-2.3-1.58,254.21,254.21,0,0,0-55.66-6.86l2.25-18.18A1.48,1.48,0,0,0,478.45,797.24Zm-3.66.46a2.78,2.78,0,0,0-.11.5l-2.25,18.16q-3.27,0-6.55.1a4,4,0,0,0-1.39.3l-.39,0q-45,9-89,22.3l-.1,0c-12.46-2-24.76-4.69-36.95-7.83q.79-16.17.38-32.37ZM326.07,656l9.64-.24,15.58-.39q-.07,6.6-.13,13.19a249.17,249.17,0,0,0-33.35-1l-.12-11.11C320,655.45,323.66,656,326.07,656Zm-8,37.18q-.12-10.8-.23-21.59a247.88,247.88,0,0,1,33.26,1l-.19,19.83Zm32.8,3.21-.2,20.29-32.34.87q-.11-10.18-.22-20.37Zm-52.92,31v6.53a3.65,3.65,0,0,0,2.58,3.63c.82,2,2.67,2.73,4.78,2.45l6.12-.82A3.49,3.49,0,0,0,314,736.9a3.78,3.78,0,0,0,4.51-3.81l-.12-11.59,32.25-.87-.09,9.39a3.65,3.65,0,0,0,1.05,2.71,3.12,3.12,0,0,0,.14.74,4.09,4.09,0,0,0,4.92,2.79c.23-.06,1.13-.07.4-.09h.85s.47.06.66.11,1.14.43.43.1a5.24,5.24,0,0,0,1.24.38l.25,53.77a.68.68,0,0,0,0,.14l-25.62.22a4,4,0,0,0-1.52.3,4.08,4.08,0,0,0-2.2.95,49.08,49.08,0,0,1-12.63,7.61,5.29,5.29,0,0,0-1.69,1.09C299.93,802,283,800.13,266.11,799a137.58,137.58,0,0,0-7-71.83Q278.53,726.85,298,727.33Zm26.64,78.83a3.87,3.87,0,0,0,.25-.59,60.39,60.39,0,0,0,9.58-5.94q.35,15.29-.36,30.56-5.86-1.56-11.71-3.24A129.34,129.34,0,0,1,325,807.84,1.92,1.92,0,0,0,324.61,806.16Zm-3.81,2.35a134.49,134.49,0,0,0-2.34,17.29c-13.81-4.08-27.49-8.62-41.11-13.29q-8.49-2.91-17-5.85C280.51,807.73,300.63,810.49,320.8,808.51ZM177,646.53l48.06.59a73.79,73.79,0,0,0,1,17.24l-49.05-.3A67.66,67.66,0,0,0,177,646.53Zm-.64,21.53,50.43.3a125,125,0,0,0,6.11,19.4q-24.3-.59-48.62-.36-6.75.08-13.49.21A112.51,112.51,0,0,0,176.34,668.06Zm-7.13,23.54a2.6,2.6,0,0,0,.4,0q25.69-.52,51.4-.12,6.77.11,13.53.29c2.94,7,6.24,13.81,9.44,20.6q-33.34.87-66.69.58-8.79-.08-17.59-.25c.69-1.49,1.38-3,2.07-4.4C164.36,702.84,166.92,697.27,169.21,691.6Zm-11.34,25.1q34.88.67,69.75.07,9.1-.16,18.21-.41c.19.42.39.84.59,1.26,11.6,25.18,16.66,52,11.93,79.55a4.37,4.37,0,0,0,0,1.4,201,201,0,0,0-21.4,0q-29-10.06-58-20.16c-1.28,0-2.55-.06-3.83-.15a3.7,3.7,0,0,0-1.36,1.36q-11.55-.15-23.06.52a4.28,4.28,0,0,0-.37-1.83C141.27,757.93,149.07,736,157.87,716.7ZM97,785.78a4.16,4.16,0,0,0,.09-.63,422.67,422.67,0,0,0-1.65-58.79q25.1.35,50.16-1.19c-6.84,17.93-10.35,37.19-2.88,55.53-2.57.21-5.14.44-7.71.72a1.42,1.42,0,0,0-.2,0,3.53,3.53,0,0,0-.56,0Zm39,99.8q-4.16-.74-8.29-1.56c-4-.82-8-1.63-12-2.24q-4.11-34.9-10.1-69.54-1.66-9.54-3.46-19l32.1-3.72.22-.05a4.86,4.86,0,0,0,.54,0,323.59,323.59,0,0,1,38.5-1.81q-12.28,39.28-28.37,77.25Q140.72,875.28,136,885.58Zm4.07.66q17.19-37.74,30.63-77.06,3.66-10.74,7-21.56,22.32,42,43.45,84.7,5.15,10.39,10.22,20.85C200.83,892.31,170.15,891.17,140.07,886.24Zm141.57,8.5L261,894c-8.34-.29-16.71-.51-25.09-.74q-20.74-42.67-42.66-84.78-5.34-10.23-10.75-20.44l42.74,14.86A37.75,37.75,0,0,1,235,806.7l.89-.07q19.66,6.82,39.37,13.6c29.93,10.26,60.18,19.89,91.37,25.48q-33.25,17.16-65.23,36.65-9.83,6-19.51,12.21A1.28,1.28,0,0,0,281.64,894.74Zm74-8.82c-10.17.31-19.62,3.9-29.31,6.61-10.48,2.93-20.88,3-31.68,2.65l-5.95-.2q32.24-20.41,65.9-38.45,9.12-4.87,18.33-9.57a3.85,3.85,0,0,0,1,.38Q367.23,866.66,360.6,886C358.94,885.9,357.28,885.86,355.62,885.92Zm96.09,7.9c-10.44.84-21-.17-31.46-.69-11.2-.56-22.45-.87-33.5-2.9-7.31-1.34-14.64-3.12-22-3.92l13.68-39.85q40.32-12.11,81.55-20.65,2,26.24,4,52.47.5,6.39,1,12.79A62.29,62.29,0,0,1,451.71,893.82Zm124.62-2.54c-22.26-.28-44.72-.28-66.67-4.55-9.68-1.88-18.5-3.26-28.23-.79-4.28,1.09-8.42,2.53-12.57,3.89l-4-52.25-1-12.59c.39-.07.77-.15,1.16-.24a2,2,0,0,0,.59.45q28.71,14.49,57.78,28.23t58.7,26.82q13.15,5.81,26.38,11.44C597.77,891.51,587.05,891.42,576.33,891.28Zm36.59-2q-27.31-11.65-54.35-23.94-29.39-13.37-58.4-27.48-13.69-6.66-27.29-13.5a245.18,245.18,0,0,1,56.27,6.41Q569.58,862.09,612.92,889.28Zm-37.55-37.69a4.08,4.08,0,0,0-2.71,1.41l-2.47-1.75q5.35-25.38,9.81-50.93v-.08l8.73-3.18a482.13,482.13,0,0,0,1.51,53.35C585.28,850.66,580.33,851,575.37,851.59Zm1059.44-406.3q-33,69.91-65.12,140.22,2.24-26.38,2.81-52.89.68-32.47-1.17-64.93-1-17.43-2.72-34.81L1617,444.64l14.24,3.46c2.5.61,3.57-3.25,1.06-3.86l-49.47-12-14.24-3.46-.11,0q-7.46-14.06-15.92-27.56A487,487,0,0,0,1634.81,445.29Zm-92.06-50.35a4.33,4.33,0,0,0,.63,0l.14.11.53.36q11.13,17,20.66,34.87a1.5,1.5,0,0,0-.26,1q3.25,32.31,4,64.82t-1,64.94q-1,17.76-2.72,35.48-7.58,16.6-15.11,33.23-10.46-21.87-21.09-43.65-11.36-23.27-22.92-46.42t-23.32-46.23q-11.8-23.16-23.82-46.24t-24.11-45.81l-2.7-5.08A592.7,592.7,0,0,1,1542.75,394.94Zm-116.28,53.68q1-25.22,1.65-50.42,12,22.62,23.92,45.34,12,22.95,23.76,46t23.36,46.2q11.64,23.25,23.08,46.62T1544.81,629l2.64,5.52-.08.29-4.31-7a3.76,3.76,0,0,0-2.74-1.84,3.81,3.81,0,0,0-2.73-1.23c-18.93-.94-37-8-56-8a3.85,3.85,0,0,0-2.7-.28q-24.35,5.76-48,13.83a4.13,4.13,0,0,0-1.41-.22l-13.38.36q3.42-44.61,6-89.28Q1424.7,494.88,1426.47,448.62ZM1403.18,397h20.63l.34,0q-1.26,46.2-3.42,92.36t-5.23,92.45q-1.62,24.35-3.49,48.65-21.79.64-43.59,1.56,7.86-44.25,14.77-88.67,7.3-47,13.48-94.19Q1400.11,423.13,1403.18,397Zm-45.32,23.36c.54-1.56,1.09-3.11,1.64-4.67l.31-.2.26-.09q20-8.25,39.09-18.24-5.52,46.67-12.11,93.21-6.65,46.83-14.38,93.51-4,24.2-8.33,48.32-27.61,1.18-55.22,2.77a4,4,0,0,0-3.73,3.23c-.13.11-.26.2-.39.33a110.78,110.78,0,0,1-15.69,13.23q5.36-22,11.09-43.84,6.24-23.75,13-47.37t13.85-46.87q7.18-23.48,14.85-46.81T1357.86,420.38Zm-37.6,27.2q.73-15.63,1.14-31.29h33.67q-7.68,21.81-15,43.76-7.72,23.31-15,46.78-7.12,23.06-13.79,46.24Q1314,531,1316,508.81,1318.79,478.24,1320.26,447.58Zm-21.72-19a193.52,193.52,0,0,1,18.85-11.92q-.77,28.83-2.66,57.62-2,30.62-5.34,61.13-1.87,17.22-4.15,34.4a1.74,1.74,0,0,0,.91,1.65q-4.1,14.68-8,29.42.3-30.14.2-60.28-.13-36.37-.88-72.76-.39-18.9-1-37.79A3.48,3.48,0,0,0,1298.54,428.57Zm-6,1.6q1,34.77,1.48,69.55.48,36.39.34,72.77-.07,20.55-.34,41.11a1.85,1.85,0,0,0,.46,1.3q-4.35,16.82-8.48,33.7c-.27,1.1-.54,2.2-.8,3.3a144.65,144.65,0,0,0-17,1.9,3.45,3.45,0,0,0-2.12,1.11,4.67,4.67,0,0,0-3.15,2l-5.37,7.25q-20.58-4.17-40.76-10c-3.7-28.47-4.3-57.21-4.55-85.89q-.37-43.28-.64-86.56l-.34-46.16A553.24,553.24,0,0,1,1292.51,430.17ZM1189.9,667.93a135.48,135.48,0,0,1-3.53-15.13,520.4,520.4,0,0,0,70.36,19.29,4,4,0,0,0,.58.07q-3.07,25.13-5.89,50.27-2.94,26.34-5.62,52.7-1.14,11.28-2.22,22.58-11.5-32.88-23.69-65.52a3.94,3.94,0,0,0-2.27-2.38,3.56,3.56,0,0,0-3.47-2.15c-2.89,0-5.78,0-8.67.06Q1197.7,697.83,1189.9,667.93Zm11.46,59.82q-16,.12-32,.13,6.57-29.13,12-58.48c.68-3.65,1.32-7.3,2-10.95.56,2.56,1.24,5.11,1.9,7.66l4.2,16.12,8.4,32.24Zm-26-265.88a4.94,4.94,0,0,0,.83-.5l31.07-23.3.6,81.95c.21,28.71,0,57.46,1.12,86.15.6,15.63,1.67,31.24,3.65,46.75q-14.42-4.27-28.57-9.37a3.57,3.57,0,0,0-2.49,0l-6.15,0q1.33-34.43,1.64-68.89.32-36.9-.6-73.79-.48-19.37-1.3-38.73Zm-38.76,47.94q1-18.93,2-37.87s0-.06,0-.1a248.09,248.09,0,0,1,32.65-8.36q1.43,34.84,1.8,69.73.38,36.88-.46,73.79-.42,18.22-1.15,36.46l-43.58-.17q2.51-33,4.69-66Q1134.77,543.58,1136.63,509.81ZM1037,593.31q46.14-61.15,97.42-118.18-1.61,32.17-3.52,64.33-2,33.75-4.39,67.48-1.29,18.16-2.67,36.34l-22.49-.09c-13.95-.06-29.08-1.21-43.41.69a5.49,5.49,0,0,0-.18-.63Q1047.73,618.14,1037,593.31Zm-12.45,87.39a195.14,195.14,0,0,1,12.2-22,3.75,3.75,0,0,0,.41-.19c9.67-5.46,20.56-7,31.51-7.33,12.21-.41,24.46-.06,36.67,0l75.23.3q-5.41,31.07-12.08,61.88-1.58,7.26-3.23,14.5-78.4-.06-156.79-3a426.63,426.63,0,0,1,14.82-41,1.65,1.65,0,0,0-.24-1.57A3.49,3.49,0,0,0,1024.57,680.7Zm-5.75,3.68q-8.24,19.83-14.47,40.4l-3.79-.14c-17.09-.66-34.22-1.84-51.34-1.88l-9.12-26.33C966.47,693.19,992.19,685.41,1018.82,684.38Zm-82.66,12.88L945,722.79c-1.18,0-2.37,0-3.55,0a4.24,4.24,0,0,0-1.39.27,3.9,3.9,0,0,0-2.48.5q-8.88,4.93-17.66,10a72.76,72.76,0,0,1-4-19.69,4,4,0,0,0-.16-.95Q926.23,705.44,936.16,697.26Zm-172,159.65c-12.06-1.23-23.77-4.39-35.77-6s-23.57-.11-35.46.63-23.79.61-35.68.21c-21-.71-42-2.23-63-1.51a484,484,0,0,1-1.46-54.66l.42-.15a4,4,0,0,0,.61,0q85.83-3.59,171.75-4.46,12.18,27.15,23.56,54.64c1.68,4.07,3.33,8.15,5,12.23A229.92,229.92,0,0,1,764.17,856.91Zm11.59-52.71q-2.91-6.63-5.88-13.23,35.11-.35,70.25-.25-17.71,26.81-35.41,53.61-3.66,5.56-7.33,11.11Q786.94,829.67,775.76,804.2Zm61.47,49.5c-12.08,1.85-24.25,3.26-36.46,3.91h0l32.93-49.86,8-12.14q9.49,21.33,17.36,43.33c1.29,3.59,2.52,7.2,3.74,10.81C854.23,850.78,845.74,852.4,837.23,853.7Zm34.91-4.8c-1.76.1-3.52.24-5.28.41q-7.68-22.86-17.09-45.08c-1-2.4-2-4.79-3.09-7.17q18.86,22.66,38.3,44.84c2.34,2.66,4.71,5.31,7.06,8A106.57,106.57,0,0,0,872.14,848.9Zm72.19,6.94a3.6,3.6,0,0,0-2-.41c-14.93,1-29.48-2.36-44.14-4.67q-21-23.6-41.35-47.77c-2.51-3-5-6-7.5-9q19.53,11.12,38.91,22.5,22,13,43.9,26.29,9.46,5.78,18.89,11.64A58.45,58.45,0,0,0,944.33,855.84Zm13.2-2.1q-21.12-13.14-42.46-26-21.93-13.17-44.08-26-11.65-6.75-23.39-13.4Q892.06,758.22,939,732q9.18,24,18.18,48.13,9.26,24.75,18.31,49.57,4.82,13.23,9.59,26.47C975.91,854.51,966.71,853.24,957.53,853.74ZM971.4,807q-9.15-24.8-18.47-49.51-5-13.34-10.12-26.65c16.94-.26,33.88.88,50.8,1.57q26.8,1.08,53.62,1.83,13.9.39,27.79.69-15.8,24.08-32.33,47.65-17.45,24.86-35.73,49.09-8.91,11.82-18,23.46Q980.25,831,971.4,807Zm94.68,51.13c-20.63,1.28-40.89,4.88-61.54,1.6-4.12-.66-8.26-1.45-12.41-2.23q17.21-22.05,33.74-44.62,18.06-24.69,35.29-50,8.7-12.79,17.18-25.74a675.54,675.54,0,0,0,0,93q.93,13.54,2.41,27.06a2.71,2.71,0,0,0,.22.8C1076,857.78,1071.05,857.79,1066.08,858.09Zm18.39,0a1.5,1.5,0,0,0,.23-1,676.07,676.07,0,0,1-3.61-96.18q.44-13,1.38-25.93,34.93.69,69.88.84-11.46,24.5-23.21,48.86t-23.88,48.81q-6.24,12.57-12.56,25.1C1090,858.43,1087.22,858.23,1084.47,858.09Zm29.55,2.43c-5.69-.47-11.36-1-17-1.53q11.22-22.29,22.22-44.7,12-24.39,23.63-48.92,4.9-10.3,9.74-20.65-5.36,19.68-11.44,39.13-7.73,24.74-16.63,49.07-5,13.82-10.46,27.48A.53.53,0,0,0,1114,860.52Zm71.47,0c-19.56-3.41-38.94,1.62-58.59.83-2.92-.12-5.84-.3-8.76-.52q9.4-23.77,17.71-48,8.4-24.51,15.62-49.4,4-13.74,7.62-27.59,26.79.06,53.59-.2l.11.29q-1.05,24.39-3.27,48.71-2.41,26.08-6.22,52-2,13.15-4.25,26.27C1194.55,862.26,1190.06,861.33,1185.49,860.53Zm64.31-3.68a4.31,4.31,0,0,0-1-.16,3.45,3.45,0,0,0-3.3-.47c-9.62,3.17-19.42,6.52-29.56,7.52a60,60,0,0,1-12.93-.25q4.23-24.25,7.27-48.72,3.26-26.26,5.09-52.67.57-8.26,1-16.53,20.79,56.31,39.6,113.3C1253.91,858.14,1251.87,857.46,1249.8,856.85Zm7.72-18.5q-5.43-16.14-11-32.21a2.65,2.65,0,0,0,.34-1q2.52-26.51,5.33-53t5.86-52.67q1.65-14.24,3.4-28.47a5,5,0,0,0,2.19-1.7l4-5.37q-3.54,35.65-5.9,71.42-2.54,38.91-3.64,77.89Q1257.72,825.78,1257.52,838.35Zm37.26-100.79c-.53,27.09-2,54.16-1.92,81.25,0,14.21.46,28.43,1.63,42.59-7.32.06-14.57.87-21.47,3.76a4.27,4.27,0,0,0-1.75,1.33,3.63,3.63,0,0,0-1.67-1.64c-1.66-.87-3.35-1.68-5-2.46a3.57,3.57,0,0,0,.09-2.67q-1.62-4.92-3.26-9.84.39-35.48,1.95-70.92,1.73-39,4.9-77.83,1.62-19.93,3.63-39.85a126.76,126.76,0,0,1,16.62-1.53,4.25,4.25,0,0,0,1.53-.34,3.07,3.07,0,0,0,1.68.09C1295,685.37,1295.29,711.52,1294.78,737.56Zm11.82,124.21c-2.7-.14-5.4-.27-8.11-.33-2.15-26.11-1.79-52.33-1-78.49.8-27.13,2-54.28,1.29-81.43a432.18,432.18,0,0,0-3.35-44.31,123.29,123.29,0,0,0,13.54-11.35,62.7,62.7,0,0,0-.94,16.92c.41,7.17,1,14.33,1.5,21.49q1.51,22.14,2.76,44.29,2.49,44.06,3.94,88.16.75,22.77,1.21,45.55C1313.81,862.12,1310.2,862,1306.6,861.77ZM1481,859c-22.33-2.52-45,1.13-67.27,2.43q-34.18,2-68.45,1.57-11.92-.15-23.86-.6-.89-42-2.68-84.07-1.9-44.08-4.84-88.11c-.54-8.08-1.12-16.15-1.69-24.22-.53-7.61-.88-15.38,1.56-22.72a2,2,0,0,0,.1-.57q57.56-3.27,115.18-4.69a3.46,3.46,0,0,0,3,.23q19-6.53,38.48-11.54L1479,716.1q4.52,47.52,9,95.06l4.68,49.29C1488.82,860,1484.92,859.46,1481,859Zm99.24,4.43c-10.67-2-21.52-2.28-32.34-2.07-11.18.23-22.35,1-33.53.83a171.69,171.69,0,0,1-17.61-1.28l-8.7-91.58q-4.51-47.54-9-95.06-2.31-24.27-4.61-48.55l4.19-1a3.59,3.59,0,0,0,.47,0c19.16-.71,37.42,6.39,56.41,7.77,5.68,14.81,10.63,29.89,15.11,45.11,4.62,15.63,8.76,31.4,12.77,47.2s7.9,31.65,12,47.44,8.42,31.44,13.3,47,10.27,30.68,16.54,45.58l.69,1.61C1597.66,868.56,1588.38,864.93,1580.24,863.45Zm33.64-.87a3.94,3.94,0,0,0-4.4,2c-5.76-13.57-10.8-27.44-15.34-41.47-5-15.41-9.37-31-13.5-46.65s-8-31.46-12-47.2-8-31.45-12.51-47c-3.56-12.41-7.41-24.74-11.69-36.93q51.11,84.11,93.71,173,12.33,25.76,23.9,51.87C1645.85,869.13,1629.84,865.92,1613.88,862.58Zm68.25,7.62c-3.86.26-7.71.34-11.54.29a4.36,4.36,0,0,0-.36-1.52A1980.51,1980.51,0,0,0,1574,679.42q-11.43-19.77-23.3-39.26a3.2,3.2,0,0,0,3.81-2q47.64-105.41,97.18-209.92,5.8,86,11.59,172c4,58.4,8.08,116.82,15.2,174.93,3.87,31.52,8.61,62.93,14.64,94.11C1689.45,869.64,1685.79,870,1682.13,870.2Zm15-1.19h0c-11-56.78-17.7-114.29-22.64-171.89-5-58.43-8.56-117-12.5-175.49q-3.29-48.9-6.58-97.79c29.35-1.48,58.79,1,88.09,3.28-8.12,57.09-15,114.36-21,171.7-6.15,58-11.55,116.18-16.78,174.32Q1701.36,821.07,1697.1,869Zm19.52-171.62c5.45-57.81,11.33-115.6,18.21-173.26q5.58-46.8,12.15-93.48a26.62,26.62,0,0,1,4.58,1.49l6.47,2.55,13,5.09,3.63,1.43a1.73,1.73,0,0,0-.86,1.23q-16.6,83.87-31.69,168T1713.45,779q-5.13,32.09-10,64.19C1707.72,794.59,1712,746,1716.62,697.39Zm24.13,171.79c-9.91-.43-19.83-1-29.75-.88-2.48,0-5,.14-7.43.28q12.27-81.48,26-162.73,14.22-84.3,30-168.33,8.84-47.06,18.13-94a1.94,1.94,0,0,0-.1-1.16l19.37,7.61,10.5,4.13a3.21,3.21,0,0,0,.07.43,1.79,1.79,0,0,0-.62.09,2,2,0,0,0-1.29,3.35c-7.1,53.33-10.45,107-13.18,160.75q-4.17,81.94-8.06,163.92c-1.45,29.41-2,59.13-7.41,88.16Zm83.38-81.92q-1.17,42.63-.44,85.29-10.9-.27-21.81-.7c-7-.28-14-.59-21-.89,4.64-25.58,5.59-51.63,6.86-77.55q2-41,4-82.09c2.67-54.41,4.85-108.88,8.76-163.22,2.18-30.44,5-60.83,9.1-91.07a2.16,2.16,0,0,0-.05-.81l33.17,2.5a1.61,1.61,0,0,0,0,.22c5.22,54.76-1.2,109.63-7.1,164.06C1829.76,677.6,1825.64,732.34,1824.13,787.26Zm3.58,85.39q-1.34-79.1,3.81-158.12,2.68-40.87,7.1-81.6c2.91-27.32,6.13-54.62,8.14-82,2.24-30.53,2.94-61.23,0-91.74l28.76,14.54a2.05,2.05,0,0,0,2.45,1.94q-9.24,78.23-18.49,156.43l-18.45,156q-5,42.36-10,84.71Zm42.64,0q-17.62.44-35.29.12,9-76.53,18.1-153.07,9.24-78.09,18.47-156.19l8.37-70.77c3.74,46.45,3,93.16.76,139.68-2.57,52.49-7.07,104.86-9.34,157.37C1870.24,817.42,1869.69,845.06,1870.35,872.68Z"/><path d="M1148.78,964.68c-27.88-10.11-54.56-23.62-81.46-36l-.07,0a4.2,4.2,0,0,0-4.28-2,270.85,270.85,0,0,0-63.72,17.6,4.57,4.57,0,0,0-1-.24,136,136,0,0,1-25.72-5.06,3.57,3.57,0,0,0-3.24.49,4,4,0,0,0-1.3,0,125.14,125.14,0,0,0-24.42,5.91,3.89,3.89,0,0,0-2.48,2.45l0,0-14.45,20a3.26,3.26,0,0,0-.53,3.2c-1.47,2.4-.41,6.3,3.21,6.18q108-3.57,216-2.41a3.56,3.56,0,0,0,3.47-2.16C1152,971.83,1152.82,966.15,1148.78,964.68Zm-181.94,3.38q-15.65.39-31.29.88l12-16.56a124.33,124.33,0,0,1,21.88-5.18Zm4-.1q1.26-10.25,2.51-20.49a146.32,146.32,0,0,0,21.76,4.17,1.75,1.75,0,0,0-.41,1.81l5.63,13.88Q985.61,967.6,970.86,968Zm33.65-.94q-2.87-7-5.71-14.09a4.21,4.21,0,0,0,.69-.22,270.62,270.62,0,0,1,62.08-17.82L1073,953.17l6.3,10.07c.62,1,1.23,2.16,1.93,3.26q-38.33.09-76.65.75A1.55,1.55,0,0,0,1004.51,967Zm82.26-.53-.45-.09c-.84-.08-1.87-2.45-2.27-3.08l-2.88-4.62q-2.89-4.61-5.77-9.23l-7.3-11.67c21.05,9.8,42,20.07,63.55,28.81Q1109.21,966.43,1086.77,966.49Z"/><path d="M1172.64,992.93l-5-11.33a3.56,3.56,0,0,0-3.22-1.94,4.14,4.14,0,0,0-2.63-.47L1128.17,984a3.51,3.51,0,0,0-.6.15,296.56,296.56,0,0,0-32.11-7.33,3.07,3.07,0,0,0-3.48-.46L1056.2,991.4a4.24,4.24,0,0,0-1.66,1.24,3.32,3.32,0,0,0-2.45,1.13,46.14,46.14,0,0,1-10,9.22c-3.27,2.18-1.67,6.76,1.18,7.49a4,4,0,0,0,2.61,1.17c11.05.74,22.13,1.48,33.2.93,5.08-.25,10.14-1.12,15.22-1.16,5.69,0,9.81,2.75,15.17,3.91,7.69,1.68,16-.7,23.68-3.09a2.16,2.16,0,0,0,.61-.19c1.51-.47,3-.94,4.45-1.37,10.55-3.14,20.93-6.8,31.14-10.9a4.22,4.22,0,0,0,1.76-1.33l.11-.05C1173.25,997.21,1173.51,994.92,1172.64,992.93Zm-82.26,10.86c-3.68.18-7.41.59-11.31.79a230,230,0,0,1-25.72-.45,50.22,50.22,0,0,0,4.4-4.7l.09-.14c.16,0,.32-.1.49-.17L1092,984.94A108.27,108.27,0,0,1,1090.38,1003.79Zm40.81.75c-8,2.52-16.49,4.66-24.4,1.45a33.28,33.28,0,0,0-12.36-2.29A112,112,0,0,0,1096,985a298.08,298.08,0,0,1,33.6,8.07,3.84,3.84,0,0,0,2.25,0Zm6.69-2.11c-.87.26-1.74.54-2.62.82.19-3.52.37-7,.56-10.55a102.35,102.35,0,0,0,7.19,8.11C1141.3,1001.36,1139.59,1001.91,1137.88,1002.43Zm9.39-3a103.42,103.42,0,0,1-8.17-9l22.39-3.17c.88,2,1.75,4,2.63,6Q1155.76,996.54,1147.27,999.4Z"/><circle class="cls-7" cx="603.25" cy="778.04" r="10.5"/><circle class="cls-7" cx="638.25" cy="778.04" r="10.5"/><circle class="cls-7" cx="664.25" cy="778.04" r="10.5"/><circle class="cls-7" cx="736.25" cy="778.04" r="10.5"/><circle class="cls-7" cx="762.25" cy="778.04" r="10.5"/><path d="M631.29,766.41a4.22,4.22,0,0,0-5.16-.47V739.22a3.62,3.62,0,0,0-2.27-3.51,3.91,3.91,0,0,0-2.48-1q-17.24-.66-34.48-.24a3.72,3.72,0,0,0-3.47,2.27c-.08.08-.16.13-.24.22-4.34,4.84-4,12.74-4.55,18.86-.76,8.22-1.08,16.46-1.08,24.71a23.26,23.26,0,0,0,7.8,5.53h6.13a4,4,0,0,0,0-8h-5.91c0-5.45.21-10.88.58-16.32q.32-4.44.76-8.87c.3-2.86-.06-8,1.93-10.25l.14-.19q14.57-.3,29.14.18v27.19a3.63,3.63,0,0,0,2.07,3.42,3.46,3.46,0,0,0,.8.59c3.35,1.69,7.81,1.26,10.29-1.79C632.6,770.45,633,768,631.29,766.41Z"/><path d="M654.28,769s0,.06,0,.09l-.47.6a3,3,0,0,1-1.32.78l-.74.09a2.84,2.84,0,0,1-1.42.35,2.7,2.7,0,0,1-2.65-1.76,2.91,2.91,0,0,1-.81-1.4,3.67,3.67,0,0,0-2.53,2.64,4.06,4.06,0,0,0,2.8,4.92l3.81.82a4.07,4.07,0,0,0,4.92-2.79A4.28,4.28,0,0,0,654.28,769Z"/><path d="M626,777.4a63.23,63.23,0,0,0-12.3.32c-2.14.27-4,1.65-4,4,0,2,1.84,4.27,4,4a63.23,63.23,0,0,1,12.3-.32C631.09,785.78,631.07,777.77,626,777.4Z"/><path d="M723.23,772.86q-23.4.07-46.75,1.85c-5.1.39-5.14,8.39,0,8q23.34-1.77,46.75-1.85C728.38,780.84,728.39,772.84,723.23,772.86Z"/><path d="M785,740.45c-4-6.85-10.85-10.33-18.25-11.46l-.36,0c-6.07-.07-12.07-.89-18.09-1.41l-12.51.12-27.52.26-41.16.39a2.7,2.7,0,0,1-1.49.3c-9.42-.59-18.71,0-27.64,3.24a16.2,16.2,0,0,0-7.63,13.18c-.47,8.57,3.65,17.72,12.13,20.57a3.39,3.39,0,0,0,4-1.12l1.31,0a2.77,2.77,0,0,1,1.87-.66,2.86,2.86,0,0,1,1.52.41l.52-.07a2.36,2.36,0,0,1,1,.21q21.23-.45,42.46-.52,25.9-.06,51.81.46,13.27.27,26.54.7a4.26,4.26,0,0,0,.9.68l0,.85.12,3a11.17,11.17,0,0,0,.1,2.9v0c-3.32-.31-6.44,3.91-3.35,6.72a6.41,6.41,0,0,0,7.92.76c2.93-1.79,3.48-5.26,3.41-8.41-.07-2.88.22-6.42-.72-9.2A17.69,17.69,0,0,0,785,740.45Zm-12.61,20.21c0,.12-.1.24-.14.36q-23.85-.75-47.72-1-25.9-.27-51.81.05-12.78.16-25.55.47a3.79,3.79,0,0,0-.48-.94,5.36,5.36,0,0,1-4.21-1.84,6.07,6.07,0,0,1-.55-.73,7.73,7.73,0,0,1-2-2.6,3.67,3.67,0,0,1-.36-1.73,16.77,16.77,0,0,1-1.17-7.6c.49-5.78,5.47-8,10.34-9.49a3.14,3.14,0,0,0,.62.44A3.29,3.29,0,0,1,650,736a20,20,0,0,1,5.32.54l49.06-.47,25.55-.24,13.76-.13c2.94,0,7.51-.9,10.81-.19a3.08,3.08,0,0,0,.57.57,17.6,17.6,0,0,1,7.13.52c5.11.13,10.18,1.38,13.87,5.22a11.66,11.66,0,0,1,3.35,9.33C779.8,755.75,777.7,760.16,772.38,760.66Z"/><path d="M607.93,746.38a2,2,0,0,0-1.46-1.93,43,43,0,0,0-15.67-.54,1.9,1.9,0,0,0-1.31,2.68,2.21,2.21,0,0,0-1.13,1.79,62.57,62.57,0,0,0-.47,7.74c0,2.27-.35,5.74,2,7a5.7,5.7,0,0,0,3.67.27l4.1-.6,7.88-1.16a1.92,1.92,0,0,0,1.4-1.39A48.23,48.23,0,0,0,607.93,746.38Zm-13.52,12.88-1.74.26-.47.06H592c0-.13,0-.37,0-.37,0-.25,0-.51,0-.77,0-1.09-.06-2.17,0-3.26a59.6,59.6,0,0,1,.46-6.81,1.35,1.35,0,0,0-.09-.66A37.13,37.13,0,0,1,604,748a44,44,0,0,1-.69,9.92l-5.62.82Z"/><path d="M296.21,748.3a1.53,1.53,0,0,0,.1-.59,2.05,2.05,0,0,0-2-2,40.94,40.94,0,0,0-12.05.57,2,2,0,0,0-1.4,2.46,2.15,2.15,0,0,0,.21.46,3.43,3.43,0,0,0-.19.75,29,29,0,0,0,.7,10.5,2,2,0,0,0,1.2,1.32,2.31,2.31,0,0,0,1.59.82,35.84,35.84,0,0,0,10.54-.44,2,2,0,0,0,1.43-2.27,1.92,1.92,0,0,0,.74-1.52v-8.42A2.07,2.07,0,0,0,296.21,748.3Zm-3.6,10.2-.27,0h-.06l-.58.06c-.8.09-1.61.15-2.41.17a33.74,33.74,0,0,1-4-.12c-.13-.56-.24-1.12-.33-1.69l-.05-.32c0-.19-.05-.37-.07-.55,0-.41-.07-.82-.1-1.23a27.89,27.89,0,0,1,.16-4.92.27.27,0,0,0,0-.09l.37-.05.62-.08c.92-.1,1.84-.17,2.77-.21a39.25,39.25,0,0,1,4.47.11,3,3,0,0,0,0,.31v8.42s0,0,0,.06Z"/><path d="M315.38,748.49a1.67,1.67,0,0,0,.09-.58,2,2,0,0,0-2-2,41.31,41.31,0,0,0-12.05.56,2,2,0,0,0-1.4,2.46,2.56,2.56,0,0,0,.22.47,3,3,0,0,0-.19.74,28.64,28.64,0,0,0,.7,10.51,2,2,0,0,0,1.19,1.31,2.23,2.23,0,0,0,1.59.82,35.5,35.5,0,0,0,10.54-.44,2,2,0,0,0,1.44-2.26,2,2,0,0,0,.74-1.52v-8.42A2.09,2.09,0,0,0,315.38,748.49Zm-3.61,10.21-.27,0h-.06l-.57.07c-.81.09-1.61.14-2.42.17a31.55,31.55,0,0,1-4-.13c-.13-.55-.25-1.12-.34-1.68l-.05-.33-.06-.55c0-.41-.08-.82-.1-1.23a27,27,0,0,1,.16-4.92v-.08l.37-.06.61-.07c.92-.1,1.85-.17,2.78-.21a39.24,39.24,0,0,1,4.47.1,1.73,1.73,0,0,0,0,.32v8.47Z"/><path d="M335.38,748.5a1.67,1.67,0,0,0,.09-.58,2,2,0,0,0-2-2,41.31,41.31,0,0,0-12.05.56,2,2,0,0,0-1.4,2.46,2.56,2.56,0,0,0,.22.47,3,3,0,0,0-.19.74,28.64,28.64,0,0,0,.7,10.51,2,2,0,0,0,1.19,1.31,2.23,2.23,0,0,0,1.59.82,35.5,35.5,0,0,0,10.54-.44,2,2,0,0,0,1.44-2.26,2,2,0,0,0,.74-1.52v-8.42A2.09,2.09,0,0,0,335.38,748.5Zm-3.61,10.21-.27,0h-.06l-.57.07c-.81.08-1.61.14-2.42.17a33.52,33.52,0,0,1-4-.13c-.13-.56-.25-1.12-.34-1.68l-.05-.33-.06-.55c0-.41-.08-.82-.1-1.23a27,27,0,0,1,.16-4.92v-.08l.37-.06.61-.07c.92-.1,1.85-.18,2.78-.21a39.24,39.24,0,0,1,4.47.1,1.73,1.73,0,0,0,0,.32v8.47Z"/><path d="M354.38,748.5a1.67,1.67,0,0,0,.09-.58,2,2,0,0,0-2-2,41.31,41.31,0,0,0-12.05.56,2,2,0,0,0-1.4,2.46,2.56,2.56,0,0,0,.22.47,3,3,0,0,0-.19.74,28.64,28.64,0,0,0,.7,10.51,2,2,0,0,0,1.19,1.31,2.23,2.23,0,0,0,1.59.82,35.5,35.5,0,0,0,10.54-.44,2,2,0,0,0,1.44-2.26,2,2,0,0,0,.74-1.52v-8.42A2.09,2.09,0,0,0,354.38,748.5Zm-3.61,10.21-.27,0h-.06l-.57.07c-.81.08-1.61.14-2.42.17a33.52,33.52,0,0,1-4-.13c-.13-.56-.25-1.12-.34-1.68l-.05-.33-.06-.55c0-.41-.08-.82-.1-1.23a27,27,0,0,1,.16-4.92v-.08l.37-.06.61-.07c.92-.1,1.85-.18,2.78-.21a39.24,39.24,0,0,1,4.47.1,1.73,1.73,0,0,0,0,.32v8.47Z"/><path d="M296.72,768.4a1.69,1.69,0,0,0,.09-.59,2.06,2.06,0,0,0-2-2,41.28,41.28,0,0,0-12.05.57,2,2,0,0,0-1.4,2.46,2.52,2.52,0,0,0,.22.47,2.44,2.44,0,0,0-.19.74,28.8,28.8,0,0,0,.69,10.5,2,2,0,0,0,1.2,1.32,2.23,2.23,0,0,0,1.59.82,35.84,35.84,0,0,0,10.54-.44,2,2,0,0,0,1.44-2.26,1.94,1.94,0,0,0,.73-1.52V770A2.1,2.1,0,0,0,296.72,768.4Zm-3.61,10.2-.27,0h-.06l-.58.07c-.8.08-1.6.14-2.41.17a36,36,0,0,1-4-.13c-.12-.56-.24-1.12-.33-1.68l-.05-.33-.06-.55c-.05-.41-.08-.82-.11-1.23a27.89,27.89,0,0,1,.17-4.92s0-.06,0-.08l.37-.06.62-.07c.92-.11,1.85-.18,2.77-.22a41.88,41.88,0,0,1,4.48.11,1.65,1.65,0,0,0,0,.31v8.43s0,0,0,0Z"/><path d="M315.88,768.59a1.91,1.91,0,0,0,.1-.58,2.07,2.07,0,0,0-2-2,41,41,0,0,0-12.06.57,2,2,0,0,0-1.39,2.46,2.15,2.15,0,0,0,.21.46,3.43,3.43,0,0,0-.19.75,28.8,28.8,0,0,0,.7,10.5,2,2,0,0,0,1.2,1.32,2.29,2.29,0,0,0,1.59.82,35.5,35.5,0,0,0,10.54-.45,2,2,0,0,0,1.43-2.26,1.92,1.92,0,0,0,.74-1.52v-8.42A2.1,2.1,0,0,0,315.88,768.59Zm-3.61,10.21-.27,0h-.06l-.57.06c-.8.09-1.61.14-2.41.17a33.68,33.68,0,0,1-4-.12c-.13-.56-.24-1.12-.33-1.69l-.05-.33c0-.18-.05-.36-.07-.55,0-.4-.07-.81-.1-1.22a26.94,26.94,0,0,1,.16-4.92.27.27,0,0,0,0-.09l.37,0,.61-.08c.93-.1,1.85-.17,2.78-.21a39.25,39.25,0,0,1,4.47.11,3,3,0,0,0,0,.31v8.42a.13.13,0,0,0,0,.06Z"/><path d="M335.88,768.6a2,2,0,0,0,.1-.58,2.07,2.07,0,0,0-2-2,41,41,0,0,0-12.06.57,2,2,0,0,0-1.39,2.46,2.15,2.15,0,0,0,.21.46,3.43,3.43,0,0,0-.19.75,28.8,28.8,0,0,0,.7,10.5,2,2,0,0,0,1.2,1.32,2.29,2.29,0,0,0,1.59.82,35.84,35.84,0,0,0,10.54-.45,2,2,0,0,0,1.43-2.26,1.92,1.92,0,0,0,.74-1.52v-8.42A2.09,2.09,0,0,0,335.88,768.6Zm-3.61,10.21-.27,0h-.06l-.57.06c-.8.09-1.61.14-2.41.17a33.68,33.68,0,0,1-4-.12c-.13-.56-.24-1.12-.33-1.69l-.05-.33c0-.18-.05-.36-.07-.55,0-.4-.07-.81-.1-1.22a26.94,26.94,0,0,1,.16-4.92.27.27,0,0,0,0-.09l.37,0,.61-.08c.93-.1,1.85-.17,2.78-.21a37.07,37.07,0,0,1,4.47.11,3,3,0,0,0,0,.31v8.42a.13.13,0,0,0,0,.06Z"/><path d="M354.88,768.6a2,2,0,0,0,.1-.58,2.07,2.07,0,0,0-2-2,41,41,0,0,0-12.06.57,2,2,0,0,0-1.39,2.46,2.15,2.15,0,0,0,.21.46,3.43,3.43,0,0,0-.19.75,28.8,28.8,0,0,0,.7,10.5,2,2,0,0,0,1.2,1.32,2.29,2.29,0,0,0,1.59.82,35.84,35.84,0,0,0,10.54-.45,2,2,0,0,0,1.43-2.26,1.92,1.92,0,0,0,.74-1.52v-8.42A2.09,2.09,0,0,0,354.88,768.6Zm-3.61,10.21-.27,0h-.06l-.57.06c-.8.09-1.61.14-2.41.17a33.68,33.68,0,0,1-4-.12c-.13-.56-.24-1.12-.33-1.69l-.05-.33c0-.18-.05-.36-.07-.55,0-.4-.07-.81-.1-1.22a26.94,26.94,0,0,1,.16-4.92.27.27,0,0,0,0-.09l.37,0,.61-.08c.93-.1,1.85-.17,2.78-.21a37.07,37.07,0,0,1,4.47.11,3,3,0,0,0,0,.31v8.42a.13.13,0,0,0,0,.06Z"/><path d="M242.53,592.29a9.75,9.75,0,0,0-8.82-8,10.36,10.36,0,0,0-5.21-8.05,10.65,10.65,0,0,0-10.78.52,8.06,8.06,0,0,0-3.56-5.65c-.08-4.4-.92-9-4.28-12.15a11,11,0,0,0-9.29-2.8,15.83,15.83,0,0,0-21-2.68c-4.75-2.12-10.65-2.07-14.23,2.18s-3.05,9.65-1.23,14.49c-7.69,3-7.39,16.43,0,19.11a10,10,0,0,0,7.27,9.4,13,13,0,0,0,10.43-1.51c4,3.24,10,4.1,15,3.22a7.52,7.52,0,0,0,2,4.71,7.07,7.07,0,0,0,2.06,1.55,9.68,9.68,0,0,0,2.27,8.92c3.26,3.57,8.28,3.9,12.42,2,5.61,3.88,13.07,4.35,18.7,0,4.05-3.14,5.71-8.64,3.71-12.63A13.45,13.45,0,0,0,242.53,592.29Zm-42.16-9.39a4,4,0,0,0-1,.76,4.64,4.64,0,0,1,.16.74c.64,5.1-2.88,9.85-8.25,9.68a7.84,7.84,0,0,1-7.58-5.91,4.84,4.84,0,0,0-1.8-.46c-1.46,3.3-4.26,6.29-8.15,5.14a5.82,5.82,0,0,1-3.81-4.25,8.28,8.28,0,0,1,0-3.77c-2.5-.55-4.66-2.17-5.05-5-.47-3.38,1.94-5.34,4.79-6a7,7,0,0,1-1.74-3.49,11.25,11.25,0,0,1,5.73-11.41,6.68,6.68,0,0,1,8.61,1.6,9.48,9.48,0,0,1,11.7-2.87,7.79,7.79,0,0,1,4.59,6.36,7.16,7.16,0,0,1,4.49-1.55,6.14,6.14,0,0,1,4.93,3,8.63,8.63,0,0,1,.31,8,6.8,6.8,0,0,1,2,7.48,5.7,5.7,0,0,1-4.11,3.78A6.94,6.94,0,0,1,200.37,582.9Zm28.2,19.82a2.11,2.11,0,0,0-.16.34,11.87,11.87,0,0,1,2.68,3.32,3,3,0,0,1,0,3c-3.42,5.64-11.67,5.17-14.77-.2l-.52-.12a7.19,7.19,0,0,1-3.52,2,3.32,3.32,0,0,1-1.12.06c-.12,0-.23,0-.36,0a3,3,0,0,1-2.89-2.2,12.28,12.28,0,0,1,.72-7.72c-.53,0-1,.05-1.57.05a3,3,0,0,1-3-2.67,3.37,3.37,0,0,1,.18-3c-.1-.12-.19-.25-.3-.36a12,12,0,0,0,1.12-4.5c4.8,0,9.13-1.66,11.43-6.18a4,4,0,0,0,1.26.61,5.21,5.21,0,0,1,.92-1.55,4.27,4.27,0,0,1,4.53-1.19c3.34,1.06,4.87,5.17,4.52,8.38l0,.18a4.33,4.33,0,0,0,1,.87,6.5,6.5,0,0,1,3.11-1.17,3.38,3.38,0,0,1,.45,0,9.09,9.09,0,0,1,1.29-.15,3,3,0,0,1,3,3A8.55,8.55,0,0,1,228.57,602.72Z"/><path class="cls-8" d="M1003.33,883.74c-.87-1.67-2.36-3-3.54-4.53a39.93,39.93,0,0,1-3.7-5c-5.06-9.18-19.18-10.7-25.35-2.31a37.27,37.27,0,0,0-5.26,11.4c-2.11,7.08-3.16,14.49-5.46,21.5-3.49,10.64-6.5,21.16-3.67,32.49.51,2.08,0,4.28-2.64,5.08-1.69.51-1.8,1.51-1.26,2.62,5.48,2.62,11.4,4,17.31,5.44.73.08,1.45.15,2.18.21,3,.25,5.74.08,8.85,1.69a17.23,17.23,0,0,0,14,1l.85-.68a6.46,6.46,0,0,0,1-2.22,10.51,10.51,0,0,0-.57-2.76c-1.34-.76-2.67-1.61-4.07-2.4,7.32-6.32,10.32-11.9,9.7-21-.48-7.16-2.24-14.23-3.5-21.33-.9-5.08-2.08-10.13-.78-15.44a8.86,8.86,0,0,0,2.4.62c1.24-.07,3,0,3.54-.74A4.21,4.21,0,0,0,1003.33,883.74Zm-11.9,66.75-8.18-.85c3.16-2,5.77-2,8.25-.09C991.47,949.86,991.45,950.18,991.43,950.49Zm6.29-24.14a17.26,17.26,0,0,1-6.9,14.77c-10.68-7.68-6.63-36.6,4-38.59C995.88,910.58,997.29,918.44,997.72,926.35Zm-4.16-43.45a2.36,2.36,0,0,0-1.82,1c-.23.52.24,1.37.45,2.05a12.12,12.12,0,0,1,1,3c.13,3.46.05,6.92.05,10.61-13.13,9.17-15.68,29.13-5,43.47-9.86,5.49-19.93,4.07-30.57,1.8,3.06-3.58,3-7.23,2.06-11-1.85-7.83,0-15.3,2.33-22.71.44-1.37.78-2.76,1.17-4.15-.82-1.84-1.48-3.62,1.64-3.73,1.57-7,3-13.92,4.75-20.83a26.33,26.33,0,0,1,2.72-6.35c2.24-4,5.56-6.42,10.4-5.84a12.6,12.6,0,0,1,10.48,7.13c1.12,2.2,3,4,4.65,6.08A33.4,33.4,0,0,0,993.56,882.9Z"/><path class="cls-9" d="M964.86,903.21c1.57-7,3-13.92,4.75-20.83a26.33,26.33,0,0,1,2.72-6.35c2.24-4,5.56-6.42,10.4-5.84a12.6,12.6,0,0,1,10.48,7.13c1.12,2.2,3,4,4.65,6.08a33.4,33.4,0,0,0-4.3-.5,2.36,2.36,0,0,0-1.82,1c-.23.52.24,1.37.45,2.05a12.12,12.12,0,0,1,1,3c.13,3.46.05,6.92.05,10.61-13.13,9.17-15.68,29.13-5,43.47-9.86,5.49-19.93,4.07-30.57,1.8,3.06-3.58,3-7.23,2.06-11-1.85-7.83,0-15.3,2.33-22.71.44-1.37.78-2.76,1.17-4.15.2-.32.41-.64.63-1,0,0,.15.06,0,0,0,5.46-.05,10.83,0,16.2a104.61,104.61,0,0,0,.52,12.66,6.58,6.58,0,0,0,3.32,4.16c2,1,3.89-.41,5.21-2.12a26.15,26.15,0,0,0,2.05-3.15c4.9-8.74,7-18.31,8.1-28.13.08-.7-.75-1.5-1.16-2.26-.85.59-2.11,1-2.46,1.81a17.81,17.81,0,0,0-.69,4.25c-1.17,7.57-3,14.92-6.73,21.71a45.21,45.21,0,0,1-3,4.27l-.82-.32a33.68,33.68,0,0,1-.55-4.77c.17-8.09.46-16.18.69-24.28C968.49,902.84,968.05,902.52,964.86,903.21Zm22.27-25.82c-1.33-.89-2.52-2-2.78-1.8a9.07,9.07,0,0,0-2.58,3c-.12.24,1.6,1.94,1.81,1.82A25.55,25.55,0,0,0,987.13,877.39Z"/><path class="cls-10" d="M994.87,902.53c1,8.05,2.42,15.91,2.85,23.82a17.26,17.26,0,0,1-6.9,14.77C980.14,933.44,984.19,904.52,994.87,902.53Z"/><path class="cls-11" d="M964.86,903.21c3.19-.69,3.63-.37,3.54,2.81-.23,8.1-.52,16.19-.69,24.28a33.68,33.68,0,0,0,.55,4.77l.82.32a45.21,45.21,0,0,0,3-4.27c3.68-6.79,5.56-14.14,6.73-21.71a17.81,17.81,0,0,1,.69-4.25c.35-.81,1.61-1.22,2.46-1.81.41.76,1.24,1.56,1.16,2.26-1.14,9.82-3.2,19.39-8.1,28.13a26.15,26.15,0,0,1-2.05,3.15c-1.32,1.71-3.21,3.11-5.21,2.12a6.58,6.58,0,0,1-3.32-4.16,104.61,104.61,0,0,1-.52-12.66c-.07-5.37,0-10.74,0-16.2.14.06,0,0,0,0-.22.31-.43.63-.63,1C962.4,905.1,961.74,903.32,964.86,903.21Z"/><path class="cls-12" d="M983.25,949.64c3.16-2,5.77-2,8.25-.09l-.07.94Z"/><path class="cls-13" d="M987.13,877.39a25.55,25.55,0,0,1-3.55,3c-.21.12-1.93-1.58-1.81-1.82a9.07,9.07,0,0,1,2.58-3C984.61,875.4,985.8,876.5,987.13,877.39Z"/><text class="cls-14" transform="translate(172.39 470.28)">Desar<tspan class="cls-15" x="86.02" y="0">r</tspan><tspan x="97.2" y="0">ollo</tspan><tspan x="4.51" y="40.8">Industrial</tspan></text><text class="cls-14" transform="translate(575.22 462.56)">Quema de fósiles<tspan x="-25.3" y="40.8">y p</tspan><tspan class="cls-15" x="16.63" y="40.8">r</tspan><tspan x="27.81" y="40.8">oducción de CO2</tspan></text><text class="cls-14" transform="translate(411.63 957.56)">La <tspan class="cls-16" x="42.84" y="0">e</tspan><tspan x="59.67" y="0">xpansión del agua debido</tspan><tspan x="22.75" y="40.8">al aumento de temperatura</tspan><tspan x="74.49" y="81.6">de ma</tspan><tspan class="cls-15" x="164.25" y="81.6">r</tspan><tspan x="175.44" y="81.6">es y océanos</tspan></text><text class="cls-14" transform="translate(1342.08 973.09)">El der<tspan class="cls-15" x="80.03" y="0">r</tspan><tspan x="91.22" y="0">etimiento de glacia</tspan><tspan class="cls-15" x="367.87" y="0">r</tspan><tspan x="379.05" y="0">es:</tspan><tspan x="-26.33" y="40.8">Fusión de hielo sob</tspan><tspan class="cls-15" x="251.1" y="40.8">r</tspan><tspan x="262.29" y="40.8">e tierra firme</tspan></text><text class="cls-17" transform="translate(447.86 172.6)">Cla<tspan class="cls-18" x="75.29" y="0">v</tspan><tspan x="99.22" y="0">es para entender esta imparable subida</tspan></text><text class="cls-19" transform="translate(61.94 290.68)">Causas que conducen al cambio climático <tspan x="0" y="66">y al aumento del nivel del mar</tspan></text><text class="cls-20" transform="translate(312.25 118.43)">AUMENTO DEL NIVEL DEL MAR</text><line class="cls-21" x1="1296.25" y1="984.04" x2="1199.25" y2="985.04"/><line class="cls-21" x1="627.75" y1="921.54" x2="627.75" y2="839.54"/><line class="cls-21" x1="247.75" y1="516.54" x2="247.75" y2="743.54"/><line class="cls-21" x1="699.75" y1="534.54" x2="699.75" y2="748.54"/><ellipse class="cls-21" cx="1131.25" cy="982.04" rx="65.5" ry="55.5"/></svg>